<?xml version="1.0" encoding="UTF-8" standalone="no"?>
<!-- Created with Inkscape (http://www.inkscape.org/) -->

<svg
   width="36.512459mm"
   height="4.3137631mm"
   viewBox="0 0 36.512459 4.3137631"
   version="1.1"
   id="svg21841"
   xml:space="preserve"
   inkscape:version="1.2.2 (b0a8486541, 2022-12-01)"
   sodipodi:docname="logo.svg"
   xmlns:inkscape="http://www.inkscape.org/namespaces/inkscape"
   xmlns:sodipodi="http://sodipodi.sourceforge.net/DTD/sodipodi-0.dtd"
   xmlns="http://www.w3.org/2000/svg"
   xmlns:svg="http://www.w3.org/2000/svg"><sodipodi:namedview
     id="namedview21843"
     pagecolor="#ffffff"
     bordercolor="#666666"
     borderopacity="1.0"
     inkscape:showpageshadow="2"
     inkscape:pageopacity="0.0"
     inkscape:pagecheckerboard="0"
     inkscape:deskcolor="#d1d1d1"
     inkscape:document-units="mm"
     showgrid="false"
     inkscape:zoom="2.587745"
     inkscape:cx="39.030121"
     inkscape:cy="98.348176"
     inkscape:window-width="1519"
     inkscape:window-height="752"
     inkscape:window-x="50"
     inkscape:window-y="114"
     inkscape:window-maximized="0"
     inkscape:current-layer="layer1" /><defs
     id="defs21838" /><g
     inkscape:label="Layer 1"
     inkscape:groupmode="layer"
     id="layer1"
     transform="translate(-45.735909,-60.060657)"><g
       aria-label="BikingImproverDay"
       id="text22702"
       style="font-size:4.23333px;line-height:1.25;stroke-width:0.264583"><path
         d="m 45.735909,63.273754 h 1.092199 c 0.5461,0 0.918633,-0.3175 0.918633,-0.897466 v -0.08467 c 0,-0.364067 -0.194734,-0.613833 -0.491067,-0.732366 0.2413,-0.110067 0.3937,-0.313267 0.3937,-0.6223 v -0.04233 c 0,-0.5207 -0.372533,-0.795866 -0.914399,-0.795866 h -0.999066 z m 0.931332,-2.582331 c 0.198967,0 0.3048,0.0762 0.3048,0.275166 v 0.04233 c 0,0.224366 -0.105833,0.317499 -0.3048,0.317499 h -0.232833 v -0.634999 z m 0.05503,1.227666 c 0.194733,0 0.304799,0.09313 0.304799,0.347133 v 0.04233 c 0,0.262466 -0.110066,0.372533 -0.304799,0.372533 h -0.287867 v -0.761999 z"
         style="font-weight:bold;font-family:Stratos;-inkscape-font-specification:'Stratos Bold'"
         id="path10370" /><path
         d="m 48.42407,60.843823 c 0.2413,0 0.410633,-0.173567 0.410633,-0.389467 0,-0.224366 -0.169333,-0.393699 -0.410633,-0.393699 -0.2413,0 -0.410633,0.169333 -0.410633,0.393699 0,0.2159 0.169333,0.389467 0.410633,0.389467 z m 0.359833,2.429931 v -2.116665 h -0.719666 v 2.116665 z"
         style="font-weight:bold;font-family:Stratos;-inkscape-font-specification:'Stratos Bold'"
         id="path10372" /><path
         d="m 49.926904,60.098757 h -0.719666 v 3.174997 h 0.719666 v -1.104899 l 0.626533,1.104899 h 0.812799 l -0.740832,-1.164166 0.702732,-0.952499 h -0.829732 l -0.5715,0.897466 z"
         style="font-weight:bold;font-family:Stratos;-inkscape-font-specification:'Stratos Bold'"
         id="path10374" /><path
         d="m 51.958904,60.843823 c 0.2413,0 0.410633,-0.173567 0.410633,-0.389467 0,-0.224366 -0.169333,-0.393699 -0.410633,-0.393699 -0.241299,0 -0.410633,0.169333 -0.410633,0.393699 0,0.2159 0.169334,0.389467 0.410633,0.389467 z m 0.359833,2.429931 v -2.116665 h -0.719666 v 2.116665 z"
         style="font-weight:bold;font-family:Stratos;-inkscape-font-specification:'Stratos Bold'"
         id="path10376" /><path
         d="m 54.096738,62.096888 v 1.176866 h 0.719666 v -1.350432 c 0,-0.537633 -0.321733,-0.808566 -0.753533,-0.808566 -0.270933,0 -0.495299,0.122766 -0.622299,0.347133 v -0.3048 h -0.6985 v 2.116665 h 0.719667 v -1.176866 c 0,-0.270933 0.110066,-0.410633 0.317499,-0.410633 0.207433,0 0.3175,0.1397 0.3175,0.410633 z"
         style="font-weight:bold;font-family:Stratos;-inkscape-font-specification:'Stratos Bold'"
         id="path10378" /><path
         d="m 56.065232,63.316087 c 0.249767,0 0.461433,-0.105833 0.613833,-0.287866 v 0.3048 c 0,0.296333 -0.148166,0.491066 -0.423333,0.491066 -0.2286,0 -0.385233,-0.1524 -0.4191,-0.381 h -0.681566 c 0.0762,0.567267 0.503767,0.931333 1.121833,0.931333 0.634999,0 1.121832,-0.414866 1.121832,-1.058333 v -2.158998 h -0.698499 v 0.270933 c -0.1524,-0.198966 -0.372533,-0.313266 -0.635,-0.313266 -0.567266,0 -0.952499,0.4318 -0.952499,1.100666 0,0.668866 0.385233,1.100665 0.952499,1.100665 z m 0.1778,-0.626532 c -0.254,0 -0.4318,-0.1905 -0.4318,-0.474133 0,-0.283633 0.1778,-0.474133 0.4318,-0.474133 0.254,0 0.436033,0.1905 0.436033,0.474133 0,0.283633 -0.182033,0.474133 -0.436033,0.474133 z"
         style="font-weight:bold;font-family:Stratos;-inkscape-font-specification:'Stratos Bold'"
         id="path10380" /><path
         d="m 58.54173,63.273754 v -3.174997 h -0.719666 v 3.174997 z"
         style="font-weight:bold;font-family:Stratos;-inkscape-font-specification:'Stratos Bold'"
         id="path10382" /><path
         d="m 60.25623,62.079955 v 1.193799 h 0.719666 v -1.193799 c 0,-0.262466 0.09737,-0.3937 0.283633,-0.3937 0.186267,0 0.287867,0.131234 0.287867,0.3937 v 1.193799 h 0.719666 v -1.371599 c 0,-0.524933 -0.3048,-0.787399 -0.7239,-0.787399 -0.287866,0 -0.529166,0.1397 -0.643466,0.385233 -0.118533,-0.258233 -0.3556,-0.385233 -0.647699,-0.385233 -0.254,0 -0.4699,0.118533 -0.588433,0.325966 v -0.283633 h -0.6985 v 2.116665 h 0.719666 v -1.193799 c 0,-0.262466 0.1016,-0.3937 0.287867,-0.3937 0.182033,0 0.283633,0.131234 0.283633,0.3937 z"
         style="font-weight:bold;font-family:Stratos;-inkscape-font-specification:'Stratos Bold'"
         id="path10384" /><path
         d="m 63.388894,64.332087 v -1.303866 c 0.1524,0.182033 0.364066,0.287866 0.613833,0.287866 0.563033,0 0.952499,-0.431799 0.952499,-1.100665 0,-0.668866 -0.389466,-1.100666 -0.952499,-1.100666 -0.262467,0 -0.4826,0.1143 -0.635,0.313266 v -0.270933 h -0.698499 v 3.174998 z m 0.4318,-1.642532 c -0.249767,0 -0.4318,-0.1905 -0.4318,-0.474133 0,-0.283633 0.182033,-0.474133 0.4318,-0.474133 0.253999,0 0.436033,0.1905 0.436033,0.474133 0,0.283633 -0.182034,0.474133 -0.436033,0.474133 z"
         style="font-weight:bold;font-family:Stratos;-inkscape-font-specification:'Stratos Bold'"
         id="path10386" /><path
         d="m 65.950057,61.157089 h -0.677332 v 2.116665 h 0.719666 v -1.058332 c 0,-0.270933 0.177799,-0.423333 0.491066,-0.423333 0.08467,0 0.160866,0.0127 0.220133,0.03387 v -0.702732 c -0.0254,-0.0085 -0.06773,-0.0085 -0.105833,-0.0085 -0.2921,0 -0.5207,0.156633 -0.6477,0.436033 z"
         style="font-weight:bold;font-family:Stratos;-inkscape-font-specification:'Stratos Bold'"
         id="path10388" /><path
         d="m 67.95242,63.316087 c 0.643466,0 1.121832,-0.444499 1.121832,-1.100665 0,-0.656166 -0.478366,-1.100666 -1.121832,-1.100666 -0.643466,0 -1.121832,0.4445 -1.121832,1.100666 0,0.656166 0.478366,1.100665 1.121832,1.100665 z m 0,-0.626532 c -0.254,0 -0.4318,-0.1905 -0.4318,-0.474133 0,-0.283633 0.1778,-0.474133 0.4318,-0.474133 0.254,0 0.4318,0.1905 0.4318,0.474133 0,0.283633 -0.1778,0.474133 -0.4318,0.474133 z"
         style="font-weight:bold;font-family:Stratos;-inkscape-font-specification:'Stratos Bold'"
         id="path10390" /><path
         d="m 70.788751,63.273754 0.4826,-2.116665 h -0.698499 l -0.334433,1.722965 -0.334433,-1.722965 h -0.6985 l 0.4826,2.116665 z"
         style="font-weight:bold;font-family:Stratos;-inkscape-font-specification:'Stratos Bold'"
         id="path10392" /><path
         d="m 73.578516,62.384755 c 0.0042,-0.05503 0.0085,-0.110067 0.0085,-0.169333 0,-0.6477 -0.452966,-1.100666 -1.092199,-1.100666 -0.639232,0 -1.092199,0.452966 -1.092199,1.100666 0,0.647699 0.452967,1.100665 1.092199,1.100665 0.537633,0 0.910166,-0.253999 1.045633,-0.740832 H 72.84615 c -0.0508,0.131233 -0.169333,0.182033 -0.338667,0.182033 -0.241299,0 -0.385233,-0.122767 -0.427566,-0.372533 z m -1.083733,-0.7112 c 0.2159,0 0.364067,0.110067 0.410633,0.351367 H 72.08415 c 0.04657,-0.232833 0.1905,-0.351367 0.410633,-0.351367 z"
         style="font-weight:bold;font-family:Stratos;-inkscape-font-specification:'Stratos Bold'"
         id="path10394" /><path
         d="m 74.581815,61.157089 h -0.677333 v 2.116665 h 0.719666 v -1.058332 c 0,-0.270933 0.1778,-0.423333 0.491067,-0.423333 0.08467,0 0.160866,0.0127 0.220133,0.03387 v -0.702732 c -0.0254,-0.0085 -0.06773,-0.0085 -0.105834,-0.0085 -0.292099,0 -0.520699,0.156633 -0.647699,0.436033 z"
         style="font-weight:bold;font-family:Stratos;-inkscape-font-specification:'Stratos Bold'"
         id="path10396" /><path
         d="m 76.605347,60.098757 h -0.994833 v 3.174997 h 0.994833 c 0.643466,0 1.037165,-0.3556 1.037165,-1.079499 v -1.015999 c 0,-0.7239 -0.393699,-1.079499 -1.037165,-1.079499 z m 0,2.561164 H 76.33018 V 60.71259 h 0.275167 c 0.198966,0 0.317499,0.110066 0.317499,0.444499 v 1.058333 c 0,0.334433 -0.118533,0.444499 -0.317499,0.444499 z"
         style="font-weight:bold;font-family:Stratos;-inkscape-font-specification:'Stratos Bold';fill:#c1d77f"
         id="path10398" /><path
         d="m 78.599243,63.316087 c 0.300567,0 0.5461,-0.110066 0.677333,-0.376766 v 0.334433 h 0.685799 v -1.435099 c 0,-0.520699 -0.461433,-0.723899 -0.965199,-0.723899 -0.507999,0 -1.007532,0.2159 -1.007532,0.778933 h 0.677332 c 0,-0.182034 0.1016,-0.283633 0.296334,-0.283633 0.160866,0 0.279399,0.08043 0.279399,0.215899 0,0.402167 -1.312332,0.0085 -1.312332,0.889 0,0.410633 0.338666,0.601132 0.668866,0.601132 z m 0.03387,-0.668866 c 0,-0.224366 0.376766,-0.186266 0.618066,-0.313266 v 0.127 c 0,0.245533 -0.1651,0.372533 -0.385233,0.372533 -0.127,0 -0.232833,-0.05927 -0.232833,-0.186267 z"
         style="font-weight:bold;font-family:Stratos;-inkscape-font-specification:'Stratos Bold';fill:#c1d77f"
         id="path10400" /><path
         d="m 81.67687,63.239887 0.571499,-2.082798 h -0.694266 l -0.3556,1.697565 -0.347133,-1.697565 h -0.702732 l 0.732366,2.535765 c -0.105833,0.09313 -0.2413,0.1397 -0.397933,0.1397 -0.105833,0 -0.2159,-0.01693 -0.313267,-0.04233 v 0.5334 c 0.09737,0.02963 0.2413,0.0508 0.389467,0.0508 0.639232,0 0.944032,-0.414866 1.117599,-1.134533 z"
         style="font-weight:bold;font-family:Stratos;-inkscape-font-specification:'Stratos Bold';fill:#c1d77f"
         id="path10402" /></g><text
       xml:space="preserve"
       style="font-style:normal;font-weight:normal;font-size:10.5833px;line-height:1.25;font-family:sans-serif;fill:#000000;fill-opacity:1;stroke:none;stroke-width:0.264583"
       x="24.863913"
       y="22.042404"
       id="text22706"><tspan
         sodipodi:role="line"
         id="tspan22704"
         style="stroke-width:0.264583"
         x="24.863913"
         y="22.042404" /></text></g></svg>
