<svg version="1.2" baseProfile="tiny-ps" xmlns="http://www.w3.org/2000/svg" viewBox="0 0 1673 1674" width="1673" height="1674">
	<title>vert_colore_wikimedia-ai</title>
	<style>
		tspan { white-space:pre }
		.shp0 { fill: #4e5056 } 
		.shp1 { fill: #85878b } 
		.shp2 { fill: #a22018 } 
		.shp3 { fill: #1266a0 } 
		.shp4 { fill: #34a56d } 
	</style>
	<g id="Layer 1">
		<g id="&lt;Group&gt;">
			<path id="&lt;Compound Path&gt;" class="shp0" d="M478.66 1147.21L436.23 1276.91L403.99 1276.91L375.45 1189.08L345.99 1276.91L313.93 1276.91L271.32 1147.21L302.45 1147.21L331.72 1238.37L362.29 1147.21L390.09 1147.21L419.73 1239.11L449.94 1147.21L478.66 1147.21Z" />
			<path id="&lt;Compound Path&gt;" class="shp0" d="M495.33 1147.21L525.35 1147.21L525.35 1276.91L495.33 1276.91L495.33 1147.21Z" />
			<path id="&lt;Compound Path&gt;" class="shp0" d="M603.35 1225.96L585.94 1244.12L585.94 1276.91L556.11 1276.91L556.11 1147.21L585.94 1147.21L585.94 1207.8L643.38 1147.21L676.73 1147.21L623 1205.02L679.88 1276.91L644.86 1276.91L603.35 1225.96Z" />
			<path id="&lt;Compound Path&gt;" class="shp0" d="M693.22 1147.21L723.24 1147.21L723.24 1276.91L693.22 1276.91L693.22 1147.21Z" />
			<path id="&lt;Compound Path&gt;" class="shp0" d="M872.02 1276.91L871.84 1199.09L833.67 1263.2L820.14 1263.2L782.16 1200.76L782.16 1276.91L753.99 1276.91L753.99 1147.21L778.82 1147.21L827.37 1227.81L875.17 1147.21L899.82 1147.21L900.19 1276.91L872.02 1276.91Z" />
			<path id="&lt;Compound Path&gt;" class="shp0" d="M1031.37 1252.82L1031.37 1276.91L930.94 1276.91L930.94 1147.21L1028.96 1147.21L1028.96 1171.3L960.77 1171.3L960.77 1199.46L1020.99 1199.46L1020.99 1222.81L960.77 1222.81L960.77 1252.82L1031.37 1252.82Z" />
			<path id="&lt;Compound Path&gt;" fill-rule="evenodd" class="shp0" d="M1055.27 1147.21L1114.19 1147.21C1128.28 1147.21 1140.72 1149.89 1151.53 1155.27C1162.34 1160.64 1170.74 1168.21 1176.73 1177.97C1182.72 1187.73 1185.72 1199.09 1185.72 1212.06C1185.72 1225.03 1182.72 1236.4 1176.73 1246.15C1170.74 1255.91 1162.34 1263.48 1151.53 1268.85C1140.72 1274.22 1128.28 1276.91 1114.19 1276.91L1055.27 1276.91L1055.27 1147.21ZM1112.71 1252.27C1125.68 1252.27 1136.03 1248.66 1143.75 1241.43C1151.47 1234.2 1155.33 1224.41 1155.33 1212.06C1155.33 1199.71 1151.47 1189.92 1143.75 1182.69C1136.03 1175.46 1125.68 1171.85 1112.71 1171.85L1085.29 1171.85L1085.29 1252.27L1112.71 1252.27Z" />
			<path id="&lt;Compound Path&gt;" class="shp0" d="M1208.32 1147.21L1238.34 1147.21L1238.34 1276.91L1208.32 1276.91L1208.32 1147.21Z" />
			<path id="&lt;Compound Path&gt;" fill-rule="evenodd" class="shp0" d="M1354.51 1249.12L1294.29 1249.12L1282.8 1276.91L1252.05 1276.91L1309.86 1147.21L1339.5 1147.21L1397.5 1276.91L1366 1276.91L1354.51 1249.12ZM1345.06 1226.33L1324.5 1176.67L1303.93 1226.33L1345.06 1226.33Z" />
		</g>
		<g id="&lt;Group&gt;">
			<path id="&lt;Compound Path&gt;" class="shp1" d="M656.1 1323L673.8 1323L673.8 1399.49L656.1 1399.49L656.1 1323Z" />
			<path id="&lt;Compound Path&gt;" class="shp1" d="M707.78 1337.42L683.31 1337.42L683.31 1323L749.96 1323L749.96 1337.42L725.48 1337.42L725.48 1399.49L707.78 1399.49L707.78 1337.42Z" />
			<path id="&lt;Compound Path&gt;" fill-rule="evenodd" class="shp1" d="M806.02 1383.1L770.5 1383.1L763.73 1399.49L745.59 1399.49L779.68 1323L797.16 1323L831.37 1399.49L812.79 1399.49L806.02 1383.1ZM800.44 1369.66L788.31 1340.37L776.18 1369.66L800.44 1369.66Z" />
			<path id="&lt;Compound Path&gt;" class="shp1" d="M839.34 1323L857.04 1323L857.04 1385.07L895.4 1385.07L895.4 1399.49L839.34 1399.49L839.34 1323Z" />
			<path id="&lt;Compound Path&gt;" class="shp1" d="M905.34 1323L923.04 1323L923.04 1399.49L905.34 1399.49L905.34 1323Z" />
			<path id="&lt;Compound Path&gt;" fill-rule="evenodd" class="shp1" d="M991.55 1383.1L956.04 1383.1L949.26 1399.49L931.13 1399.49L965.22 1323L982.7 1323L1016.9 1399.49L998.33 1399.49L991.55 1383.1ZM985.98 1369.66L973.85 1340.37L961.72 1369.66L985.98 1369.66Z" />
		</g>
		<path id="&lt;Path&gt;" class="shp2" d="M830.85 274C906.65 274 968.09 335.44 968.09 411.24C968.09 487.03 906.65 548.47 830.85 548.47C755.06 548.47 693.62 487.03 693.62 411.24C693.62 335.44 755.06 274 830.85 274Z" />
		<path id="&lt;Path&gt;" class="shp3" d="M1061.67 467.82C1090.99 497.14 1114.01 531.28 1130.09 569.29C1146.72 608.62 1155.16 650.41 1155.16 693.52C1155.16 736.63 1146.72 778.43 1130.09 817.76C1114.01 855.76 1090.99 889.9 1061.67 919.23C1032.34 948.55 998.2 971.57 960.19 987.65C920.87 1004.28 879.07 1012.72 835.96 1012.72C792.85 1012.72 751.06 1004.28 711.73 987.65C673.72 971.57 639.58 948.55 610.26 919.23C580.93 889.9 557.91 855.76 541.83 817.76C525.2 778.43 516.77 736.63 516.77 693.52C516.77 650.41 525.2 608.62 541.83 569.29C557.91 531.28 580.93 497.14 610.26 467.82C615.24 462.84 620.36 458.04 625.62 453.42L571.74 399.55C566.54 404.23 561.45 409.06 556.47 414.03C520.18 450.32 491.69 492.59 471.78 539.66C451.16 588.41 440.7 640.18 440.7 693.52C440.7 746.86 451.16 798.63 471.78 847.39C491.69 894.46 520.18 936.72 556.47 973.01C592.76 1009.3 635.03 1037.79 682.1 1057.7C730.85 1078.32 782.62 1088.78 835.96 1088.78C889.3 1088.78 941.07 1078.32 989.83 1057.7C1036.9 1037.79 1079.16 1009.3 1115.45 973.01C1151.74 936.72 1180.23 894.46 1200.14 847.39C1220.76 798.63 1231.22 746.86 1231.22 693.52C1231.22 640.18 1220.76 588.41 1200.14 539.66C1180.23 492.59 1151.74 450.32 1115.45 414.03C1110.47 409.06 1105.38 404.23 1100.18 399.55L1046.31 453.42C1051.56 458.04 1056.69 462.84 1061.67 467.82Z" />
		<path id="&lt;Path&gt;" class="shp4" d="M585.66 693.52C585.66 819.77 679.12 924.18 800.63 941.35L800.63 628.44L674.47 502.28C620.15 548.19 585.66 616.83 585.66 693.52Z" />
		<path id="&lt;Path&gt;" class="shp4" d="M1086.26 693.52C1086.26 616.83 1051.77 548.19 997.45 502.28L871.29 628.44L871.29 941.35C992.8 924.18 1086.26 819.77 1086.26 693.52Z" />
	</g>
</svg>