<?xml version="1.0" encoding="UTF-8" standalone="no"?>
<svg
   width="479.3197pt"
   height="286.92255pt"
   version="1.1"
   viewBox="0 0 479.3197 286.92255"
   id="svg406"
   sodipodi:docname="park3.svg"
   xml:space="preserve"
   inkscape:version="1.2.2 (b0a8486541, 2022-12-01)"
   xmlns:inkscape="http://www.inkscape.org/namespaces/inkscape"
   xmlns:sodipodi="http://sodipodi.sourceforge.net/DTD/sodipodi-0.dtd"
   xmlns="http://www.w3.org/2000/svg"
   xmlns:svg="http://www.w3.org/2000/svg"><defs
     id="defs410" /><sodipodi:namedview
     id="namedview408"
     pagecolor="#ffffff"
     bordercolor="#666666"
     borderopacity="1.0"
     inkscape:showpageshadow="2"
     inkscape:pageopacity="0.0"
     inkscape:pagecheckerboard="0"
     inkscape:deskcolor="#d1d1d1"
     inkscape:document-units="pt"
     showgrid="false"
     inkscape:zoom="0.78662109"
     inkscape:cx="368.66543"
     inkscape:cy="182.42582"
     inkscape:window-width="1440"
     inkscape:window-height="746"
     inkscape:window-x="0"
     inkscape:window-y="27"
     inkscape:window-maximized="1"
     inkscape:current-layer="g922" /><g
     id="g404"
     transform="translate(-16.3393,-205.11825)"><path
       d="m 366.46,415.04 18.652,-14.562 -44.406,10.824 z"
       id="path256"
       style="fill:#008000" /><path
       d="m 231.8,422.3 -20.086,15.684 47.355,-11.543 z"
       id="path258"
       style="fill:#008000" /><path
       d="m 260.63,430.82 -43.988,10.719 25.398,3.7969 z"
       id="path260"
       style="fill:#008000" /><path
       d="m 129,435.33 -20.75,15.965 28.914,4.2461 z"
       id="path262"
       style="fill:#008000" /><path
       d="m 205.47,439.51 22.73,-17.75 -31.086,-4.7227 -23.207,18.125 30.625,4.5742 z"
       id="path264"
       style="fill:#008000" /><path
       d="m 198.36,441.24 -58.918,-8.8047 8.5195,21.09 z"
       id="path266"
       style="fill:#008000" /><path
       d="m 302.14,432.98 -31.035,-4.7109 -4.2344,1.0312 -21.227,16.578 33.141,4.9492 z"
       id="path268"
       style="fill:#008000" /><path
       d="m 336.76,438.24 -31.027,-4.7109 -23.348,17.84 31.527,4.7109 z"
       id="path270"
       style="fill:#008000" /><path
       d="m 103.06,369.33 -4.25,-11.316 -42.605,32.785 30.887,-7.3242 16.785,-13.359 c -0.41797,-0.20703 -0.69922,-0.47266 -0.81641,-0.78516"
       id="path272"
       style="fill:#008000" /><path
       d="m 88.949,384.04 c -0.21094,0.16797 -0.53516,0.3125 -0.89844,0.39844 l -34.082,8.082 -2.3477,1.8047 38.012,-9.0117 18.184,-14.473 -1.9688,-0.25 z"
       id="path274" /><path
       d="m 16.34,388.6 32.262,4.7383 24.531,-18.875 -32.266,-4.7383 z"
       id="path276"
       style="fill:#008000" /><path
       d="m 90.602,386.27 -41.207,9.7695 -4.5586,3.5078 34.254,5.3008 6.9219,-5.375 -0.95312,-2.8203 h -5.5078 l 0.97656,-1.2617 h 6.2383 c 0.44922,0 0.76953,0.125 0.83984,0.32031 l 1.1367,3.3633 c 0.04687,0.14063 -0.03906,0.30859 -0.24219,0.46875 l -7.2578,5.6367 21.102,3.2656 -1.6016,1.2148 -21.074,-3.2617 -15.848,12.309 33.156,4.9531 20.832,-16.031 -5.9531,-14.734 c -0.16016,-0.39062 -0.0547,-0.83594 0.29688,-1.293 l 2.1172,-2.7344 c 0.11328,-0.14453 0.24609,-0.28906 0.40625,-0.42969 l 16.383,-14.668 -21.016,-2.6602 -18.539,14.754 c -0.21484,0.17578 -0.53906,0.32031 -0.90234,0.40625"
       id="path278"
       style="fill:#008000" /><path
       d="m 152.74,338.3 -5.0859,1.0391 -32.793,24.832 -0.51562,0.66797 0.30469,0.81641 23.758,3.1836 7.6445,-1.8125 29.953,-23.191 0.13281,-2.1328 z"
       id="path280"
       style="fill:#008000" /><path
       d="m 107.76,351.12 4.5703,12.168 33.332,-25.348 c 0.23047,-0.17578 0.58594,-0.32422 0.97656,-0.40234 l 2.5781,-0.52734 -19.293,-2.9453 z"
       id="path282"
       style="fill:#008000" /><path
       d="m 131.51,332.85 22.188,3.3867 9.5469,1.2891 25.566,-19.672 -31.77,-4.6523 z"
       id="path284"
       style="fill:#008000" /><path
       d="m 106.8,348.55 19.539,-15.035 -26.715,-4.082 z"
       id="path286"
       style="fill:#008000" /><path
       d="m 205.98,343.09 27.086,3.9062 9.2852,-2.2031 20.871,-16.059 -32.422,-4.7461 z"
       id="path288"
       style="fill:#008000" /><path
       d="m 70.648,346.8 25.348,3.7227 -6.7656,-18.02 z"
       id="path290"
       style="fill:#008000" /><path
       d="m 169.1,338.32 7.918,1.0703 3.5586,0.52734 0.52344,-0.40625 21.25,3.0625 24.828,-19.105 -32.582,-4.7695 z"
       id="path292"
       style="fill:#008000" /><path
       d="m 186.58,358.02 40.152,-9.5195 -23.398,-3.375 z"
       id="path294"
       style="fill:#008000" /><path
       d="m 43.508,367.69 32.262,4.7383 22.074,-16.984 -0.88672,-2.3555 -28.949,-4.2539 z"
       id="path296"
       style="fill:#008000" /><path
       d="m 287.55,378.77 33.512,4.8633 23.277,-18.176 -33.547,-4.8398 z"
       id="path298"
       style="fill:#008000" /><path
       d="m 248.57,343.32 43.633,-10.344 -25.367,-3.7148 z"
       id="path300"
       style="fill:#008000" /><path
       d="m 389.82,369.51 0.0352,0.0977 29.375,4.2383 24.02,-18.762 -29.816,-4.3633 z"
       id="path302"
       style="fill:#008000" /><path
       d="m 387.81,364.3 18.391,-14.637 -25.461,-3.7227 z"
       id="path304"
       style="fill:#008000" /><path
       d="m 245.52,348.8 29.289,4.2227 20.535,-16.039 z"
       id="path306"
       style="fill:#008000" /><path
       d="m 252.62,373.7 31.309,4.5469 23.234,-18.145 -31.34,-4.5195 z"
       id="path308"
       style="fill:#008000" /><path
       d="m 390,400.02 -19.918,15.555 27.441,3.9844 z"
       id="path310"
       style="fill:#008000" /><path
       d="m 150.91,366.48 13.43,-3.1836 -2.4258,-0.35156 c -1,-0.14453 -1.2227,-0.71875 -0.5,-1.2812 0.7227,-0.56245 2.1172,-0.89844 3.1172,-0.75391 l 6.1289,0.89062 9.7109,-2.3008 19.348,-14.891 -18.68,-2.6914 -0.0625,1.0273 c -0.008,0.12109 -0.0977,0.25 -0.25391,0.37109 z"
       id="path312"
       style="fill:#008000" /><path
       d="m 212.39,367.86 21.043,-16.195 -50.352,11.938 z"
       id="path314"
       style="fill:#008000" /><path
       d="m 400.64,397.61 7.5625,19.641 20.027,-15.637 z"
       id="path316"
       style="fill:#008000" /><path
       d="m 400.21,392.04 47.75,-11.641 -27.727,-3.9961 z"
       id="path318"
       style="fill:#008000" /><path
       d="m 376.67,441.87 22.633,-17.676 -0.80078,-2.082 -31.031,-4.5039 -24.516,19.141 z"
       id="path320"
       style="fill:#008000" /><path
       d="m 397.9,390.5 18.719,-14.617 -25.781,-3.7188 z"
       id="path322"
       style="fill:#008000" /><path
       d="m 430.83,399.57 19.062,-14.887 -45.383,11.062 z"
       id="path324"
       style="fill:#008000" /><path
       d="m 219.59,396.13 -33.359,-4.8438 -23.512,18.094 33.41,5.0703 z"
       id="path326"
       style="fill:#008000" /><path
       d="m 269.49,423.9 22.16,-17.305 -33.512,-4.8672 -23.738,18.535 30.816,4.6797 z"
       id="path328"
       style="fill:#008000" /><path
       d="m 126.04,428 -7.2148,-17.848 -18.25,14.043 z"
       id="path330"
       style="fill:#008000" /><path
       d="m 156.49,410.87 -27.441,-4.168 7.793,19.289 z"
       id="path332"
       style="fill:#008000" /><path
       d="m 170.31,434.62 23.215,-18.129 -33.441,-5.0781 -22.223,17.098 0.54297,1.3398 z"
       id="path334"
       style="fill:#008000" /><path
       d="m 254.52,401.2 -31.309,-4.543 -23.488,18.34 31.086,4.7188 z"
       id="path336"
       style="fill:#008000" /><path
       d="m 239.46,350.33 -23.453,18.047 32.996,4.793 23.199,-18.117 z"
       id="path338"
       style="fill:#008000" /><path
       d="m 225.82,394.62 31.309,4.5469 24.191,-18.891 -31.309,-4.543 z"
       id="path340"
       style="fill:#008000" /><path
       d="m 297.88,405.09 30.586,4.4414 3.6094,-0.88281 22.316,-17.754 -32.32,-4.6953 z"
       id="path342"
       style="fill:#008000" /><path
       d="m 260.75,399.7 33.512,4.8633 24.191,-18.887 -33.516,-4.8672 z"
       id="path344"
       style="fill:#008000" /><path
       d="m 325.73,414.95 -48.48,11.816 27.543,4.1836 z"
       id="path346"
       style="fill:#008000" /><path
       d="m 295.27,407.12 -19.543,15.258 46.527,-11.34 z"
       id="path348"
       style="fill:#008000" /><path
       d="m 332.05,413.41 -23.668,18.09 30.98,4.7031 24.484,-19.121 -29.355,-4.2656 z"
       id="path350"
       style="fill:#008000" /><path
       d="m 132.96,381.14 16.219,2.3555 22.266,-17.137 -29.891,7.0859 z"
       id="path352"
       style="fill:#008000" /><path
       d="m 124.08,389.09 -1.4141,1.8203 4.0039,9.9023 19.867,-15.289 -15.898,-2.3086 z"
       id="path354"
       style="fill:#008000" /><path
       d="m 127.69,403.34 0.3125,0.77344 31.129,4.7266 23.484,-18.074 -32.461,-4.7109 z"
       id="path356"
       style="fill:#008000" /><path
       d="m 152.79,384.02 32.461,4.7109 24.492,-18.844 -32.461,-4.7148 z"
       id="path358"
       style="fill:#008000" /><path
       d="m 127.98,432.81 -0.89453,-2.2227 -29.148,-4.3555 -25.699,19.777 32.402,4.7578 z"
       id="path360"
       style="fill:#008000" /><path
       d="m 246.39,375.21 -33.031,-4.7969 -24.488,18.848 33.328,4.8398 z"
       id="path362"
       style="fill:#008000" /><path
       d="m 94.332,425.7 -33.133,-4.9531 -25.605,19.887 33.031,4.8477 z"
       id="path364"
       style="fill:#008000" /><path
       d="m 389.75,298.96 -20.027,15.641 48.648,-11.535 z"
       id="path366"
       style="fill:#008000" /><path
       d="m 339.75,338 27.938,4.0859 -7.668,-19.914 z"
       id="path368"
       style="fill:#008000" /><path
       d="M 399.21,322.61 418.062,307.891 372.476,318.7 Z"
       id="path370"
       style="fill:#008000" /><path
       d="m 424.22,306.43 -21.395,16.707 31.004,4.5391 23.836,-18.969 -26.816,-3.8477 z"
       id="path372"
       style="fill:#008000" /><path
       d="m 336.14,337.47 18.688,-14.59 -45.195,10.711 z"
       id="path374"
       style="fill:#008000" /><path
       d="m 441.05,328.73 30.266,4.4297 24.34,-19.008 -30.742,-4.4102 z"
       id="path376"
       style="fill:#008000" /><path
       d="m 98.184,325.62 0.85547,2.2695 28.883,4.4141 25.504,-19.629 -32.281,-4.7227 z"
       id="path378"
       style="fill:#008000" /><path
       d="m 415.48,349.09 29.855,4.3672 23.898,-18.66 -30.23,-4.4258 z"
       id="path380"
       style="fill:#008000" /><path
       d="m 379.09,341.67 0.85547,2.2188 28.301,4.1406 23.523,-18.719 -31.039,-4.5391 z"
       id="path382"
       style="fill:#008000" /><path
       d="m 313.39,358.58 33.551,4.8398 22.262,-17.387 -0.73047,-1.8945 -30.812,-4.5078 z"
       id="path384"
       style="fill:#008000" /><path
       d="m 301.51,335.52 -23.078,18.02 31.344,4.5195 24.277,-18.957 -29.465,-4.3086 z"
       id="path386"
       style="fill:#008000" /><path
       d="m 424.55,372.93 31.367,5.9492 39.742,-33.801 v -27.691 z"
       id="path388"
       style="fill:#000000" /><path
       d="m 377.45,446.06 -36.742,-6.1602 -24.766,19.848 -99.863,-14.91 -72.402,16.047 -108.61,-16.047 v 30.523 l 108.61,16.68 72.402,-16.68 97.996,11.957 25.293,-9.125 35.648,1.6562 83.004,-70.57 v -26.41 z"
       id="path390" /><path
       d="m 16.34,419.54 32.906,6.4648 23.898,-19.273 -35.266,-5.6719 7.5273,-5.2227 -29.066,-4.1953 z"
       id="path392" /><path
       d="m 324.68,384.16 32.277,4.6875 21.996,-17.504 -0.36328,-0.94922 -30.629,-4.4141 z"
       id="path394"
       style="fill:#008000" /><path
       d="m 350.57,363.94 27.039,3.8984 -7.4062,-19.227 z"
       id="path396"
       style="fill:#008000" /><path
       d="m 364.2,389.9 23.199,3.3672 -6.4336,-16.711 z"
       id="path398"
       style="fill:#008000" /><path
       d="m 344.41,405.64 41.648,-10.152 -24.434,-3.5469 z"
       id="path400"
       style="fill:#008000" /><path
       d="m 378.1,339.09 19.02,-14.852 -26.219,-3.8359 z"
       id="path402"
       style="fill:#008000" /><g
       id="g922"
       transform="matrix(0.99273836,0,0,0.96496797,-178.76858,-321.55873)"><path
         d="m 436.18157,645.63052 c 4.20626,0 8.15087,1.04571 11.5478,2.86054 l -12.85134,17.20672 c 4.37282,0.37122 8.57658,1.28348 12.53188,2.66645 h 11.73594 c -0.1454,1.80024 -0.53933,3.53501 -1.14739,5.18245 1.38008,0.89527 2.70989,1.85608 3.97891,2.87991 1.1183,-2.51358 1.81102,-5.22369 2.00134,-8.06019 h 9.66828 c -0.809,-0.92924 -1.3721,-2.02104 -1.64973,-3.18563 h -8.01618 c -0.50497,-7.53101 -4.56058,-14.17383 -10.6544,-18.54833 l 7.10112,-9.50615 2.37413,-0.6769 9.54917,24.32035 1.75016,-4.93494 -7.98436,-20.33404 7.19656,-2.05502 -4.40193,-2.07929 -3.97364,1.13545 -0.72967,-1.85849 c -0.18771,-0.0412 -0.3675,-0.0777 -0.56313,-0.12374 -1.1897,-0.27659 -2.41115,-0.62112 -3.59293,-1.07 l 1.5704,3.99842 -2.80241,0.80068 c -0.36749,0.10433 -0.69793,0.32754 -0.91478,0.62112 l -7.43682,9.95708 c -4.17723,-2.2952 -9.06321,-3.61749 -14.28686,-3.61749 -7.67778,0 -14.62798,2.85079 -19.66752,7.46082 l 1.76871,4.81364 c 4.2248,-4.78694 10.67808,-7.85399 17.89833,-7.85399 z m 22.96428,19.54832 H 439.4736 l 11.11733,-14.88499 c 4.83021,3.56414 8.06627,8.87758 8.5556,14.88499 z"
         id="path896"
         style="fill:#000080;stroke-width:0.648366" /><path
         d="m 510.54984,611.81706 2.54334,6.92666 -21.34332,6.09712 3.06413,1.44601 c 0.42037,0.19652 0.809,0.42702 1.17651,0.67689 l 18.21035,-5.20184 1.62854,4.43755 -20.74569,20.20298 -2.51692,7.09189 24.51892,-23.87438 4.9492,13.48004 c -10.16575,3.80916 -17.33252,12.97072 -17.33252,23.67003 0,14.11793 12.47096,25.56506 27.85494,25.56506 15.38397,0 27.85765,-11.44713 27.85765,-25.56506 0,-14.11606 -12.47368,-25.56257 -27.85765,-25.56257 -2.50367,0 -4.92538,0.30813 -7.23378,0.8759 l -10.89535,-29.67249 -3.93662,-1.40477 c -0.0529,0.26203 -0.0396,0.53862 0.0581,0.81036 z m 22.00999,33.81221 c 12.70378,0 23.03804,9.48442 23.03804,21.13963 0,11.65831 -10.33697,21.1421 -23.03804,21.1421 -12.70109,0 -23.03807,-9.48441 -23.03807,-21.1421 0,-8.7366 5.80578,-16.25084 14.05945,-19.46821 l 7.33396,19.97504 c 0.24323,0.6672 0.92006,1.08452 1.64445,1.08452 0.18507,0 0.37013,-0.0267 0.55519,-0.0849 0.9068,-0.27902 1.39593,-1.18398 1.08927,-2.0162 v -0.003 l -7.33396,-19.97752 c 1.81894,-0.42216 3.72512,-0.65024 5.68944,-0.65024 z"
         id="path900"
         style="fill:#000080;stroke-width:0.648366" /><path
         d="m 523.44315,609.93508 c -0.0713,0.16984 -0.16393,0.32513 -0.25116,0.48525 2.05954,-0.18197 3.67753,-1.75657 3.67753,-3.69513 0,-2.05986 -1.81894,-3.72911 -4.06616,-3.72911 -0.67153,0 -1.29813,0.16499 -1.85596,0.42945 2.42698,1.28588 3.54535,4.04208 2.49575,6.50927 z"
         id="path902"
         style="stroke-width:0.648366" /><path
         d="m 495.1388,560.02235 c 6.99554,1.49701 11.34745,7.91175 9.71837,14.33158 -1.62909,6.41985 -8.62126,10.41361 -15.6168,8.91859 -6.99825,-1.49701 -11.34746,-7.91175 -9.71836,-14.33159 1.62854,-6.41984 8.62124,-10.4136 15.61679,-8.91858"
         id="path904"
         style="stroke-width:0.648366" /><path
         d="m 516.37721,611.97234 c 0.54991,0.19652 1.1183,0.29115 1.67356,0.29115 1.85332,0 3.60084,-1.02869 4.31203,-2.70769 0.92536,-2.18601 -0.2538,-4.64382 -2.6332,-5.49543 l -41.62944,-14.85829 c -2.38205,-0.84918 -5.06027,0.23291 -5.98825,2.41893 -0.92534,2.18359 0.25381,4.64382 2.63322,5.49543 z"
         id="path906"
         style="stroke-width:0.648366" /><path
         d="m 461.14245,628.70516 c 0.92535,0.31541 1.86917,0.56773 2.78923,0.78123 1.90088,0.44158 3.42636,0.72304 4.68219,0.53863 l 13.58635,6.41735 -8.88859,25.05326 c -1.23465,3.48407 0.84074,7.22791 4.63726,8.3633 0.74294,0.22079 1.49636,0.32754 2.23666,0.32754 3.04566,0 5.87981,-1.77844 6.87372,-4.58071 l 10.79179,-30.42218 c 1.10246,-3.10315 -0.40185,-6.45834 -3.56383,-7.95089 l -19.89696,-9.39682 c 1.8454,-6.05344 5.01796,-12.01732 7.68792,-16.96637 l -7.74613,-2.76588 c -2.96897,-1.06266 -4.44687,-4.14401 -3.29155,-6.8689 0.86985,-2.05744 2.98752,-3.38457 5.39069,-3.38457 0.71647,0 1.42239,0.12131 2.09657,0.36151 l 7.15662,2.55483 c -0.11897,-2.76589 -1.31133,-5.24792 -3.70928,-6.45836 -4.45478,-2.25395 -12.0581,-1.56004 -17.04487,5.26253 -6.79724,9.42105 -9.5627,15.95517 -11.41039,27.70044 -0.15865,2.13992 0.0873,3.89166 0.61335,5.34015 h -1.98549 c -0.95708,0 -1.73435,0.71329 -1.73435,1.59161 v 2.91874 c 0,0.87832 0.77727,1.59161 1.73435,1.59161 h 6.21557 l 2.77867,-0.004 z"
         id="path908"
         style="stroke-width:0.648366" /><path
         d="m 325.64438,711.85993 h 14.77349 c -1.23729,-1.41938 -2.10185,-3.08863 -2.52485,-4.86942 h -12.24898 c -0.77197,-11.50738 -6.97185,-21.66135 -16.28075,-28.34579 l 10.85,-14.52599 3.62996,-1.03602 14.59345,37.16747 2.67551,-7.54095 -12.20091,-31.07248 11.00092,-3.14439 -6.72584,-3.17594 -6.07547,1.73719 -1.11568,-2.83867 c -0.28816,-0.0631 -0.56048,-0.12131 -0.86184,-0.18925 -1.8163,-0.41974 -3.68282,-0.93651 -5.48856,-1.62316 l 2.39532,6.09953 -4.28031,1.22526 c -0.56578,0.15772 -1.06544,0.49981 -1.40121,0.94864 l -11.36302,15.21233 c -6.38479,-3.5083 -13.85099,-5.52935 -21.83265,-5.52935 -23.51115,-0.003 -42.57022,17.49058 -42.57022,39.06498 0,21.57626 19.05907,39.06932 42.57022,39.06932 22.61775,-0.003 41.1083,-16.19244 42.48088,-36.63331 z m -20.46007,-27.61785 c 7.38403,5.44928 12.32544,13.56762 13.07604,22.74831 h -30.06543 z m -57.22527,25.18183 c 0,-17.81356 15.79142,-32.30788 35.20514,-32.30788 6.42973,0 12.45472,1.59646 17.64723,4.37209 l -19.83673,26.56008 c -0.55256,0.74243 -0.61336,1.71533 -0.15598,2.50875 0.45737,0.79576 1.36419,1.30049 2.34773,1.30049 h 35.09414 c -1.36155,16.6825 -16.57653,29.87683 -35.09414,29.87683 -19.41643,0 -35.20784,-14.49432 -35.20784,-32.31036 z"
         id="path910"
         style="fill:#000080;stroke-width:0.648366" /><path
         d="m 414.36787,673.25147 c -15.5349,5.82294 -26.48845,19.82224 -26.48845,36.17244 0,21.57627 19.05907,39.06932 42.56548,39.06932 23.51115,0 42.57292,-17.49057 42.57292,-39.06932 0,-21.57378 -19.06177,-39.06684 -42.57292,-39.06684 -3.82556,0 -7.52955,0.47069 -11.05372,1.33683 l -16.65097,-45.34133 -6.01464,-2.1472 c -0.0846,0.40033 -0.0661,0.8249 0.0873,1.23496 l 3.88641,10.58565 -32.61632,9.3192 4.68483,2.21271 c 0.6398,0.30086 1.23465,0.65026 1.79511,1.03118 l 27.83125,-7.95088 2.49048,6.78381 -31.70466,30.87372 -3.84409,10.83782 37.46772,-36.48549 z m 16.07703,3.865 c 19.41372,0 35.20987,14.49183 35.20987,32.30787 0,17.81605 -15.79683,32.31223 -35.20987,32.31223 -19.41101,0 -35.20514,-14.49432 -35.20514,-32.31223 0,-13.34898 8.86965,-24.83213 21.48343,-29.75012 l 11.20938,30.52652 c 0.37278,1.01658 1.40384,1.65955 2.51159,1.65955 0.28288,0 0.56577,-0.0437 0.84601,-0.12858 1.38801,-0.42702 2.13616,-1.81 1.66557,-3.08129 v -0.003 l -11.20939,-30.53149 c 2.78395,-0.65025 5.69742,-0.99962 8.69842,-0.99962 z"
         id="path912"
         style="fill:#000080;stroke-width:0.648366" /><path
         d="m 416.51337,622.56855 c -0.11104,0.26446 -0.24323,0.51921 -0.38071,0.76913 3.15138,-0.27659 5.61809,-2.71253 5.61809,-5.67736 0,-3.14681 -2.78394,-5.70165 -6.21558,-5.70165 -1.0337,0 -2.00398,0.23536 -2.86062,0.64298 3.72248,1.96285 5.44361,6.18686 3.83882,9.96703 z"
         id="path914"
         style="stroke-width:0.648366" /><path
         d="m 373.25821,546.27647 c 10.69162,2.28552 17.34065,12.09 14.84997,21.90174 -2.49047,9.80924 -13.17417,15.91108 -23.8658,13.62599 -10.69163,-2.28309 -17.34064,-12.08999 -14.84997,-21.89924 2.49048,-9.81174 13.17418,-15.91356 23.8658,-13.62787"
         id="path916"
         style="stroke-width:0.648366" /><path
         d="m 405.71819,625.67412 c 0.84338,0.30085 1.71051,0.44157 2.56187,0.44157 2.83152,0 5.5044,-1.56732 6.59102,-4.13426 1.41441,-3.34091 -0.38599,-7.09933 -4.02385,-8.39932 l -63.62049,-22.70732 c -3.6405,-1.298 -7.73597,0.35666 -9.15254,3.69756 -1.41441,3.33849 0.38599,7.09934 4.0265,8.39746 z"
         id="path918"
         style="stroke-width:0.648366" /><path
         d="m 321.29924,651.2516 c 1.41975,0.48524 2.86326,0.86856 4.26974,1.19372 2.90293,0.67204 5.23738,1.10149 7.15392,0.82248 l 20.76464,9.80678 -13.58635,38.28609 c -1.88506,5.32555 1.28486,11.04403 7.08826,12.78128 1.13422,0.33725 2.28689,0.49981 3.41846,0.49981 4.65573,0 8.98334,-2.71979 10.50617,-7.00182 l 16.49191,-46.49164 c 1.68412,-4.74326 -0.616,-9.87012 -5.44624,-12.15272 l -30.40653,-14.36077 c 2.81569,-9.24405 7.66965,-18.36635 11.7461,-25.92904 L 341.4605,604.4817 c -4.53939,-1.62316 -6.79453,-6.33474 -5.03116,-10.49807 1.3298,-3.14198 4.56584,-5.17513 8.23817,-5.17513 1.09454,0 2.17318,0.18682 3.20167,0.55318 l 10.9373,3.90382 c -0.17977,-4.22649 -2.00397,-8.01858 -5.67095,-9.87261 -6.80535,-3.44525 -18.42218,-2.38743 -26.04379,8.04033 -10.38773,14.39742 -14.6124,24.38121 -17.44148,42.33265 -0.24059,3.26812 0.12955,5.94667 0.9359,8.15958 h -3.02983 c -1.46205,0 -2.65175,1.0918 -2.65175,2.43595 v 4.45941 c 0,1.34173 1.18706,2.4311 2.65175,2.4311 z"
         id="path920"
         style="stroke-width:0.648366" /></g></g></svg>
