<?xml version="1.0" encoding="UTF-8" standalone="no"?>
<!-- Created with Inkscape (http://www.inkscape.org/) -->

<svg
   width="158.75mm"
   height="116.51178mm"
   viewBox="0 0 158.75 116.51178"
   version="1.1"
   id="svg14378"
   sodipodi:docname="bikingimproverday.svg"
   inkscape:version="1.2.2 (b0a8486541, 2022-12-01)"
   xmlns:inkscape="http://www.inkscape.org/namespaces/inkscape"
   xmlns:sodipodi="http://sodipodi.sourceforge.net/DTD/sodipodi-0.dtd"
   xmlns="http://www.w3.org/2000/svg"
   xmlns:svg="http://www.w3.org/2000/svg">
  <sodipodi:namedview
     id="namedview14380"
     pagecolor="#ffffff"
     bordercolor="#666666"
     borderopacity="1.0"
     inkscape:showpageshadow="2"
     inkscape:pageopacity="0.0"
     inkscape:pagecheckerboard="0"
     inkscape:deskcolor="#d1d1d1"
     inkscape:document-units="mm"
     showgrid="false"
     inkscape:zoom="0.914906"
     inkscape:cx="550.87626"
     inkscape:cy="602.79416"
     inkscape:window-width="2560"
     inkscape:window-height="1376"
     inkscape:window-x="0"
     inkscape:window-y="27"
     inkscape:window-maximized="1"
     inkscape:current-layer="layer1" />
  <defs
     id="defs14375" />
  <g
     inkscape:label="Layer 1"
     inkscape:groupmode="layer"
     id="layer1"
     transform="translate(55.927296,10.582804)">
    <g
       id="g8566"
       transform="matrix(0.18092219,0,0,0.18092219,-55.92566,-180.37145)">
      <g
         id="g8486">
        <g
           id="g8442">
          <path
             class="cls-1"
             d="m 407.64,1284.11 c -0.53,0.24 -1.17,0.02 -1.43,-0.51 -0.26,-0.54 -0.04,-1.19 0.5,-1.45 2.55,-1.24 5.03,-2.67 7.35,-4.27 0.49,-0.33 1.17,-0.21 1.51,0.28 0.34,0.49 0.21,1.17 -0.28,1.51 -2.41,1.65 -4.98,3.14 -7.63,4.43 h -0.02 z m 14.26,-9.76 c -0.41,0.19 -0.92,0.1 -1.25,-0.25 -0.41,-0.44 -0.38,-1.13 0.06,-1.53 2.04,-1.88 3.96,-3.9 5.87,-6.19 0.39,-0.46 1.07,-0.52 1.53,-0.13 0.46,0.39 0.52,1.07 0.13,1.53 -1.97,2.35 -3.96,4.44 -6.06,6.38 -0.09,0.08 -0.18,0.14 -0.28,0.19 z m 11.21,-13.19 c -0.34,0.15 -0.74,0.13 -1.07,-0.09 -0.49,-0.34 -0.62,-1.02 -0.27,-1.51 1.44,-2.08 2.89,-4.31 4.69,-7.23 0.32,-0.51 0.98,-0.67 1.49,-0.35 0.51,0.32 0.67,0.98 0.35,1.49 -1.83,2.95 -3.29,5.21 -4.76,7.32 -0.11,0.17 -0.27,0.29 -0.44,0.37 z m 9.26,-14.67 c -0.32,0.15 -0.7,0.13 -1.03,-0.07 -0.51,-0.32 -0.66,-0.99 -0.35,-1.49 l 0.75,-1.19 c 1.16,-1.83 2.32,-3.94 3.46,-6.26 0.26,-0.54 0.91,-0.76 1.45,-0.5 0.54,0.26 0.76,0.91 0.5,1.45 -1.17,2.39 -2.37,4.57 -3.57,6.47 l -0.74,1.18 c -0.12,0.19 -0.28,0.33 -0.47,0.41 z m 7.75,-15.49 c -0.26,0.12 -0.57,0.14 -0.85,0.02 -0.56,-0.22 -0.83,-0.86 -0.6,-1.41 0.97,-2.41 1.96,-5.06 3.04,-8.08 0.2,-0.56 0.82,-0.86 1.39,-0.66 0.56,0.2 0.86,0.82 0.66,1.39 -1.09,3.06 -2.09,5.73 -3.07,8.16 -0.11,0.27 -0.31,0.47 -0.56,0.58 z m 5.88,-16.33 c -0.24,0.11 -0.52,0.13 -0.8,0.04 -0.57,-0.19 -0.87,-0.8 -0.68,-1.37 0.82,-2.45 1.65,-4.95 2.49,-7.5 l 0.24,-0.74 c 0.19,-0.57 0.8,-0.88 1.37,-0.69 0.57,0.19 0.88,0.8 0.69,1.37 l -0.25,0.74 c -0.84,2.55 -1.67,5.06 -2.49,7.51 -0.1,0.3 -0.31,0.52 -0.58,0.64 z m 5.48,-16.48 c -0.24,0.11 -0.53,0.13 -0.8,0.04 -0.57,-0.19 -0.87,-0.81 -0.68,-1.37 0.92,-2.71 1.86,-5.46 2.84,-8.22 0.2,-0.56 0.82,-0.86 1.38,-0.66 0.56,0.2 0.86,0.82 0.66,1.38 -0.98,2.75 -1.92,5.49 -2.83,8.19 -0.1,0.3 -0.31,0.52 -0.58,0.64 z m 5.83,-16.35 c -0.26,0.12 -0.55,0.13 -0.84,0.03 -0.56,-0.21 -0.84,-0.84 -0.63,-1.4 1.07,-2.8 2.15,-5.52 3.23,-8.09 0.23,-0.55 0.86,-0.81 1.42,-0.58 0.55,0.23 0.81,0.87 0.58,1.42 -1.07,2.55 -2.14,5.25 -3.2,8.03 -0.11,0.28 -0.31,0.49 -0.56,0.6 z m 6.72,-16 c -0.28,0.13 -0.61,0.14 -0.91,0 -0.54,-0.25 -0.78,-0.9 -0.53,-1.44 1.26,-2.71 2.56,-5.34 3.87,-7.82 0.28,-0.53 0.94,-0.73 1.46,-0.46 0.53,0.28 0.73,0.93 0.46,1.46 -1.29,2.45 -2.57,5.05 -3.82,7.73 -0.11,0.24 -0.31,0.43 -0.53,0.53 z m 8.09,-15.34 c -0.31,0.14 -0.69,0.13 -1.01,-0.06 -0.51,-0.31 -0.68,-0.97 -0.37,-1.49 1.53,-2.54 3.12,-5.01 4.74,-7.34 0.34,-0.49 1.02,-0.61 1.51,-0.27 0.49,0.34 0.61,1.02 0.27,1.51 -1.59,2.29 -3.16,4.72 -4.66,7.23 -0.12,0.19 -0.29,0.34 -0.48,0.43 z m 9.91,-14.21 c -0.36,0.17 -0.81,0.13 -1.14,-0.15 -0.46,-0.38 -0.53,-1.06 -0.16,-1.52 1.87,-2.29 3.82,-4.49 5.81,-6.55 0.41,-0.43 1.1,-0.44 1.53,-0.02 0.43,0.42 0.44,1.1 0.02,1.53 -1.94,2.01 -3.86,4.16 -5.68,6.41 -0.11,0.13 -0.24,0.23 -0.39,0.3 z m 12.04,-12.42 c -0.43,0.2 -0.95,0.09 -1.27,-0.28 -0.39,-0.46 -0.34,-1.14 0.12,-1.53 2.22,-1.91 4.55,-3.71 6.92,-5.37 0.49,-0.35 1.17,-0.22 1.51,0.27 0.34,0.49 0.22,1.17 -0.27,1.51 -2.31,1.62 -4.59,3.38 -6.75,5.24 -0.08,0.07 -0.17,0.12 -0.26,0.16 z m 14.17,-9.9 c -0.51,0.23 -1.12,0.04 -1.4,-0.46 -0.29,-0.52 -0.1,-1.18 0.42,-1.48 2.53,-1.42 5.16,-2.71 7.86,-3.89 0.55,-0.24 1.19,0.01 1.43,0.56 0.24,0.54 0,1.17 -0.54,1.42 h -0.02 c -2.64,1.15 -5.2,2.42 -7.67,3.8 -0.03,0.01 -0.05,0.03 -0.08,0.04 z m 15.66,-7.43 c -0.53,0.24 -1.16,0.02 -1.42,-0.51 -0.26,-0.54 -0.04,-1.19 0.5,-1.45 2.61,-1.28 5.16,-2.64 7.57,-4.05 0.53,-0.29 1.18,-0.13 1.48,0.39 0.3,0.52 0.13,1.18 -0.39,1.48 -2.46,1.43 -5.05,2.82 -7.71,4.12 h -0.03 z m 14.96,-8.72 c -0.47,0.21 -1.04,0.07 -1.34,-0.37 -0.34,-0.49 -0.22,-1.17 0.28,-1.51 2.38,-1.64 4.68,-3.38 6.84,-5.16 0.46,-0.38 1.14,-0.32 1.53,0.15 0.38,0.46 0.32,1.14 -0.15,1.53 -2.21,1.82 -4.56,3.6 -6.99,5.27 -0.05,0.04 -0.11,0.07 -0.17,0.09 z m 13.33,-11.05 c -0.4,0.18 -0.89,0.11 -1.22,-0.22 -0.42,-0.42 -0.42,-1.11 0,-1.53 2.04,-2.04 3.96,-4.18 5.72,-6.35 0.38,-0.47 1.06,-0.54 1.53,-0.16 0.47,0.38 0.54,1.06 0.16,1.53 -1.81,2.24 -3.78,4.43 -5.87,6.52 -0.09,0.09 -0.2,0.17 -0.32,0.22 z m 10.86,-13.47 c -0.32,0.15 -0.71,0.13 -1.03,-0.07 -0.51,-0.32 -0.65,-0.99 -0.33,-1.5 1.53,-2.41 2.93,-4.92 4.14,-7.46 0.26,-0.54 0.91,-0.77 1.45,-0.51 0.54,0.26 0.77,0.91 0.51,1.45 -1.25,2.62 -2.69,5.2 -4.27,7.69 -0.12,0.18 -0.28,0.32 -0.46,0.4 z m 7.45,-15.61 c -0.24,0.11 -0.52,0.13 -0.79,0.04 -0.57,-0.19 -0.88,-0.8 -0.69,-1.37 0.9,-2.7 1.63,-5.47 2.17,-8.24 0.11,-0.59 0.68,-0.97 1.27,-0.86 0.59,0.11 0.97,0.68 0.86,1.27 -0.56,2.87 -1.31,5.73 -2.24,8.51 -0.1,0.3 -0.31,0.52 -0.58,0.64 z m 3.3,-16.97 c -0.16,0.07 -0.33,0.11 -0.52,0.1 -0.6,-0.04 -1.05,-0.55 -1.01,-1.15 0.18,-2.83 0.17,-5.7 -0.01,-8.53 -0.04,-0.6 0.42,-1.12 1.01,-1.15 0.6,-0.04 1.11,0.41 1.15,1.01 0.19,2.92 0.2,5.89 0.01,8.81 -0.03,0.41 -0.28,0.76 -0.63,0.92 z m -1.14,-17.26 c -0.08,0.03 -0.16,0.06 -0.24,0.08 -0.59,0.12 -1.16,-0.27 -1.27,-0.85 -0.55,-2.79 -1.29,-5.56 -2.19,-8.24 -0.19,-0.57 0.12,-1.19 0.68,-1.37 0.57,-0.19 1.18,0.11 1.37,0.68 0.93,2.77 1.69,5.64 2.26,8.51 0.1,0.5 -0.17,0.99 -0.61,1.19 z m -5.52,-16.39 c -0.53,0.24 -1.16,0.02 -1.42,-0.51 -1.26,-2.56 -2.69,-5.04 -4.26,-7.38 -0.33,-0.5 -0.2,-1.17 0.29,-1.5 0.49,-0.34 1.17,-0.2 1.5,0.29 1.63,2.42 3.11,4.98 4.41,7.63 0.26,0.54 0.04,1.19 -0.5,1.45 h -0.03 z m -9.67,-14.34 c -0.42,0.19 -0.93,0.1 -1.25,-0.26 -1.93,-2.13 -4,-4.09 -6.17,-5.85 -0.47,-0.38 -0.54,-1.06 -0.16,-1.53 0.38,-0.47 1.06,-0.54 1.53,-0.16 2.26,1.82 4.41,3.87 6.41,6.08 0.4,0.44 0.37,1.13 -0.08,1.53 -0.08,0.08 -0.18,0.14 -0.28,0.18 z M 554.01,981.9 c -0.3,0.14 -0.67,0.14 -0.98,-0.04 -2.48,-1.4 -5.08,-2.56 -7.72,-3.46 -0.57,-0.19 -0.87,-0.81 -0.67,-1.38 0.2,-0.57 0.81,-0.87 1.38,-0.67 2.76,0.95 5.48,2.17 8.08,3.63 0.52,0.29 0.71,0.95 0.41,1.48 -0.12,0.21 -0.29,0.36 -0.49,0.45 z m -80.33,31.84 c -0.34,0.16 -0.75,0.13 -1.08,-0.1 -0.49,-0.34 -0.61,-1.02 -0.26,-1.51 1.7,-2.42 3.47,-4.78 5.23,-7 0.37,-0.47 1.06,-0.55 1.52,-0.17 0.47,0.37 0.55,1.06 0.17,1.52 -1.74,2.19 -3.48,4.5 -5.15,6.89 -0.12,0.16 -0.27,0.28 -0.44,0.36 z m 64.01,-37.4 c -0.18,0.08 -0.39,0.12 -0.6,0.09 -2.77,-0.39 -5.61,-0.52 -8.44,-0.38 -0.6,0.03 -1.11,-0.43 -1.14,-1.03 -0.03,-0.6 0.43,-1.11 1.03,-1.14 2.96,-0.15 5.94,-0.02 8.85,0.39 0.59,0.08 1.01,0.63 0.92,1.23 -0.05,0.38 -0.3,0.69 -0.62,0.84 z m -53.19,23.87 c -0.38,0.18 -0.85,0.12 -1.19,-0.19 -0.44,-0.41 -0.47,-1.09 -0.06,-1.53 2.02,-2.2 4.1,-4.28 6.18,-6.2 0.44,-0.41 1.13,-0.38 1.53,0.06 0.41,0.44 0.38,1.13 -0.06,1.53 -2.04,1.88 -4.08,3.92 -6.06,6.08 -0.1,0.11 -0.22,0.19 -0.35,0.25 z m 12.77,-11.7 c -0.45,0.21 -1,0.08 -1.32,-0.33 -0.36,-0.48 -0.27,-1.16 0.21,-1.52 2.4,-1.81 4.86,-3.45 7.31,-4.89 0.52,-0.29 1.18,-0.13 1.48,0.39 0.3,0.52 0.13,1.18 -0.39,1.48 -2.38,1.39 -4.77,2.99 -7.1,4.75 -0.07,0.05 -0.13,0.09 -0.2,0.12 z m 23.21,-11.33 c -0.06,0.03 -0.13,0.05 -0.21,0.07 -2.69,0.63 -5.4,1.5 -8.07,2.6 -0.55,0.23 -1.19,-0.04 -1.42,-0.59 -0.23,-0.55 0.08,-1.21 0.59,-1.42 2.78,-1.14 5.61,-2.06 8.41,-2.71 0.58,-0.14 1.17,0.23 1.3,0.81 0.12,0.51 -0.14,1.02 -0.6,1.23 z"
             id="path8436"
             style="stroke-width:0px" />
          <path
             class="cls-1"
             d="m 359.41,1298.42 c -0.14,0.07 -0.31,0.1 -0.48,0.1 -2.87,-0.07 -5.81,-0.28 -8.74,-0.63 -0.6,-0.07 -1.02,-0.61 -0.95,-1.2 0.07,-0.59 0.61,-1.02 1.2,-0.95 2.87,0.34 5.74,0.54 8.54,0.61 0.6,0.02 1.07,0.51 1.06,1.11 -0.01,0.43 -0.27,0.79 -0.63,0.96 z m -17.2,-1.99 c -0.2,0.09 -0.43,0.12 -0.66,0.08 -2.78,-0.56 -5.64,-1.26 -8.5,-2.06 -0.58,-0.16 -0.91,-0.76 -0.75,-1.34 0.16,-0.58 0.76,-0.91 1.34,-0.75 2.81,0.79 5.62,1.47 8.35,2.02 0.59,0.12 0.97,0.69 0.85,1.28 -0.07,0.35 -0.31,0.63 -0.61,0.77 z m -16.69,-4.65 c -0.25,0.11 -0.53,0.13 -0.81,0.04 -2.65,-0.93 -5.4,-1.97 -8.16,-3.1 -0.55,-0.23 -0.82,-0.86 -0.59,-1.41 0.23,-0.55 0.86,-0.82 1.41,-0.59 2.73,1.12 5.44,2.15 8.05,3.06 0.57,0.2 0.86,0.82 0.67,1.38 -0.1,0.29 -0.31,0.51 -0.57,0.63 z m -16.05,-6.55 c -0.28,0.13 -0.61,0.14 -0.91,0 -2.54,-1.17 -5.18,-2.45 -7.84,-3.8 -0.53,-0.27 -0.75,-0.92 -0.48,-1.46 0.27,-0.53 0.92,-0.75 1.46,-0.48 2.64,1.34 5.26,2.61 7.77,3.77 0.54,0.25 0.78,0.89 0.53,1.44 -0.11,0.24 -0.31,0.43 -0.53,0.53 z m -15.49,-7.82 c -0.3,0.14 -0.66,0.14 -0.97,-0.03 -2.42,-1.31 -4.98,-2.73 -7.6,-4.23 -0.52,-0.3 -0.7,-0.96 -0.4,-1.48 0.3,-0.52 0.96,-0.7 1.48,-0.4 2.61,1.49 5.15,2.9 7.56,4.21 0.53,0.29 0.72,0.94 0.44,1.47 -0.12,0.22 -0.3,0.37 -0.5,0.47 z m -15.09,-8.57 c -0.31,0.14 -0.69,0.14 -1,-0.05 -2.49,-1.47 -4.98,-2.96 -7.46,-4.45 -0.51,-0.31 -0.68,-0.97 -0.37,-1.49 0.31,-0.51 0.98,-0.68 1.49,-0.37 2.48,1.49 4.96,2.98 7.45,4.44 0.52,0.3 0.69,0.97 0.38,1.48 -0.12,0.2 -0.29,0.35 -0.48,0.43 z m -14.88,-8.94 c -0.32,0.14 -0.7,0.14 -1.01,-0.06 l -0.79,-0.48 c -2.21,-1.34 -4.42,-2.68 -6.63,-4.01 -0.51,-0.31 -0.68,-0.98 -0.37,-1.49 0.31,-0.51 0.97,-0.68 1.49,-0.37 2.21,1.33 4.42,2.68 6.64,4.02 l 0.79,0.48 c 0.51,0.31 0.67,0.98 0.36,1.49 -0.12,0.19 -0.28,0.34 -0.47,0.42 z m -14.86,-8.95 c -0.31,0.14 -0.69,0.14 -1,-0.05 -2.49,-1.47 -4.98,-2.93 -7.48,-4.36 -0.52,-0.3 -0.7,-0.96 -0.4,-1.48 0.3,-0.52 0.96,-0.7 1.48,-0.4 2.5,1.44 5,2.9 7.5,4.38 0.52,0.3 0.69,0.97 0.38,1.49 -0.12,0.2 -0.29,0.34 -0.48,0.43 z m -15.05,-8.62 c -0.3,0.14 -0.66,0.14 -0.97,-0.03 -2.64,-1.44 -5.21,-2.81 -7.64,-4.05 -0.53,-0.27 -0.74,-0.93 -0.47,-1.46 0.27,-0.53 0.93,-0.74 1.46,-0.47 2.45,1.26 5.04,2.63 7.69,4.08 0.53,0.29 0.72,0.95 0.43,1.47 -0.12,0.21 -0.29,0.37 -0.5,0.46 z m -15.45,-7.89 c -0.28,0.13 -0.61,0.14 -0.91,0 -2.64,-1.24 -5.29,-2.43 -7.87,-3.54 -0.55,-0.23 -0.81,-0.87 -0.57,-1.42 0.24,-0.55 0.87,-0.81 1.42,-0.57 2.61,1.11 5.28,2.31 7.95,3.57 0.54,0.26 0.77,0.9 0.52,1.44 -0.11,0.24 -0.3,0.42 -0.53,0.52 z m -15.96,-6.79 c -0.25,0.12 -0.55,0.13 -0.83,0.03 -2.75,-1.04 -5.49,-2 -8.13,-2.85 -0.57,-0.18 -0.88,-0.8 -0.7,-1.37 0.18,-0.57 0.79,-0.88 1.37,-0.7 2.68,0.87 5.45,1.84 8.23,2.89 0.56,0.21 0.84,0.84 0.63,1.4 -0.11,0.28 -0.31,0.49 -0.56,0.6 z m -16.5,-5.32 c -0.22,0.1 -0.47,0.13 -0.73,0.06 -2.84,-0.75 -5.66,-1.39 -8.38,-1.93 -0.59,-0.11 -0.97,-0.68 -0.86,-1.27 0.11,-0.59 0.68,-0.97 1.27,-0.86 2.77,0.54 5.64,1.2 8.52,1.96 0.58,0.15 0.93,0.74 0.77,1.32 -0.09,0.33 -0.31,0.58 -0.6,0.71 z m -17.01,-3.29 c -0.17,0.08 -0.37,0.11 -0.58,0.09 -2.9,-0.34 -5.78,-0.56 -8.55,-0.64 -0.6,-0.02 -1.07,-0.52 -1.05,-1.12 0.02,-0.6 0.52,-1.07 1.12,-1.05 2.83,0.09 5.77,0.31 8.74,0.65 0.59,0.07 1.02,0.61 0.95,1.2 -0.05,0.39 -0.29,0.71 -0.63,0.86 z m -68.66,28.03 c -0.35,0.16 -0.77,0.13 -1.1,-0.12 -0.48,-0.36 -0.57,-1.04 -0.21,-1.52 1.79,-2.38 3.69,-4.65 5.63,-6.74 0.41,-0.44 1.09,-0.46 1.53,-0.06 0.44,0.41 0.46,1.09 0.06,1.53 -1.89,2.04 -3.74,4.25 -5.49,6.57 -0.11,0.15 -0.26,0.26 -0.41,0.33 z m 51.35,-28.51 c -0.11,0.05 -0.24,0.09 -0.37,0.1 -2.88,0.2 -5.73,0.57 -8.47,1.08 -0.59,0.11 -1.15,-0.28 -1.27,-0.87 -0.11,-0.59 0.28,-1.15 0.87,-1.27 2.82,-0.53 5.75,-0.9 8.72,-1.11 0.6,-0.04 1.12,0.41 1.16,1 0.03,0.46 -0.23,0.88 -0.63,1.06 z m -39.54,15.85 c -0.43,0.2 -0.95,0.09 -1.28,-0.28 -0.39,-0.46 -0.33,-1.14 0.12,-1.53 2.25,-1.92 4.62,-3.69 7.05,-5.28 0.51,-0.32 1.17,-0.19 1.5,0.32 0.33,0.51 0.19,1.17 -0.32,1.5 -2.35,1.53 -4.65,3.25 -6.83,5.11 -0.08,0.07 -0.16,0.12 -0.25,0.16 z m 22.55,-12.63 c 0,0 -0.08,0.03 -0.12,0.05 -2.71,0.87 -5.39,1.93 -7.92,3.14 h -0.02 c -0.54,0.25 -1.17,0.02 -1.43,-0.51 -0.26,-0.54 -0.03,-1.19 0.51,-1.45 2.62,-1.25 5.38,-2.35 8.19,-3.25 0.57,-0.18 1.18,0.13 1.36,0.7 0.17,0.53 -0.09,1.09 -0.58,1.32 z"
             id="path8438"
             style="stroke-width:0px" />
          <path
             class="cls-1"
             d="m 76.31,1577.12 c -2.32,1.06 -4.79,1.98 -7.34,2.73 -0.57,0.17 -1.18,-0.16 -1.35,-0.73 -0.17,-0.57 0.16,-1.17 0.73,-1.35 2.45,-0.72 4.82,-1.6 7.05,-2.62 h 0.02 c 0.28,-0.14 0.57,-0.27 0.85,-0.41 h 0.02 c 0.54,-0.25 1.17,-0.03 1.43,0.51 0.26,0.54 0.03,1.19 -0.51,1.45 -0.29,0.14 -0.59,0.28 -0.89,0.42 H 76.3 Z m 8.34,-4.84 c -0.46,0.21 -1.02,0.07 -1.33,-0.35 -0.35,-0.49 -0.24,-1.16 0.25,-1.51 2.27,-1.64 4.43,-3.5 6.41,-5.54 0.42,-0.43 1.1,-0.44 1.53,-0.02 0.43,0.42 0.44,1.1 0.02,1.53 -2.07,2.13 -4.32,4.08 -6.7,5.79 -0.06,0.04 -0.12,0.08 -0.18,0.11 z m -24,9.34 c -0.09,0.04 -0.19,0.07 -0.29,0.09 -2.8,0.41 -5.75,0.66 -8.76,0.74 -0.6,0.02 -1.1,-0.46 -1.11,-1.05 -0.02,-0.6 0.46,-1.1 1.05,-1.11 2.93,-0.08 5.79,-0.32 8.51,-0.72 0.59,-0.09 1.14,0.32 1.23,0.92 0.07,0.49 -0.19,0.95 -0.62,1.14 z m 36.05,-21.71 c -0.34,0.15 -0.74,0.13 -1.07,-0.09 -0.49,-0.34 -0.61,-1.02 -0.27,-1.51 1.57,-2.26 3.03,-4.72 4.34,-7.32 0.27,-0.54 0.92,-0.75 1.46,-0.48 0.53,0.27 0.75,0.92 0.48,1.46 -1.36,2.69 -2.87,5.24 -4.5,7.58 -0.12,0.17 -0.27,0.29 -0.44,0.37 z m -53.35,22.22 c -0.16,0.07 -0.34,0.11 -0.53,0.09 -2.83,-0.21 -5.76,-0.55 -8.71,-1.01 -0.59,-0.09 -1,-0.65 -0.9,-1.24 0.09,-0.59 0.65,-1 1.24,-0.9 2.9,0.45 5.77,0.79 8.53,0.99 0.6,0.04 1.05,0.56 1,1.16 -0.03,0.41 -0.28,0.75 -0.63,0.91 z m 61.21,-37.62 c -0.25,0.12 -0.55,0.13 -0.84,0.03 -0.56,-0.21 -0.84,-0.84 -0.63,-1.4 1.01,-2.66 1.93,-5.39 2.74,-8.12 0.17,-0.58 0.77,-0.9 1.35,-0.73 0.57,0.17 0.9,0.77 0.73,1.35 -0.82,2.79 -1.76,5.57 -2.79,8.28 -0.1,0.28 -0.31,0.49 -0.56,0.6 z m -78.36,34.96 c -0.21,0.1 -0.45,0.13 -0.69,0.07 -2.79,-0.65 -5.63,-1.41 -8.46,-2.26 -0.57,-0.17 -0.9,-0.78 -0.73,-1.35 0.17,-0.57 0.78,-0.9 1.35,-0.73 2.78,0.84 5.58,1.59 8.32,2.22 0.58,0.14 0.95,0.72 0.81,1.3 -0.08,0.34 -0.31,0.61 -0.61,0.74 z m -16.63,-5.01 c -0.25,0.12 -0.55,0.13 -0.83,0.03 -5.02,-1.86 -8.02,-3.3 -8.14,-3.36 -0.54,-0.26 -0.76,-0.91 -0.5,-1.45 0.26,-0.54 0.91,-0.77 1.45,-0.5 0.03,0.01 3.04,1.46 7.95,3.28 0.56,0.21 0.85,0.83 0.64,1.39 -0.1,0.28 -0.31,0.49 -0.57,0.61 z m 99.9,-46.56 c -0.21,0.09 -0.44,0.12 -0.68,0.07 -0.59,-0.13 -0.96,-0.7 -0.83,-1.29 0.6,-2.76 1.12,-5.6 1.53,-8.45 0.09,-0.59 0.64,-1 1.23,-0.92 0.59,0.09 1,0.64 0.92,1.23 -0.42,2.89 -0.95,5.79 -1.56,8.59 -0.08,0.35 -0.31,0.62 -0.61,0.76 z m 2.53,-17.11 c -0.16,0.07 -0.35,0.11 -0.54,0.09 -0.6,-0.05 -1.04,-0.57 -0.99,-1.17 0.23,-2.8 0.38,-5.69 0.45,-8.59 0.01,-0.6 0.51,-1.07 1.11,-1.06 0.6,0.02 1.07,0.51 1.06,1.11 -0.07,2.94 -0.22,5.87 -0.46,8.72 -0.03,0.41 -0.29,0.74 -0.63,0.9 z m 0.43,-17.32 c -0.13,0.06 -0.27,0.09 -0.42,0.1 -0.6,0.02 -1.1,-0.46 -1.11,-1.05 -0.08,-2.81 -0.23,-5.71 -0.45,-8.61 -0.05,-0.6 0.4,-1.12 1,-1.16 0.6,-0.05 1.12,0.4 1.16,1 0.22,2.93 0.37,5.86 0.45,8.71 0.01,0.45 -0.25,0.84 -0.63,1.02 z m -1.28,-17.29 c -0.1,0.05 -0.21,0.08 -0.33,0.09 -0.59,0.07 -1.13,-0.36 -1.2,-0.95 -0.32,-2.77 -0.71,-5.65 -1.15,-8.56 -0.09,-0.59 0.32,-1.14 0.91,-1.24 0.59,-0.09 1.15,0.32 1.24,0.91 0.45,2.93 0.84,5.84 1.16,8.64 0.06,0.48 -0.21,0.92 -0.63,1.11 z m -2.6,-17.15 c -0.08,0.04 -0.17,0.06 -0.26,0.08 -0.59,0.11 -1.15,-0.28 -1.26,-0.87 -0.5,-2.72 -1.07,-5.58 -1.68,-8.49 -0.12,-0.59 0.25,-1.16 0.84,-1.28 0.59,-0.12 1.16,0.25 1.28,0.84 0.62,2.93 1.18,5.8 1.69,8.54 0.09,0.5 -0.17,0.98 -0.61,1.18 z m -3.57,-16.97 c -0.06,0.03 -0.13,0.05 -0.21,0.07 -0.58,0.14 -1.17,-0.23 -1.3,-0.81 -0.63,-2.68 -1.32,-5.51 -2.05,-8.4 -0.15,-0.58 0.2,-1.18 0.79,-1.32 0.58,-0.15 1.17,0.21 1.32,0.79 0.73,2.91 1.43,5.75 2.06,8.44 0.12,0.51 -0.14,1.02 -0.6,1.23 z m -4.24,-16.82 c -0.05,0.03 -0.11,0.05 -0.17,0.06 -0.58,0.15 -1.17,-0.19 -1.33,-0.77 -0.75,-2.79 -1.51,-5.59 -2.29,-8.37 -0.16,-0.58 0.17,-1.17 0.75,-1.33 0.58,-0.16 1.17,0.18 1.33,0.75 0.78,2.79 1.54,5.59 2.29,8.39 0.14,0.52 -0.12,1.05 -0.6,1.27 z m -4.65,-16.75 c 0,0 -0.1,0.04 -0.15,0.06 -0.58,0.17 -1.18,-0.17 -1.34,-0.74 -0.8,-2.79 -1.6,-5.57 -2.4,-8.34 -0.17,-0.58 0.17,-1.17 0.74,-1.34 0.58,-0.17 1.18,0.17 1.34,0.74 0.8,2.77 1.6,5.56 2.4,8.35 0.15,0.52 -0.11,1.06 -0.59,1.28 z m -4.81,-16.68 c 0,0 -0.1,0.04 -0.15,0.06 -0.58,0.17 -1.18,-0.17 -1.34,-0.74 -0.8,-2.79 -1.6,-5.58 -2.38,-8.35 -0.16,-0.58 0.17,-1.17 0.75,-1.34 0.58,-0.16 1.18,0.17 1.34,0.75 0.78,2.77 1.58,5.55 2.38,8.34 0.15,0.52 -0.11,1.07 -0.59,1.29 z m -4.71,-16.71 c -0.05,0.02 -0.11,0.05 -0.17,0.06 -0.58,0.16 -1.17,-0.18 -1.33,-0.76 -0.77,-2.81 -1.52,-5.62 -2.24,-8.4 -0.15,-0.58 0.19,-1.17 0.78,-1.32 0.58,-0.15 1.17,0.2 1.32,0.78 0.72,2.78 1.46,5.57 2.23,8.37 0.14,0.52 -0.12,1.05 -0.59,1.27 z m -4.33,-16.81 c -0.06,0.03 -0.13,0.05 -0.2,0.07 -0.58,0.14 -1.17,-0.22 -1.31,-0.8 -0.71,-2.95 -1.35,-5.8 -1.93,-8.49 -0.12,-0.59 0.26,-1.16 0.83,-1.29 0.59,-0.12 1.16,0.25 1.29,0.83 0.57,2.67 1.21,5.51 1.91,8.44 0.12,0.51 -0.14,1.03 -0.6,1.24 z m -3.61,-16.97 c -0.08,0.04 -0.17,0.06 -0.26,0.08 -0.59,0.11 -1.15,-0.28 -1.26,-0.87 -0.53,-2.94 -1,-5.84 -1.4,-8.6 -0.08,-0.59 0.33,-1.14 0.92,-1.23 0.59,-0.08 1.14,0.33 1.23,0.92 0.39,2.74 0.85,5.61 1.38,8.52 0.09,0.5 -0.17,0.98 -0.61,1.18 z m -2.41,-17.17 c -0.11,0.05 -0.23,0.08 -0.35,0.09 -0.6,0.06 -1.12,-0.38 -1.18,-0.98 -0.28,-2.98 -0.47,-5.91 -0.57,-8.71 -0.02,-0.6 0.45,-1.1 1.05,-1.12 0.6,-0.02 1.1,0.45 1.12,1.05 0.1,2.76 0.28,5.65 0.56,8.59 0.04,0.47 -0.22,0.9 -0.63,1.09 z m -0.57,-17.31 c -0.15,0.07 -0.31,0.1 -0.49,0.1 -0.6,-0.02 -1.07,-0.52 -1.05,-1.12 0.11,-2.98 0.33,-5.92 0.67,-8.72 0.07,-0.59 0.61,-1.02 1.21,-0.95 0.59,0.07 1.02,0.61 0.95,1.21 -0.33,2.75 -0.55,5.62 -0.65,8.54 -0.02,0.42 -0.27,0.78 -0.63,0.95 z m 2.1,-17.16 c -0.21,0.09 -0.44,0.13 -0.68,0.07 -0.59,-0.13 -0.95,-0.71 -0.83,-1.29 0.64,-2.89 1.43,-5.74 2.35,-8.46 0.19,-0.57 0.81,-0.87 1.38,-0.68 0.57,0.19 0.87,0.81 0.68,1.38 -0.9,2.64 -1.67,5.41 -2.29,8.23 -0.08,0.35 -0.31,0.62 -0.61,0.75 z"
             id="path8440"
             style="stroke-width:0px" />
        </g>
        <g
           id="g8456">
          <g
             id="g8448">
            <path
               class="cls-1"
               d="m 268.72,1174.13 c 11.56,25.28 79.65,67.61 95.79,77.39 1.66,1 3.8,0.02 4.12,-1.89 2.26,-13.33 9.32,-57.7 8.9,-91.11 -0.17,-13.26 -1.51,-24.78 -4.79,-31.97 -13.14,-28.72 -47.07,-41.36 -75.8,-28.22 -28.72,13.14 -41.36,47.07 -28.22,75.8 z"
               id="path8444"
               style="stroke-width:0px" />
            <circle
               class="cls-3"
               cx="320.73001"
               cy="1150.34"
               r="26.15"
               id="circle8446"
               style="fill:#c1d77f;stroke-width:0px" />
          </g>
          <g
             id="g8454">
            <circle
               class="cls-2"
               cx="378.62"
               cy="1276.91"
               r="18.219999"
               transform="rotate(-47.08,378.59556,1276.8731)"
               id="circle8450"
               style="fill:#ffffff;stroke-width:0px" />
            <path
               class="cls-1"
               d="m 386.65,1294.46 c -9.68,4.43 -21.16,0.15 -25.59,-9.53 -4.43,-9.68 -0.15,-21.16 9.53,-25.59 9.68,-4.43 21.16,-0.15 25.59,9.53 4.43,9.68 0.15,21.16 -9.53,25.59 z m -15.16,-33.14 c -8.59,3.93 -12.39,14.12 -8.46,22.71 3.93,8.59 14.12,12.39 22.71,8.46 8.59,-3.93 12.39,-14.12 8.46,-22.71 -3.93,-8.59 -14.12,-12.39 -22.71,-8.46 z"
               id="path8452"
               style="stroke-width:0px" />
          </g>
        </g>
        <g
           id="g8470">
          <g
             id="g8462">
            <path
               class="cls-1"
               d="m 410.01,977.21 c 5.53,12.1 38.11,32.35 45.84,37.03 0.79,0.48 1.82,0.01 1.97,-0.9 1.08,-6.38 4.46,-27.61 4.26,-43.6 -0.08,-6.34 -0.72,-11.86 -2.29,-15.29 -6.29,-13.74 -22.52,-19.79 -36.27,-13.5 -13.74,6.29 -19.79,22.52 -13.5,36.27 z"
               id="path8458"
               style="stroke-width:0px" />
            <circle
               class="cls-2"
               cx="434.89001"
               cy="965.83002"
               r="12.51"
               id="circle8460"
               style="fill:#ffffff;stroke-width:0px" />
          </g>
          <g
             id="g8468">
            <circle
               class="cls-2"
               cx="464.72"
               cy="1031.03"
               r="11.35"
               transform="rotate(-47.08,464.69201,1031.0013)"
               id="circle8464"
               style="fill:#ffffff;stroke-width:0px" />
            <path
               class="cls-1"
               d="m 469.89,1042.34 c -6.24,2.85 -13.63,0.1 -16.48,-6.14 -2.85,-6.24 -0.1,-13.63 6.14,-16.48 6.24,-2.85 13.63,-0.1 16.48,6.14 2.85,6.24 0.1,13.63 -6.14,16.48 z m -9.44,-20.65 c -5.15,2.35 -7.42,8.46 -5.07,13.61 2.35,5.15 8.46,7.42 13.61,5.07 5.15,-2.35 7.42,-8.46 5.07,-13.61 -2.35,-5.15 -8.46,-7.42 -13.61,-5.07 z"
               id="path8466"
               style="stroke-width:0px" />
          </g>
        </g>
        <g
           id="g8484">
          <g
             id="g8476">
            <path
               class="cls-1"
               d="m 15.61,1196.41 c 7.2,15.75 49.62,42.12 59.68,48.22 1.03,0.63 2.37,0.01 2.57,-1.18 1.41,-8.3 5.8,-35.95 5.54,-56.76 -0.1,-8.26 -0.94,-15.44 -2.99,-19.91 -8.18,-17.89 -29.33,-25.77 -47.22,-17.58 -17.89,8.18 -25.77,29.33 -17.58,47.22 z"
               id="path8472"
               style="stroke-width:0px" />
            <circle
               class="cls-2"
               cx="48.009998"
               cy="1181.59"
               r="16.290001"
               transform="rotate(-37.86,48.025179,1181.6169)"
               id="circle8474"
               style="fill:#ffffff;stroke-width:0px" />
          </g>
          <g
             id="g8482">
            <circle
               class="cls-2"
               cx="84.080002"
               cy="1260.4399"
               r="11.35"
               transform="rotate(-24.58,84.062723,1260.3697)"
               id="circle8478"
               style="fill:#ffffff;stroke-width:0px" />
            <path
               class="cls-1"
               d="m 89.25,1271.75 c -6.24,2.85 -13.63,0.1 -16.48,-6.14 -2.85,-6.24 -0.1,-13.63 6.14,-16.48 6.24,-2.85 13.63,-0.1 16.48,6.14 2.85,6.24 0.1,13.63 -6.14,16.48 z m -9.44,-20.65 c -5.15,2.35 -7.42,8.46 -5.07,13.61 2.35,5.15 8.46,7.42 13.61,5.07 5.15,-2.35 7.42,-8.46 5.07,-13.61 -2.35,-5.15 -8.46,-7.42 -13.61,-5.07 z"
               id="path8480"
               style="stroke-width:0px" />
          </g>
        </g>
      </g>
      <g
         id="g8564">
        <g
           id="g8496">
          <path
             class="cls-2"
             d="m 513.8,1432.67 -6.7,7.16 40.71,37.32 c 1.98,1.85 5.08,1.75 6.93,-0.23 1.85,-1.98 1.75,-5.08 -0.23,-6.93 z"
             id="path8488"
             style="fill:#ffffff;stroke-width:0px" />
          <g
             id="g8494">
            <rect
               class="cls-2"
               x="495.17999"
               y="1429.79"
               width="37.25"
               height="12.94"
               transform="rotate(14.67,513.72191,1435.9362)"
               id="rect8490"
               style="fill:#ffffff;stroke-width:0px" />
            <path
               class="cls-1"
               d="m 530.19,1448.27 c -0.09,0 -0.18,-0.01 -0.26,-0.03 l -36.04,-9.43 c -0.27,-0.07 -0.49,-0.24 -0.63,-0.48 -0.14,-0.24 -0.18,-0.52 -0.11,-0.79 l 3.28,-12.51 c 0.15,-0.55 0.71,-0.88 1.27,-0.74 l 36.04,9.43 c 0.27,0.07 0.49,0.24 0.63,0.48 0.14,0.24 0.18,0.52 0.11,0.79 l -3.28,12.51 c -0.12,0.47 -0.54,0.78 -1,0.78 z m -34.77,-11.21 34.03,8.91 2.75,-10.51 -34.03,-8.91 z"
               id="path8492"
               style="stroke-width:0px" />
          </g>
        </g>
        <g
           id="g8506">
          <g
             id="g8502">
            <path
               class="cls-3"
               d="m 654.11,1437.65 c 0,59.97 48.62,108.59 108.59,108.59 59.97,0 108.59,-48.62 108.59,-108.59 0,-59.97 -48.62,-108.59 -108.59,-108.59 -59.97,0 -108.59,48.62 -108.59,108.59 z m 16.83,0 c 0,-50.68 41.08,-91.76 91.76,-91.76 50.68,0 91.76,41.08 91.76,91.76 0,50.68 -41.08,91.76 -91.76,91.76 -50.68,0 -91.76,-41.08 -91.76,-91.76 z"
               id="path8498"
               style="fill:#c1d77f;stroke-width:0px" />
            <path
               class="cls-1"
               d="m 762.7,1547.28 c -60.45,0 -109.63,-49.18 -109.63,-109.63 0,-60.45 49.18,-109.63 109.63,-109.63 60.45,0 109.63,49.18 109.63,109.63 0,60.45 -49.18,109.63 -109.63,109.63 z m 0,-217.18 c -59.31,0 -107.55,48.25 -107.55,107.55 0,59.3 48.25,107.55 107.55,107.55 59.3,0 107.55,-48.25 107.55,-107.55 0,-59.3 -48.25,-107.55 -107.55,-107.55 z m 0,200.35 c -51.17,0 -92.8,-41.63 -92.8,-92.8 0,-51.17 41.63,-92.8 92.8,-92.8 51.17,0 92.8,41.63 92.8,92.8 0,51.17 -41.63,92.8 -92.8,92.8 z m 0,-183.52 c -50.02,0 -90.72,40.7 -90.72,90.72 0,50.02 40.7,90.72 90.72,90.72 50.02,0 90.72,-40.7 90.72,-90.72 0,-50.02 -40.7,-90.72 -90.72,-90.72 z"
               id="path8500"
               style="stroke-width:0px" />
          </g>
          <path
             class="cls-1"
             d="m 647.96,1437.65 c 0,-63.27 51.47,-114.74 114.74,-114.74 63.27,0 114.74,51.47 114.74,114.74 0,63.27 -51.47,114.74 -114.74,114.74 -63.27,0 -114.74,-51.47 -114.74,-114.74 z m 12.29,0 c 0,56.49 45.96,102.45 102.45,102.45 56.49,0 102.45,-45.96 102.45,-102.45 0,-56.49 -45.96,-102.45 -102.45,-102.45 -56.49,0 -102.45,45.96 -102.45,102.45 z"
             id="path8504"
             style="stroke-width:0px" />
        </g>
        <g
           id="g8518">
          <g
             id="g8512">
            <path
               class="cls-3"
               d="m 281.27,1437.65 c 0,59.97 48.62,108.59 108.59,108.59 59.97,0 108.59,-48.62 108.59,-108.59 0,-59.97 -48.62,-108.59 -108.59,-108.59 -59.97,0 -108.59,48.62 -108.59,108.59 z m 16.83,0 c 0,-50.68 41.08,-91.76 91.76,-91.76 50.68,0 91.76,41.08 91.76,91.76 0,50.68 -41.08,91.76 -91.76,91.76 -50.68,0 -91.76,-41.08 -91.76,-91.76 z"
               id="path8508"
               style="fill:#c1d77f;stroke-width:0px" />
            <path
               class="cls-1"
               d="m 389.86,1547.28 c -60.45,0 -109.63,-49.18 -109.63,-109.63 0,-60.45 49.18,-109.63 109.63,-109.63 60.45,0 109.63,49.18 109.63,109.63 0,60.45 -49.18,109.63 -109.63,109.63 z m 0,-217.18 c -59.31,0 -107.55,48.25 -107.55,107.55 0,59.3 48.25,107.55 107.55,107.55 59.3,0 107.55,-48.25 107.55,-107.55 0,-59.3 -48.25,-107.55 -107.55,-107.55 z m 0,200.35 c -51.17,0 -92.8,-41.63 -92.8,-92.8 0,-51.17 41.63,-92.8 92.8,-92.8 51.17,0 92.8,41.63 92.8,92.8 0,51.17 -41.63,92.8 -92.8,92.8 z m 0,-183.52 c -50.02,0 -90.72,40.7 -90.72,90.72 0,50.02 40.7,90.72 90.72,90.72 50.02,0 90.72,-40.7 90.72,-90.72 0,-50.02 -40.7,-90.72 -90.72,-90.72 z"
               id="path8510"
               style="stroke-width:0px" />
          </g>
          <path
             class="cls-1"
             d="m 275.12,1437.65 c 0,-63.27 51.47,-114.74 114.74,-114.74 63.27,0 114.74,51.47 114.74,114.74 0,63.27 -51.47,114.74 -114.74,114.74 -63.27,0 -114.74,-51.47 -114.74,-114.74 z m 12.29,0 c 0,56.49 45.96,102.45 102.45,102.45 56.49,0 102.45,-45.96 102.45,-102.45 0,-56.49 -45.96,-102.45 -102.45,-102.45 -56.49,0 -102.45,45.96 -102.45,102.45 z"
             id="path8514"
             style="stroke-width:0px" />
          <path
             class="cls-1"
             d="m 322.23,1482.91 c -0.34,0 -0.67,-0.17 -0.87,-0.47 -0.31,-0.48 -0.18,-1.12 0.3,-1.44 l 40.21,-26.29 c 0.48,-0.31 1.12,-0.18 1.44,0.3 0.31,0.48 0.18,1.12 -0.3,1.44 l -40.21,26.29 c -0.17,0.11 -0.37,0.17 -0.57,0.17 z"
             id="path8516"
             style="stroke-width:0px" />
        </g>
        <g
           id="g8524">
          <circle
             class="cls-2"
             cx="389.85999"
             cy="1437.65"
             r="21.299999"
             transform="rotate(-13.28,389.9678,1437.8915)"
             id="circle8520"
             style="fill:#ffffff;stroke-width:0px" />
          <path
             class="cls-1"
             d="m 389.86,1459.99 c -12.32,0 -22.34,-10.02 -22.34,-22.34 0,-12.32 10.02,-22.34 22.34,-22.34 12.32,0 22.34,10.02 22.34,22.34 0,12.32 -10.02,22.34 -22.34,22.34 z m 0,-42.6 c -11.17,0 -20.26,9.09 -20.26,20.26 0,11.17 9.09,20.26 20.26,20.26 11.17,0 20.26,-9.09 20.26,-20.26 0,-11.17 -9.09,-20.26 -20.26,-20.26 z"
             id="path8522"
             style="stroke-width:0px" />
        </g>
        <path
           class="cls-1"
           d="m 820.75,1492.36 c -0.25,0 -0.51,-0.09 -0.7,-0.28 L 783.3,1458.1 c -0.42,-0.39 -0.45,-1.05 -0.06,-1.47 0.39,-0.42 1.05,-0.45 1.47,-0.06 l 36.75,33.98 c 0.42,0.39 0.45,1.05 0.06,1.47 -0.2,0.22 -0.48,0.33 -0.76,0.33 z"
           id="path8526"
           style="stroke-width:0px" />
        <path
           class="cls-1"
           d="m 776.17,1412.51 c -0.16,0 -0.32,-0.04 -0.47,-0.12 -0.51,-0.26 -0.71,-0.89 -0.45,-1.4 l 23.79,-46.21 c 0.26,-0.51 0.89,-0.71 1.4,-0.45 0.51,0.26 0.71,0.89 0.45,1.4 l -23.79,46.21 c -0.18,0.36 -0.55,0.56 -0.92,0.56 z"
           id="path8528"
           style="stroke-width:0px" />
        <g
           id="g8550">
          <g
             id="g8534">
            <path
               class="cls-2"
               d="m 555.34,1457.48 140.81,-183.65 -12.39,-9.5 -134.4,175.28 -51.22,-153.24 187.77,-33.17 -2.71,-15.37 -190.06,33.57 -10.66,-31.89 -14.73,5.16 10.52,31.46 -97.79,156.53 c -3.57,5.72 -0.35,13.25 6.26,14.61 l 184.96,38.05 3.15,-15.29 -16.43,-3.35 -3.08,-9.22 z m -154.31,-28.32 83.65,-133.86 56.09,167.81 -137.16,-27.95 c -2.71,-0.55 -4.04,-3.65 -2.57,-6 z"
               id="path8530"
               style="fill:#ffffff;stroke-width:0px" />
            <path
               class="cls-1"
               d="m 571.7,1486.38 c -0.07,0 -0.14,0 -0.21,-0.02 l -184.96,-38.05 c -3.49,-0.72 -6.29,-3 -7.69,-6.28 -1.4,-3.27 -1.12,-6.88 0.76,-9.9 l 97.53,-156.11 -10.36,-31 c -0.18,-0.54 0.11,-1.12 0.64,-1.31 l 14.73,-5.16 c 0.26,-0.09 0.55,-0.08 0.8,0.05 0.25,0.12 0.44,0.34 0.53,0.6 l 10.37,31.04 189.18,-33.41 c 0.27,-0.05 0.55,0.01 0.78,0.17 0.23,0.16 0.38,0.4 0.43,0.67 l 2.71,15.37 c 0.1,0.56 -0.28,1.1 -0.84,1.2 l -186.58,32.96 50.22,150.24 133.21,-173.73 c 0.35,-0.45 1,-0.54 1.46,-0.19 l 12.39,9.5 c 0.22,0.17 0.36,0.42 0.4,0.69 0.04,0.27 -0.04,0.55 -0.2,0.77 l -140.48,183.21 2.72,8.13 15.84,3.23 c 0.27,0.05 0.51,0.21 0.66,0.45 0.15,0.23 0.21,0.51 0.15,0.78 l -3.15,15.29 c -0.1,0.49 -0.53,0.83 -1.02,0.83 z m -102.63,-241.05 10.19,30.49 c 0.1,0.29 0.06,0.62 -0.1,0.88 l -97.79,156.53 c -1.52,2.43 -1.74,5.34 -0.61,7.98 1.13,2.64 3.39,4.48 6.2,5.06 l 183.94,37.84 2.73,-13.25 -15.41,-3.14 c -0.36,-0.07 -0.66,-0.34 -0.78,-0.69 l -3.08,-9.22 c -0.11,-0.33 -0.05,-0.69 0.16,-0.96 L 694.7,1274.03 683.96,1265.8 550.2,1440.26 c -0.23,0.3 -0.62,0.45 -1,0.39 -0.38,-0.06 -0.69,-0.33 -0.81,-0.69 l -51.22,-153.24 c -0.1,-0.29 -0.06,-0.6 0.09,-0.86 0.15,-0.26 0.41,-0.44 0.71,-0.49 l 186.75,-32.99 -2.35,-13.32 -189.04,33.39 c -0.51,0.09 -1,-0.2 -1.17,-0.69 l -10.32,-30.89 -12.77,4.47 z m 71.7,218.81 c -0.07,0 -0.14,0 -0.21,-0.02 L 403.4,1436.17 c -1.61,-0.33 -2.96,-1.42 -3.6,-2.93 -0.65,-1.51 -0.52,-3.24 0.35,-4.63 l 0.88,0.55 -0.88,-0.55 83.65,-133.86 c 0.21,-0.34 0.6,-0.53 1,-0.48 0.4,0.05 0.74,0.32 0.86,0.7 l 56.09,167.81 c 0.12,0.35 0.04,0.74 -0.21,1.02 -0.2,0.23 -0.48,0.35 -0.78,0.35 z M 401.91,1429.7 c -0.52,0.83 -0.59,1.82 -0.21,2.71 0.39,0.9 1.15,1.52 2.11,1.72 l 135.4,27.59 -54.82,-164.01 z"
               id="path8532"
               style="stroke-width:0px" />
          </g>
          <path
             class="cls-1"
             d="m 494.87,1230.24 22.12,-3.47 c 3.02,-0.47 5.09,-3.31 4.63,-6.33 -0.89,-5.78 -6.16,-9.84 -11.97,-9.22 l -31.75,3.37 c -8.14,0.86 -16.34,1.2 -24.53,1.01 l -12.78,-0.3 c -7.73,-0.18 -14.1,6.04 -14.1,13.78 0,3.67 2.5,6.86 6.06,7.74 l 35.22,8.71 14.73,-5.16 c 1.98,-5.37 6.72,-9.25 12.38,-10.14 z"
             id="path8536"
             style="stroke-width:0px" />
          <g
             id="g8542">
            <path
               class="cls-2"
               d="m 762.96,1445.74 11.24,-8.19 c 0,0 -37.8,-38.36 -46.99,-93.84 l -39.82,-138.46 -16.48,-0.82 47.16,164.91 c 9.73,36.65 44.89,76.41 44.89,76.41 z"
               id="path8538"
               style="fill:#ffffff;stroke-width:0px" />
            <path
               class="cls-1"
               d="m 762.96,1446.78 c -0.29,0 -0.58,-0.12 -0.78,-0.35 -0.35,-0.4 -35.43,-40.36 -45.12,-76.83 L 669.9,1204.71 c -0.09,-0.32 -0.02,-0.67 0.19,-0.93 0.21,-0.26 0.54,-0.41 0.87,-0.39 l 16.48,0.82 c 0.44,0.02 0.82,0.32 0.95,0.75 l 39.82,138.46 c 0,0 0.02,0.08 0.03,0.12 9.03,54.52 46.32,92.9 46.7,93.28 0.21,0.22 0.32,0.51 0.3,0.81 -0.03,0.3 -0.18,0.58 -0.42,0.75 l -11.24,8.19 c -0.18,0.13 -0.4,0.2 -0.61,0.2 z m -90.66,-241.24 46.76,163.51 c 8.86,33.36 39.32,69.77 44.05,75.29 l 9.51,-6.93 c -5.61,-6.05 -38.04,-42.9 -46.43,-93.47 l -39.6,-137.69 z"
               id="path8540"
               style="stroke-width:0px" />
          </g>
          <g
             id="g8548">
            <circle
               class="cls-2"
               cx="763.71997"
               cy="1437.65"
               r="11.58"
               transform="rotate(-45,763.7224,1437.6458)"
               id="circle8544"
               style="fill:#ffffff;stroke-width:0px" />
            <path
               class="cls-1"
               d="m 763.72,1450.27 c -6.96,0 -12.62,-5.66 -12.62,-12.62 0,-6.96 5.66,-12.62 12.62,-12.62 6.96,0 12.62,5.66 12.62,12.62 0,6.96 -5.66,12.62 -12.62,12.62 z m 0,-23.16 c -5.81,0 -10.54,4.73 -10.54,10.54 0,5.81 4.73,10.54 10.54,10.54 5.81,0 10.54,-4.73 10.54,-10.54 0,-5.81 -4.73,-10.54 -10.54,-10.54 z"
               id="path8546"
               style="stroke-width:0px" />
          </g>
        </g>
        <circle
           class="cls-1"
           cx="550.65002"
           cy="1470.99"
           r="29.969999"
           transform="rotate(-55.24,550.61523,1470.9526)"
           id="circle8552"
           style="stroke-width:0px" />
        <path
           class="cls-1"
           d="m 516.6,1437.48 c 0,0 -0.1,0 -0.15,-0.01 l -101.77,-14.31 c -0.57,-0.08 -0.96,-0.61 -0.88,-1.17 0.08,-0.57 0.59,-0.97 1.17,-0.88 l 101.77,14.31 c 0.57,0.08 0.96,0.61 0.88,1.17 -0.07,0.52 -0.52,0.89 -1.03,0.89 z"
           id="path8554"
           style="stroke-width:0px" />
        <path
           class="cls-1"
           d="m 544.17,1500.9 c -0.09,0 -0.17,-0.01 -0.26,-0.03 l -158.34,-40.91 c -12.46,-3.39 -19.42,-12.9 -18.2,-24.82 1.22,-11.85 11.48,-20.61 23.38,-20.02 0.57,0.03 1.01,0.52 0.98,1.09 -0.03,0.57 -0.54,1.01 -1.09,0.98 -10.8,-0.57 -20.1,7.41 -21.2,18.16 -1.13,11 5.1,19.45 16.66,22.6 l 158.33,40.91 c 0.56,0.14 0.89,0.71 0.75,1.26 -0.12,0.47 -0.54,0.78 -1,0.78 z"
           id="path8556"
           style="stroke-width:0px" />
        <g
           id="g8562">
          <path
             class="cls-2"
             d="m 662.17,1205.73 h 90.86 c 12.21,0 22.91,8.18 26.12,19.96 3.18,11.7 -1.8,24.09 -12.21,30.32 l -32.55,19.5 -7.86,-16.22 29.34,-16.98 c 4.72,-2.73 7,-8.31 5.54,-13.57 -1.44,-5.18 -6.16,-8.77 -11.54,-8.77 h -87.7 v -14.25 z"
             id="path8558"
             style="fill:#ffffff;stroke-width:0px" />
          <path
             class="cls-1"
             d="m 734.4,1276.57 c -0.1,0 -0.2,-0.01 -0.3,-0.04 -0.28,-0.08 -0.51,-0.28 -0.64,-0.54 l -7.86,-16.22 c -0.24,-0.49 -0.06,-1.08 0.41,-1.35 l 29.34,-16.99 c 4.31,-2.5 6.39,-7.59 5.06,-12.39 -1.31,-4.71 -5.64,-8.01 -10.54,-8.01 h -87.7 c -0.57,0 -1.04,-0.46 -1.04,-1.04 v -14.25 c 0,-0.57 0.46,-1.04 1.04,-1.04 h 90.86 c 12.65,0 23.8,8.52 27.12,20.73 3.29,12.1 -1.92,25.04 -12.67,31.49 l -32.55,19.5 c -0.16,0.1 -0.35,0.15 -0.53,0.15 z m -6.51,-16.84 6.95,14.33 31.57,-18.92 c 9.96,-5.97 14.78,-17.96 11.74,-29.16 -3.08,-11.3 -13.4,-19.2 -25.12,-19.2 h -89.82 v 12.18 h 86.67 c 5.82,0 10.98,3.92 12.54,9.53 1.59,5.71 -0.89,11.77 -6.02,14.74 l -28.5,16.5 z"
             id="path8560"
             style="stroke-width:0px" />
        </g>
      </g>
    </g>
  </g>
</svg>
