<?xml version="1.0" encoding="UTF-8" standalone="no"?>
<!-- Generator: Adobe Illustrator 27.8.0, SVG Export Plug-In . SVG Version: 6.00 Build 0)  -->

<svg
   version="1.1"
   x="0px"
   y="0px"
   viewBox="0 0 595.28 231.82"
   style="enable-background:new 0 0 595.28 231.82;"
   xml:space="preserve"
   id="svg92"
   sodipodi:docname="2.svg"
   inkscape:version="1.2.2 (b0a8486541, 2022-12-01)"
   xmlns:inkscape="http://www.inkscape.org/namespaces/inkscape"
   xmlns:sodipodi="http://sodipodi.sourceforge.net/DTD/sodipodi-0.dtd"
   xmlns="http://www.w3.org/2000/svg"
   xmlns:svg="http://www.w3.org/2000/svg"><defs
   id="defs96" /><sodipodi:namedview
   id="namedview94"
   pagecolor="#ffffff"
   bordercolor="#666666"
   borderopacity="1.0"
   inkscape:showpageshadow="2"
   inkscape:pageopacity="0.0"
   inkscape:pagecheckerboard="0"
   inkscape:deskcolor="#d1d1d1"
   showgrid="false"
   inkscape:zoom="0.57745932"
   inkscape:cx="209.53857"
   inkscape:cy="118.62307"
   inkscape:window-width="1920"
   inkscape:window-height="1016"
   inkscape:window-x="0"
   inkscape:window-y="27"
   inkscape:window-maximized="1"
   inkscape:current-layer="Tracciato_logo" />
<style
   type="text/css"
   id="style2">
	.st0{fill:#C1D77F;stroke:#000000;stroke-miterlimit:10;}
	.st1{fill:#C1D77F;}
	.st2{fill:#FFFFFF;}
</style>
<g
   id="Background">
	<rect
   class="st0"
   width="595.28"
   height="231.82"
   id="rect4" />
</g>
<g
   id="Tracciato_logo">
	
	<g
   id="g89">
		<circle
   class="st2"
   cx="237.74"
   cy="98.78"
   r="13.15"
   id="circle49" />
		<g
   id="g87">
			<path
   d="M53.21,54.06h14.16c7.74,0,13.02,3.9,13.02,11.22v0.6c0,4.44-2.16,7.32-5.58,8.88c4.2,1.68,6.9,5.16,6.9,10.32v1.2     c0,8.28-5.28,12.78-13.02,12.78H53.21V54.06z M63.11,62.46v9h3.36c2.76,0,4.32-1.32,4.32-4.5v-0.6c0-2.82-1.56-3.9-4.32-3.9     H63.11z M63.11,79.86v10.8h4.08c2.76,0,4.32-1.56,4.32-5.34v-0.6c0-3.54-1.56-4.86-4.32-4.86H63.11z"
   id="path51" />
			<path
   d="M85.48,59.04c0-3.12,2.46-5.52,5.82-5.52c3.42,0,5.88,2.4,5.88,5.52c0,3.12-2.46,5.58-5.88,5.58     C87.94,64.62,85.48,62.16,85.48,59.04z M86.21,99.06v-30h10.2v30H86.21z"
   id="path53" />
			<path
   d="M112.6,83.4v15.66h-10.2v-45h10.2v27.72l8.1-12.72h11.76l-9.96,13.5l10.5,16.5h-11.52L112.6,83.4z"
   id="path55" />
			<path
   d="M135.58,59.04c0-3.12,2.46-5.52,5.82-5.52c3.42,0,5.88,2.4,5.88,5.52c0,3.12-2.46,5.58-5.88,5.58     C138.04,64.62,135.58,62.16,135.58,59.04z M136.3,99.06v-30h10.2v30H136.3z"
   id="path57" />
			<path
   d="M162.7,99.06h-10.2v-30h9.9v4.26c1.8-3.12,4.98-4.86,8.82-4.86c6.12,0,10.68,3.78,10.68,11.46v19.14h-10.2V82.38     c0-3.9-1.56-5.82-4.5-5.82c-2.88,0-4.5,1.92-4.5,5.82V99.06z"
   id="path59" />
			<path
   d="M202.6,114.66c-8.76,0-14.82-5.16-15.9-13.2h9.66c0.48,3.3,2.7,5.4,5.94,5.4c3.9,0,6-2.7,6-6.9v-4.38     c-2.16,2.58-5.16,4.08-8.7,4.08c-7.98,0-13.5-6.12-13.5-15.6s5.52-15.6,13.5-15.6c3.72,0,6.84,1.62,9,4.44v-3.84h9.9v30.6     C218.5,108.78,211.6,114.66,202.6,114.66z M208.3,84.06c0-4.02-2.58-6.72-6.12-6.72c-3.6,0-6.18,2.7-6.18,6.72     c0,4.02,2.58,6.72,6.18,6.72C205.72,90.78,208.3,88.08,208.3,84.06z"
   id="path61" />
			<path
   d="M224.5,99.06v-45h10.2v45H224.5z"
   id="path63" />
			<path
   d="M250.9,99.06h-10.2v-30h9.9v4.02c1.68-3,4.74-4.62,8.34-4.62c4.14,0,7.5,1.8,9.18,5.46c1.62-3.48,5.04-5.46,9.12-5.46     c5.94,0,10.26,3.72,10.26,11.16v19.44h-10.2V82.08c0-3.72-1.44-5.52-4.02-5.52c-2.64,0-4.08,1.8-4.08,5.52v16.98H259V82.08     c0-3.72-1.44-5.52-4.02-5.52c-2.64,0-4.08,1.8-4.08,5.52V99.06z"
   id="path65" />
			<path
   d="M303.4,95.58v18.48h-10.2v-45h9.9v3.84c2.16-2.82,5.28-4.44,9-4.44c8.04,0,13.5,6.12,13.5,15.6s-5.46,15.6-13.5,15.6     C308.56,99.66,305.56,98.16,303.4,95.58z M315.7,84.06c0-4.02-2.52-6.72-6.12-6.72c-3.6,0-6.18,2.7-6.18,6.72     c0,4.02,2.58,6.72,6.18,6.72C313.18,90.78,315.7,88.08,315.7,84.06z"
   id="path67" />
			<path
   d="M340.3,99.06h-10.2v-30h9.6v5.64c1.8-4.02,5.04-6.24,9.18-6.24c0.54,0,1.14,0,1.5,0.12v9.96     c-0.84-0.3-1.92-0.48-3.12-0.48c-4.44,0-6.96,2.16-6.96,6V99.06z"
   id="path69" />
			<path
   d="M352.78,84.06c0-9.3,6.78-15.6,15.9-15.6c9.12,0,15.9,6.3,15.9,15.6c0,9.3-6.78,15.6-15.9,15.6     C359.56,99.66,352.78,93.36,352.78,84.06z M374.86,84.06c0-4.02-2.58-6.72-6.18-6.72c-3.54,0-6.12,2.7-6.12,6.72     c0,4.02,2.58,6.72,6.12,6.72C372.28,90.78,374.86,88.08,374.86,84.06z"
   id="path71" />
			<path
   d="M408.88,99.06h-15.54l-6.9-30h9.9l4.74,24.54l4.74-24.54h9.9L408.88,99.06z"
   id="path73" />
			<path
   d="M418.36,59.04c0-3.12,2.46-5.52,5.82-5.52c3.42,0,5.88,2.4,5.88,5.52c0,3.12-2.46,5.58-5.88,5.58     C420.82,64.62,418.36,62.16,418.36,59.04z M419.08,99.06v-30h10.2v30H419.08z"
   id="path75" />
			<path
   d="M445.48,99.06h-10.2v-30h9.9v4.26c1.8-3.12,4.98-4.86,8.82-4.86c6.12,0,10.68,3.78,10.68,11.46v19.14h-10.2V82.38     c0-3.9-1.56-5.82-4.5-5.82c-2.88,0-4.5,1.92-4.5,5.82V99.06z"
   id="path77" />
			<path
   d="M485.38,114.66c-8.76,0-14.82-5.16-15.9-13.2h9.66c0.48,3.3,2.7,5.4,5.94,5.4c3.9,0,6-2.7,6-6.9v-4.38     c-2.16,2.58-5.16,4.08-8.7,4.08c-7.98,0-13.5-6.12-13.5-15.6s5.52-15.6,13.5-15.6c3.72,0,6.84,1.62,9,4.44v-3.84h9.9v30.6     C501.28,108.78,494.38,114.66,485.38,114.66z M491.08,84.06c0-4.02-2.58-6.72-6.12-6.72c-3.6,0-6.18,2.7-6.18,6.72     c0,4.02,2.58,6.72,6.18,6.72C488.5,90.78,491.08,88.08,491.08,84.06z"
   id="path79" />
			<path
   d="M470.97,156.7c-2.4,4.32-6.6,6.96-11.58,6.96c-8.16,0-14.34-6.42-14.34-15.6s6.18-15.6,14.34-15.6     c4.98,0,9.18,2.64,11.58,6.96v-21.36h3.6v45h-3.6V156.7z M448.65,148.06c0,7.38,4.8,12.3,11.16,12.3     c6.36,0,11.16-4.92,11.16-12.3c0-7.38-4.8-12.3-11.16-12.3C453.45,135.76,448.65,140.68,448.65,148.06z"
   id="path81" />
			<path
   d="M504.45,156.94c-2.1,4.68-6.6,6.72-11.22,6.72c-5.76,0-10.5-2.64-10.5-8.28c0-13.14,21.66-5.16,21.66-13.68     c0-4.2-3.6-6.3-8.4-6.3c-5.04,0-8.7,2.52-8.7,7.5h-3.66c0-7.56,6-10.44,12.36-10.44c6.24,0,12,2.58,12,9.36v21.24h-3.54V156.94z      M493.83,160.6c5.4,0,10.62-3.42,10.62-9.9v-3.72c-5.22,3.72-18.06,0.54-18.06,8.22C486.39,158.86,489.45,160.6,493.83,160.6z"
   id="path83" />
			<path
   d="M517.53,178.3c-1.62,0-3.18-0.24-4.26-0.6v-3.24c1.08,0.42,2.46,0.66,3.9,0.66c4.68,0,6.54-2.76,8.76-8.46l-12.96-33.6     h3.66l11.04,28.92l10.74-28.92h3.66l-12.84,33.9C526.77,173.62,524.37,178.3,517.53,178.3z"
   id="path85" />
		</g>
	</g>
</g>
</svg>
