<?xml version="1.0" standalone="no"?>
<!DOCTYPE svg PUBLIC "-//W3C//DTD SVG 20010904//EN"
 "http://www.w3.org/TR/2001/REC-SVG-20010904/DTD/svg10.dtd">
<svg version="1.0" xmlns="http://www.w3.org/2000/svg"
 width="1278.000000pt" height="1278.000000pt" viewBox="0 0 1278.000000 1278.000000"
 preserveAspectRatio="xMidYMid meet">
<metadata>
Created by potrace 1.14, written by Peter Selinger 2001-2017
</metadata>
<g transform="translate(0.000000,1278.000000) scale(0.100000,-0.100000)"
fill="#000000" stroke="none">
<path d="M4425 10195 c-312 -76 -473 -375 -347 -645 49 -105 194 -222 317
-256 205 -56 433 3 567 148 168 181 161 437 -17 613 -61 60 -126 99 -220 131
-62 21 -230 26 -300 9z"/>
<path d="M7740 9844 c-89 -33 -120 -48 -120 -55 0 -5 -5 -9 -10 -9 -6 0 -26
-16 -44 -35 -113 -116 -109 -292 8 -407 38 -37 104 -75 151 -87 28 -7 185 -6
213 2 38 10 114 58 149 94 110 113 108 288 -5 400 -68 67 -135 95 -241 99 -47
2 -93 1 -101 -2z"/>
<path d="M3835 9278 c-114 -23 -227 -83 -305 -160 -53 -53 -90 -97 -90 -107 0
-5 -4 -11 -8 -13 -12 -4 -139 -193 -147 -217 -3 -12 -11 -21 -16 -21 -5 0 -9
-4 -9 -8 0 -4 -23 -50 -50 -102 -28 -52 -51 -96 -51 -97 0 -2 -13 -35 -34 -88
-5 -11 -9 -22 -10 -25 -1 -3 -14 -43 -29 -90 -15 -47 -30 -96 -32 -109 -3 -12
-11 -51 -19 -85 -8 -33 -16 -74 -19 -91 -3 -16 -8 -41 -11 -55 -13 -53 -12
-174 0 -221 15 -54 17 -51 -52 -51 -64 0 -84 -27 -83 -114 0 -38 1 -77 2 -86
3 -33 53 -42 262 -43 111 0 207 -4 213 -8 7 -5 21 -10 30 -12 10 -2 38 -8 63
-14 25 -5 77 -13 115 -16 38 -4 79 -12 90 -18 11 -6 22 -12 25 -12 3 0 49 -22
104 -48 54 -26 102 -47 107 -47 4 0 10 -4 13 -9 3 -4 -16 -4 -42 1 -26 5 -59
11 -75 13 -15 1 -33 7 -40 12 -6 5 -35 19 -64 31 -47 20 -57 21 -105 10 -29
-7 -59 -12 -65 -11 -7 0 -22 1 -33 2 -11 0 -25 12 -32 26 -9 20 -68 54 -68 40
0 -3 -11 0 -26 5 -14 6 -38 12 -54 15 -28 5 -29 4 -20 -21 14 -37 15 -37 -42
-28 -29 4 -62 8 -73 10 -11 1 -40 5 -65 9 -25 4 -56 8 -70 10 -109 15 -160 23
-200 30 -23 4 -120 -64 -315 -220 -153 -122 -323 -245 -340 -246 -11 0 -29 -2
-40 -5 -11 -2 -35 -5 -52 -6 -18 -2 -33 -7 -33 -11 0 -5 -4 -6 -9 -3 -26 16
-393 -135 -421 -173 -3 -4 -27 -23 -55 -43 -72 -52 -173 -161 -234 -250 -28
-43 -48 -78 -44 -78 4 0 3 -4 -3 -8 -10 -7 -57 -114 -69 -159 -4 -14 -88 -85
-218 -185 -117 -89 -218 -168 -225 -175 -7 -7 -18 -13 -23 -13 -14 0 -11 -17
4 -17 6 -1 28 -3 47 -6 19 -3 53 -9 75 -12 22 -3 49 -7 60 -10 11 -2 46 -7 78
-10 32 -4 68 -9 80 -11 23 -6 62 -11 88 -13 10 -1 19 -13 23 -33 3 -17 5 -32
4 -34 -2 -1 -25 2 -53 6 -27 4 -77 11 -110 15 -32 3 -62 8 -65 10 -3 2 -30 6
-60 9 -30 4 -66 9 -80 11 -40 7 -82 14 -130 20 -44 6 -48 4 -140 -66 -52 -39
-97 -74 -100 -78 -3 -3 -59 -46 -125 -95 -66 -49 -125 -95 -131 -103 -6 -7
-16 -13 -22 -13 -6 0 -12 -4 -14 -8 -1 -4 -38 -34 -80 -67 -43 -33 -78 -62
-78 -66 0 -3 18 -6 41 -7 22 -1 45 -4 49 -7 5 -3 28 -8 52 -11 84 -10 216 -29
268 -38 14 -3 48 -8 75 -11 28 -4 59 -9 70 -10 11 -2 38 -6 60 -9 22 -3 51 -8
64 -10 34 -8 132 -19 158 -18 12 0 87 50 170 113 161 124 157 120 193 150 13
11 40 29 58 41 34 21 35 21 48 3 25 -33 26 -31 -125 -146 -60 -46 -108 -86
-106 -89 2 -4 55 6 117 22 62 16 127 31 145 33 17 3 44 10 58 15 15 6 31 8 36
4 15 -9 10 -30 -8 -31 -10 -1 -74 -15 -143 -31 -69 -17 -160 -38 -203 -48 -45
-10 -92 -29 -110 -42 l-32 -24 30 6 c66 14 82 17 120 28 22 6 47 13 55 14 27
5 85 17 95 20 6 2 20 5 33 8 13 3 32 8 42 11 10 3 29 8 42 10 13 3 46 10 74
16 34 8 57 8 69 2 14 -8 9 -12 -27 -22 -23 -6 -54 -13 -68 -15 -14 -3 -25 -5
-25 -6 0 -1 -7 -3 -15 -5 -8 -2 -26 -7 -40 -10 -14 -4 -34 -8 -45 -9 -11 -2
-21 -5 -22 -6 -2 -1 -6 -3 -10 -4 -9 -2 -70 -14 -98 -20 -11 -2 -40 -9 -65
-16 -47 -13 -69 -18 -110 -26 -50 -10 -105 -26 -110 -33 -3 -3 -29 -24 -58
-46 -28 -21 -52 -40 -52 -40 0 -1 6 -2 13 -2 12 0 76 -10 132 -19 17 -3 43 -7
58 -9 16 -2 40 -6 55 -9 15 -3 47 -8 72 -11 25 -2 56 -7 70 -10 14 -3 43 -8
65 -11 22 -3 49 -7 60 -9 11 -2 40 -7 65 -10 25 -3 68 -10 95 -15 28 -5 73
-12 100 -15 28 -3 67 -10 88 -15 41 -9 31 -14 159 87 61 48 66 56 58 77 l-9
24 45 -15 c24 -8 44 -18 44 -22 0 -4 -16 -21 -36 -37 -20 -16 -54 -44 -77 -62
-22 -18 -49 -40 -61 -47 -26 -19 -19 -25 35 -30 24 -2 55 -6 69 -9 14 -2 59
-10 100 -16 41 -6 89 -14 105 -17 17 -3 41 -6 55 -8 14 -1 58 -8 99 -15 69
-11 73 -14 55 -27 -18 -13 -68 -13 -144 2 -12 2 -56 9 -98 16 -42 6 -86 12
-97 14 -34 5 -89 14 -115 20 -14 3 -50 8 -80 11 -51 5 -58 3 -95 -26 -22 -17
-51 -40 -65 -51 -195 -151 -241 -186 -274 -214 l-39 -32 59 -7 c32 -4 68 -9
79 -11 11 -2 56 -9 100 -15 44 -7 91 -14 105 -16 14 -3 43 -7 65 -10 22 -2 50
-7 62 -9 12 -3 46 -8 75 -11 29 -3 72 -10 95 -15 24 -5 46 -9 50 -8 5 1 10 0
13 -1 3 -1 16 -3 30 -4 22 -3 82 -12 131 -21 15 -3 200 128 207 147 2 4 8 8
14 8 5 0 15 6 22 13 20 19 72 59 241 187 47 35 85 70 85 78 0 8 -7 29 -15 48
-53 121 -77 179 -69 171 4 -3 19 0 35 9 16 8 29 12 29 9 0 -3 10 0 23 7 12 6
27 13 32 14 8 1 105 45 137 62 7 3 18 -19 66 -130 6 -16 10 -15 39 10 17 15
82 65 143 112 114 87 249 190 308 237 17 14 32 28 32 32 0 4 -15 8 -32 9 -18
1 -49 5 -68 7 -19 3 -55 8 -80 11 -25 4 -46 8 -48 9 -2 2 4 15 14 30 16 25 21
26 74 21 32 -3 64 -8 71 -10 8 -3 37 -7 64 -10 28 -4 59 -8 70 -10 11 -2 29 4
40 14 11 10 94 75 185 144 91 69 172 132 180 139 109 87 143 108 189 117 58
11 116 33 125 49 4 6 12 11 18 11 10 0 -13 -20 -92 -80 -61 -46 -235 -181
-253 -196 -10 -8 -34 -27 -55 -42 -86 -62 -212 -164 -212 -171 0 -4 17 -8 39
-9 21 -2 49 -5 62 -7 13 -3 42 -7 64 -10 22 -3 49 -7 60 -9 11 -2 45 -7 75
-11 30 -4 64 -9 75 -11 21 -4 74 -12 135 -19 19 -2 46 -6 60 -9 14 -2 47 -7
73 -11 27 -4 59 -9 70 -11 30 -6 108 -15 130 -15 15 0 83 49 370 271 32 25 84
65 115 88 31 24 69 55 85 68 l27 24 10 -26 c6 -15 13 -30 15 -35 3 -4 -29 -34
-71 -66 -42 -32 -81 -63 -88 -68 -6 -6 -49 -40 -96 -75 -47 -35 -87 -66 -90
-69 -3 -3 -40 -32 -82 -65 -43 -32 -76 -61 -73 -66 2 -4 17 -6 32 -6 15 1 37
-2 49 -5 11 -4 45 -10 75 -14 54 -6 87 -11 124 -19 11 -2 49 -7 85 -11 36 -4
67 -8 70 -10 3 -2 32 -6 64 -9 32 -4 62 -8 65 -10 3 -2 33 -6 66 -10 33 -3
100 -13 149 -21 58 -9 95 -11 107 -5 16 9 70 -10 89 -30 3 -3 35 -19 72 -35
65 -29 88 -48 49 -40 -34 6 -85 14 -141 20 -54 6 -57 5 -111 -37 -31 -24 -68
-52 -83 -63 -15 -11 -37 -28 -49 -38 -12 -10 -35 -29 -52 -42 -16 -13 -83 -66
-148 -117 -65 -51 -129 -100 -141 -108 -31 -20 -86 -68 -86 -73 0 -3 24 -8 53
-12 28 -4 61 -9 72 -12 11 -2 34 -6 50 -7 17 -2 46 -6 65 -9 19 -4 51 -9 70
-12 19 -2 46 -7 60 -9 14 -3 48 -8 75 -11 83 -12 89 -13 130 -19 62 -10 84
-14 166 -26 l76 -12 50 38 c147 114 178 139 181 146 2 4 10 8 17 8 7 0 15 4
17 8 2 5 83 71 181 147 97 76 177 142 177 146 0 5 -13 9 -30 9 -16 0 -30 4
-30 8 0 5 13 7 29 6 16 -1 51 2 77 7 27 5 65 12 84 15 19 3 39 8 44 11 4 3 12
0 16 -7 5 -7 19 -14 32 -16 12 -1 75 -10 138 -19 63 -9 131 -18 150 -21 19 -2
46 -6 60 -9 14 -2 48 -7 75 -11 28 -3 61 -7 75 -10 14 -2 41 -7 60 -9 140 -21
170 -25 205 -30 23 -3 51 -7 63 -10 20 -3 113 61 192 132 14 13 28 23 32 23 3
0 13 6 20 13 7 7 104 84 216 171 112 87 201 160 199 162 -4 4 -25 7 -134 19
-18 2 -40 6 -50 9 -10 3 -38 8 -63 11 -64 7 -119 15 -149 20 -14 2 -73 11
-131 19 -138 20 -169 24 -205 30 -16 3 -51 8 -77 11 -27 3 -48 8 -48 9 0 2 18
42 40 89 30 64 51 94 83 119 23 18 47 37 54 43 26 22 43 35 212 165 192 149
189 141 67 155 -28 3 -62 7 -76 9 -40 7 -91 14 -145 21 -114 14 -125 19 -125
64 0 19 4 22 23 18 12 -4 40 -9 62 -12 64 -9 90 -13 90 -15 0 -1 16 -3 35 -4
39 -4 121 -14 160 -21 14 -3 47 -7 74 -11 28 -3 53 -7 58 -10 4 -3 17 0 29 6
22 12 23 13 116 89 34 28 66 51 72 51 5 0 11 4 13 8 2 4 50 45 108 90 58 46
112 88 120 95 8 7 46 36 84 66 l69 54 34 -18 c18 -10 32 -19 31 -21 -9 -7
-202 -159 -362 -283 -102 -79 -186 -147 -186 -150 0 -4 15 -8 33 -9 18 -1 44
-5 57 -7 14 -3 45 -8 70 -11 25 -3 52 -7 60 -9 8 -2 42 -7 75 -10 33 -3 67 -8
75 -10 8 -2 35 -7 60 -10 25 -3 56 -8 70 -10 14 -3 47 -7 74 -11 27 -3 70 -9
95 -13 25 -5 53 -9 61 -9 8 0 24 -2 35 -5 11 -3 43 -8 70 -11 l50 -7 155 121
c85 67 171 134 190 148 19 15 37 29 40 32 3 4 51 41 108 85 56 43 102 80 102
82 0 18 -37 53 -55 53 -37 0 -85 12 -85 21 0 5 6 9 14 9 7 0 19 6 25 14 7 8
22 11 38 8 19 -3 24 -1 18 7 -4 8 15 32 53 66 33 30 81 86 107 125 l49 70 13
-37 c8 -21 18 -50 22 -64 5 -14 16 -39 25 -57 l16 -31 143 111 c78 61 144 115
145 119 2 5 10 9 17 9 7 0 15 4 17 8 2 4 42 38 91 76 48 37 87 70 87 72 0 3
-4 3 -9 -1 -5 -3 -12 -1 -16 5 -4 6 -10 8 -16 5 -5 -3 -35 -1 -66 4 -32 6 -76
13 -98 16 -107 15 -245 35 -265 40 -8 2 -23 4 -32 4 -12 1 -18 9 -18 26 0 25
2 26 43 20 23 -3 58 -8 77 -11 20 -2 47 -7 60 -9 14 -3 45 -7 70 -10 25 -2 56
-7 70 -9 14 -3 43 -8 65 -11 23 -3 50 -7 60 -9 11 -2 47 -7 80 -10 59 -7 60
-6 110 35 28 23 75 60 105 82 30 22 57 43 60 47 3 3 30 25 60 48 30 23 65 50
76 60 12 9 34 26 50 37 43 31 91 77 74 71 -8 -3 -55 -15 -105 -26 -49 -12
-153 -37 -230 -55 -130 -32 -219 -52 -255 -60 -8 -1 -35 -9 -60 -16 -25 -6
-52 -13 -60 -14 -34 -5 -323 -73 -344 -81 -11 -4 -17 2 -21 23 -4 15 -11 41
-17 56 -8 20 -8 31 1 40 6 6 11 8 11 5 0 -3 21 0 47 8 25 8 49 12 51 9 3 -3
10 -1 17 5 6 5 27 12 46 14 19 3 99 21 178 41 79 19 158 38 174 41 17 2 34 7
37 9 4 3 25 7 46 11 20 3 48 10 61 15 13 5 36 11 51 14 15 2 105 23 200 45 95
22 175 40 177 40 3 0 5 4 5 9 0 4 -10 8 -22 8 -18 -1 -109 11 -138 18 -3 1
-32 5 -65 9 -32 4 -68 10 -80 12 -11 3 -42 7 -70 10 -27 3 -57 7 -65 8 -8 2
-40 6 -70 10 -30 4 -66 9 -80 11 -14 2 -43 6 -65 10 -23 3 -51 7 -64 10 -21 4
-63 -24 -211 -142 -209 -166 -230 -180 -230 -152 0 26 -113 149 -185 200 -57
41 -173 99 -198 99 -9 0 -18 4 -21 9 -3 4 -22 11 -43 14 -21 3 -50 8 -65 12
-66 13 -292 6 -319 -11 -7 -4 -17 18 -25 51 -1 6 -38 102 -82 215 -43 113
-103 270 -132 349 -57 153 -55 150 -139 176 -28 9 -28 10 17 -111 l30 -81
-131 -37 c-138 -39 -154 -43 -187 -50 -11 -3 -24 -7 -28 -10 -5 -3 -19 -7 -33
-10 -13 -3 -59 -15 -103 -27 -66 -18 -75 -24 -60 -33 11 -6 21 -11 24 -12 3 0
21 -8 40 -16 19 -9 37 -15 41 -13 3 2 16 6 30 9 13 3 56 14 94 26 39 11 77 22
85 24 8 2 35 9 60 16 25 7 52 14 60 15 8 2 38 11 65 19 68 22 73 21 89 -17 30
-73 31 -69 -46 -144 -77 -74 -82 -79 -308 -293 -79 -74 -149 -141 -156 -147
-12 -13 -77 -173 -71 -179 1 -2 25 17 52 43 70 63 318 298 494 466 51 49 94
87 96 85 5 -6 125 -328 125 -337 0 -4 -19 -16 -42 -25 -92 -35 -222 -138 -296
-235 -46 -61 -94 -175 -108 -261 -3 -14 -7 -31 -9 -38 -3 -7 0 -10 5 -7 6 4 7
-2 2 -17 -5 -13 -7 -32 -6 -43 5 -61 16 -125 28 -165 l14 -46 -162 -39 c-88
-21 -164 -40 -168 -41 -5 -1 -16 -2 -25 -3 -9 0 -14 -3 -11 -6 4 -4 34 -9 128
-20 19 -2 46 -6 60 -9 14 -2 45 -7 70 -11 25 -3 54 -8 65 -9 11 -2 45 -7 77
-11 44 -5 62 -14 85 -37 l28 -30 -50 6 c-27 4 -77 11 -110 16 -33 5 -76 12
-95 14 -19 3 -52 7 -72 10 -43 7 -81 12 -153 22 -27 3 -59 8 -70 10 -93 18
-172 14 -198 -9 -7 -7 -59 -47 -115 -90 -57 -43 -111 -85 -120 -92 -9 -8 -46
-37 -82 -65 l-64 -51 -18 23 c-19 24 -24 48 -10 48 5 0 17 8 28 18 10 10 48
40 84 67 36 27 72 55 80 62 8 7 24 19 35 28 19 14 18 15 -15 10 -19 -3 -53
-11 -75 -17 -22 -6 -47 -13 -55 -14 -8 -2 -53 -12 -98 -23 l-84 -20 -49 49
c-27 27 -46 51 -42 53 5 2 81 22 171 43 155 37 194 53 135 55 -16 1 -37 3 -48
5 -11 1 -36 5 -55 8 -83 12 -170 28 -170 31 0 1 7 22 16 46 18 50 26 85 33
150 1 3 54 5 119 4 64 -1 120 0 124 2 4 2 -3 21 -14 43 l-21 39 -99 -1 c-55 0
-102 2 -105 5 -3 3 -7 23 -10 44 -19 148 -127 321 -261 419 -12 9 -7 20 34 75
27 35 51 66 54 69 3 3 23 29 45 58 26 34 50 55 70 61 27 7 31 5 44 -23 8 -17
15 -33 16 -36 4 -12 50 -127 71 -175 7 -16 42 -105 79 -198 37 -92 71 -169 75
-172 4 -3 11 6 14 20 3 13 11 37 17 52 15 36 18 63 7 63 -4 0 -8 6 -8 14 0 8
-14 45 -31 83 -17 37 -30 68 -29 68 1 0 -3 11 -8 25 -13 33 -76 189 -87 215
-5 11 -9 22 -10 25 -1 3 -7 18 -13 33 -13 30 -9 47 11 47 7 0 46 11 87 24 l75
23 -40 18 c-22 10 -42 19 -45 19 -3 1 -9 4 -15 7 -10 7 -14 6 -80 -10 -40 -10
-54 -3 -55 27 0 6 -8 12 -17 12 -10 1 -35 7 -55 14 l-38 14 6 -27 c4 -14 11
-30 15 -36 18 -19 9 -45 -18 -50 -16 -4 -35 -10 -43 -14 -13 -7 -66 -69 -118
-139 -9 -12 -32 -39 -49 -60 -18 -20 -33 -43 -33 -49 0 -17 -23 -16 -68 3 -56
24 -120 45 -150 49 -115 18 -150 21 -204 19 -35 -2 -79 -6 -98 -10 -19 -4 -42
-8 -50 -9 -38 -5 -86 -18 -97 -27 -7 -6 -13 -7 -13 -3 0 10 -144 -69 -193
-107 -43 -33 -46 -41 -26 -83 5 -11 13 -33 19 -48 l10 -28 27 28 c49 50 155
116 217 135 100 31 146 37 256 33 112 -4 183 -20 254 -57 l26 -13 -23 -27
c-12 -14 -69 -88 -127 -164 -58 -76 -124 -162 -147 -191 -49 -60 -54 -54 62
-73 96 -16 107 -18 175 -37 49 -14 100 -18 213 -18 166 1 158 5 133 -79 -16
-53 -14 -57 49 -96 41 -25 43 -29 13 -25 -65 8 -126 17 -148 21 -14 2 -49 6
-79 10 -30 3 -86 18 -125 34 -86 34 -218 67 -306 77 -59 6 -101 7 -285 4 -33
-1 -76 1 -95 5 -19 3 -43 6 -52 6 -22 -1 -31 12 -58 88 -12 36 -27 76 -33 90
-6 14 -11 27 -12 30 -1 3 -7 18 -13 33 -7 16 -12 30 -12 33 0 4 -32 89 -97
254 -14 36 -26 70 -28 75 -1 6 -5 17 -8 25 -17 40 -148 387 -152 400 -2 8 -12
36 -23 61 -18 41 -25 47 -58 54 -21 4 -51 13 -66 21 -62 32 -62 22 3 -147 27
-72 47 -135 42 -139 -4 -4 -69 -24 -143 -45 -270 -75 -495 -137 -510 -140 -8
-2 -28 -8 -45 -15 -16 -6 -31 -11 -33 -11 -4 2 -56 -10 -72 -16 -8 -4 -18 -7
-22 -7 -24 -3 -7 -17 65 -51 l82 -38 80 22 c44 12 87 23 95 25 8 2 65 18 125
36 61 17 117 33 125 34 8 2 33 9 55 15 22 6 42 11 45 11 3 0 28 8 55 16 28 9
64 19 80 23 17 5 40 11 51 15 18 5 24 1 35 -26 8 -18 14 -35 15 -38 0 -3 6
-18 12 -33 26 -62 25 -75 -5 -102 -15 -15 -86 -82 -158 -150 -309 -293 -287
-275 -320 -269 -16 2 -46 7 -65 9 -19 3 -53 8 -75 11 -22 3 -50 7 -63 8 -33 5
-35 10 -21 53 31 92 28 144 -15 216 -32 56 -64 85 -131 115 -11 6 -54 26 -95
45 -41 19 -120 55 -175 80 -55 25 -136 62 -180 83 -44 21 -82 38 -85 39 -3 1
-30 13 -60 27 -30 14 -88 40 -127 58 -68 31 -72 35 -66 59 3 14 9 31 13 36 4
6 10 23 14 39 12 49 155 350 235 493 22 40 37 74 33 76 -4 3 -32 12 -62 22
-30 10 -59 21 -65 26 -5 5 -19 9 -30 9 -12 0 -25 3 -29 8 -4 4 -11 7 -14 7 -4
0 -41 13 -83 28 -101 37 -161 101 -170 182 -12 98 75 206 176 221 17 2 39 6
50 8 11 2 24 1 30 -2 5 -3 20 -7 34 -8 13 -2 88 -26 166 -53 79 -28 145 -51
148 -51 3 0 2 13 -3 29 -4 16 -6 31 -4 34 2 2 -3 20 -11 40 -8 20 -16 40 -16
44 -1 5 -22 29 -48 54 -60 60 -144 91 -256 94 -44 1 -98 -2 -120 -7z m5240
-1661 c133 -34 285 -144 352 -256 20 -34 22 -45 12 -57 -10 -12 -9 -13 3 -9
21 8 41 -38 55 -129 6 -36 5 -39 -15 -34 -27 7 -27 1 -3 -62 26 -67 12 -127
-53 -234 -29 -49 -97 -126 -110 -126 -6 0 -26 42 -32 67 -1 7 -9 27 -18 44 -9
18 -16 39 -16 49 0 9 -4 20 -8 26 -5 5 -24 48 -42 97 -30 76 -51 104 -62 80
-1 -5 -30 -28 -63 -53 -33 -25 -62 -47 -65 -50 -3 -3 -25 -21 -50 -40 -25 -19
-46 -38 -48 -42 -2 -5 -9 -8 -16 -8 -6 0 -18 -9 -26 -20 -8 -11 -20 -20 -26
-20 -7 0 -14 -3 -16 -8 -1 -4 -23 -23 -48 -42 -25 -19 -50 -39 -56 -45 -6 -5
-27 -21 -47 -35 -39 -26 -53 -46 -34 -47 17 -1 107 -14 137 -19 41 -8 82 -14
135 -18 28 -3 50 -5 50 -6 0 -4 116 -22 138 -22 29 1 19 -6 -33 -21 -51 -15
-98 -14 -205 4 -33 5 -78 12 -100 14 -22 2 -53 7 -70 10 -16 3 -45 8 -63 11
-35 5 -122 53 -122 67 0 5 4 6 8 3 5 -3 56 32 114 77 58 45 120 93 138 107 18
14 41 32 50 40 35 29 56 45 123 95 36 28 67 53 67 56 0 4 -31 -1 -69 -11 -38
-10 -82 -21 -97 -23 -16 -3 -76 -17 -134 -31 -244 -59 -363 -86 -375 -86 -15
0 -24 20 -42 100 -10 42 -10 118 1 180 8 42 43 139 55 150 4 3 12 17 20 31 34
67 163 174 254 212 35 15 36 15 43 -6 7 -26 46 -129 94 -252 5 -11 18 -47 30
-80 12 -33 26 -69 30 -80 40 -97 44 -103 66 -108 23 -4 54 18 54 39 0 5 -43
125 -97 266 -53 142 -94 260 -91 263 3 3 37 9 74 12 38 3 70 6 71 8 3 2 149
-21 178 -28z m-2293 -144 c86 -81 148 -191 163 -291 6 -39 4 -42 -17 -43 -29
0 -469 0 -486 0 -7 1 8 27 33 59 58 72 64 79 100 127 16 22 33 45 37 50 5 6
22 28 38 50 44 58 74 95 78 95 1 0 26 -21 54 -47z m-1161 -158 c4 -11 29 -75
54 -143 51 -135 52 -128 -16 -177 -53 -39 -184 -140 -189 -145 -3 -3 -43 -35
-90 -70 -47 -35 -91 -69 -98 -75 -7 -5 -18 -14 -25 -20 -7 -5 -53 -41 -104
-80 -51 -38 -91 -71 -89 -72 2 -2 16 -5 32 -7 16 -2 50 -7 75 -11 l47 -7 -17
-29 c-15 -27 -19 -29 -65 -23 -28 3 -70 9 -95 14 -38 7 -51 5 -79 -12 -18 -11
-38 -25 -45 -32 -6 -7 -39 -32 -72 -56 -33 -25 -62 -47 -65 -50 -3 -4 -23 -19
-45 -36 -22 -16 -45 -33 -51 -39 -31 -27 -55 -45 -59 -45 -9 0 -65 -53 -61
-57 4 -4 101 17 176 37 19 6 108 27 197 49 l163 38 -6 -31 c-9 -54 -25 -106
-32 -107 -13 -1 -37 -7 -77 -17 -22 -6 -51 -13 -65 -16 -14 -2 -72 -16 -130
-30 -58 -15 -114 -28 -125 -30 -11 -3 -51 -12 -90 -21 -38 -9 -78 -19 -89 -21
-42 -8 -19 -15 99 -30 17 -2 46 -6 65 -9 19 -3 49 -7 65 -10 17 -2 46 -6 66
-10 20 -3 51 -7 70 -9 19 -2 48 -6 64 -9 40 -7 127 -19 143 -20 6 0 12 -3 13
-6 0 -3 2 -19 4 -35 4 -27 2 -28 -28 -22 -18 3 -54 8 -82 11 -27 3 -61 8 -75
10 -14 3 -42 7 -62 10 -21 3 -55 7 -75 10 -21 3 -49 7 -63 10 -14 3 -43 7 -65
11 -22 3 -56 7 -75 10 -19 3 -54 7 -78 10 -23 2 -63 9 -89 13 -26 5 -51 7 -55
5 -5 -3 -8 0 -8 6 0 8 -6 8 -20 0 -28 -15 -25 2 5 30 13 12 34 46 46 74 23 54
17 49 411 348 84 64 123 97 116 99 -23 5 -97 17 -148 24 -8 1 -43 5 -78 10
l-63 8 26 27 c27 28 56 32 131 16 12 -2 45 -7 75 -11 30 -4 72 -10 94 -14 39
-7 43 -5 205 117 91 69 170 130 175 136 6 6 28 23 51 39 22 15 49 35 60 45 10
9 61 48 112 86 50 39 92 73 92 78 0 4 -8 8 -17 9 -10 0 -27 2 -38 4 -31 6
-106 17 -150 21 -21 2 -51 7 -65 9 -14 3 -47 8 -75 11 -27 3 -52 7 -54 10 -3
3 44 51 103 107 60 56 141 132 180 169 l70 68 24 -63 c13 -34 28 -71 33 -82z
m-1961 -56 c-37 -30 -52 -41 -92 -71 l-36 -27 -12 30 c-7 16 -10 32 -7 36 6 5
154 52 167 52 3 0 -6 -9 -20 -20z m-262 -125 c-4 -3 0 -17 8 -32 12 -24 11
-28 -16 -51 -16 -15 -57 -46 -91 -71 -34 -25 -67 -49 -73 -55 -6 -5 -29 -23
-51 -40 -22 -16 -49 -37 -59 -47 -11 -10 -23 -18 -28 -18 -4 0 -8 -4 -8 -9 0
-7 52 -18 120 -26 8 -1 31 -5 50 -8 19 -4 52 -9 72 -12 37 -4 72 -9 133 -20
17 -3 45 -7 63 -9 40 -5 38 -3 57 -49 l15 -36 -38 -10 c-20 -6 -42 -11 -48
-11 -5 0 -19 -8 -30 -17 -38 -35 -174 -133 -183 -133 -10 0 -35 39 -29 45 2 2
30 24 63 49 33 25 73 56 89 68 30 24 57 37 90 44 29 5 32 14 5 15 -30 2 -52 5
-109 14 -25 4 -55 9 -67 10 -21 3 -83 13 -123 20 -8 1 -40 6 -70 11 -30 4 -58
9 -62 10 -5 1 -20 2 -35 3 -49 2 -58 14 -37 47 17 27 74 86 106 109 96 72 174
131 178 136 10 11 103 79 108 79 3 0 3 -3 0 -6z m-1134 -351 c9 -27 18 -52 20
-58 2 -5 8 -23 15 -40 6 -16 21 -55 32 -85 12 -30 25 -64 29 -75 5 -11 16 -42
26 -70 20 -58 32 -74 42 -60 6 10 132 107 186 145 19 13 18 11 -4 -17 -14 -17
-35 -44 -46 -60 -12 -15 -41 -52 -65 -82 -24 -29 -51 -63 -59 -75 -18 -27
-133 -179 -140 -186 -3 -3 -18 -23 -34 -44 l-29 -39 -17 42 c-9 23 -20 43 -24
43 -8 1 -127 -85 -151 -108 -7 -8 -16 -14 -20 -14 -4 0 -12 -6 -19 -13 -7 -7
-66 -53 -130 -102 -99 -75 -234 -179 -296 -228 -49 -38 -89 -67 -94 -67 -3 0
-12 13 -21 29 -15 29 -14 30 14 47 37 22 33 30 -19 38 -31 5 -43 12 -50 32
-10 26 -5 48 9 40 3 -3 29 -7 56 -10 28 -3 64 -9 80 -12 30 -5 33 -4 125 69 9
7 52 39 95 72 44 33 82 62 85 65 3 3 23 19 45 35 22 16 47 35 55 42 88 70 185
143 191 143 14 0 21 41 10 54 -6 7 -8 15 -5 19 7 7 -24 17 -68 22 -35 4 -90
11 -148 21 -19 3 -51 8 -70 10 -19 2 -44 6 -55 8 -11 3 -43 8 -71 11 -28 3
-61 8 -75 10 -22 5 -85 14 -134 21 -11 1 -22 3 -25 4 -3 1 -12 2 -22 1 -9 -1
-19 2 -22 7 -7 12 33 64 43 57 8 -4 39 -9 131 -20 19 -2 49 -7 65 -10 17 -4
44 -8 60 -10 17 -2 48 -6 70 -10 22 -4 56 -9 75 -11 19 -3 46 -6 60 -8 14 -2
50 -7 80 -11 30 -4 58 -9 63 -12 4 -2 7 0 7 4 0 9 -4 20 -99 272 -34 90 -61
165 -59 167 6 5 118 34 158 40 19 3 36 7 37 7 1 1 21 3 46 5 l45 2 16 -47z
m4211 7 c29 0 43 -19 24 -31 -21 -13 -54 -37 -159 -119 -53 -41 -107 -83 -120
-92 l-25 -17 25 4 c14 2 25 4 25 5 0 1 11 3 25 5 14 2 52 10 85 19 33 8 74 18
92 21 18 3 43 9 57 15 15 5 26 7 26 5 0 -3 15 1 34 9 19 8 36 13 38 11 2 -2
37 4 78 15 82 21 85 20 154 -39 l45 -39 -27 -7 c-15 -4 -34 -8 -43 -10 -9 -2
-63 -15 -120 -29 -57 -13 -144 -34 -194 -46 -49 -11 -117 -28 -150 -36 -33 -9
-71 -17 -85 -19 -14 -2 -48 -10 -76 -18 -29 -8 -56 -12 -60 -8 -5 3 -16 26
-25 51 -10 25 -20 52 -24 61 -4 12 12 31 62 70 37 30 75 59 84 64 9 6 34 24
55 42 99 81 169 131 172 123 2 -6 14 -10 27 -10z m-2501 -92 c-16 -53 -35 -88
-44 -83 -5 3 -24 8 -42 9 -18 2 -55 7 -83 12 -27 4 -53 8 -57 9 -10 0 -15 8
-21 36 -6 22 -3 25 16 23 12 -1 22 -3 22 -4 0 -1 14 -3 30 -4 17 -2 51 -6 76
-10 38 -5 51 -3 70 14 31 25 42 25 33 -2z m-2194 -11 c0 -1 -25 -20 -56 -42
-31 -22 -66 -50 -77 -62 -11 -13 -25 -23 -31 -23 -14 0 57 63 112 100 44 29
52 33 52 27z m2813 -93 c3 -3 1 -18 -4 -33 -8 -22 -15 -27 -33 -24 -22 4 -23
7 -13 34 10 26 35 38 50 23z m917 -129 c37 -4 86 -11 148 -22 65 -11 171 -8
220 6 1 1 3 0 5 -1 1 -1 12 4 23 10 27 15 38 3 65 -70 23 -64 23 -61 0 -53
-13 4 -72 -35 -217 -146 -110 -84 -211 -162 -225 -173 -14 -12 -38 -30 -53
-41 -16 -11 -33 -24 -40 -30 -6 -5 -32 -26 -58 -45 -49 -36 -57 -47 -35 -47
11 0 145 -18 212 -29 17 -3 46 -7 65 -10 19 -2 64 -8 100 -14 36 -5 85 -12
110 -15 25 -3 52 -8 61 -11 9 -2 38 -6 63 -9 26 -2 59 -6 74 -9 142 -28 173
-28 212 2 19 14 37 30 38 34 2 4 8 8 13 8 6 0 24 13 42 30 18 16 35 30 38 30
3 0 17 10 30 21 13 12 40 33 59 48 19 14 40 31 46 36 7 6 26 21 44 35 18 14
51 40 74 57 22 18 52 41 66 52 107 83 130 102 130 107 0 3 -4 3 -8 0 -4 -3
-26 -1 -48 4 -21 5 -61 11 -89 14 -27 4 -61 9 -75 12 -14 3 -47 7 -75 9 -27 2
-50 5 -50 6 0 1 -9 3 -20 4 -11 1 -51 7 -90 13 -38 6 -88 14 -110 16 -102 14
-104 15 -123 58 -9 23 -9 26 6 24 42 -8 120 -19 147 -21 17 -2 56 -8 88 -14
32 -6 61 -10 65 -10 4 1 9 0 12 -1 3 -1 16 -3 30 -5 14 -1 61 -8 105 -14 44
-7 100 -14 125 -17 25 -3 52 -8 60 -11 8 -2 40 -7 70 -10 55 -4 57 -3 119 46
59 47 65 50 77 34 23 -30 16 -57 -18 -78 l-33 -19 44 -8 c51 -9 57 -13 66 -49
7 -28 7 -28 -70 -16 -106 17 -110 17 -136 -6 -13 -12 -54 -44 -89 -72 -36 -27
-72 -55 -80 -62 -25 -20 -302 -236 -357 -278 -28 -22 -52 -43 -52 -46 -1 -4
23 -10 52 -14 28 -4 59 -8 67 -10 8 -1 41 -6 74 -9 32 -4 68 -9 80 -11 11 -2
37 -6 56 -9 19 -3 51 -8 70 -11 19 -2 53 -7 75 -10 22 -3 51 -8 65 -10 37 -6
122 -17 143 -18 21 -1 21 -1 2 -37 -9 -18 -21 -28 -32 -26 -10 2 -36 6 -58 10
-22 3 -58 8 -80 12 -22 4 -55 7 -72 8 -18 0 -33 3 -33 6 0 3 -12 6 -27 6 -43
2 -135 15 -203 29 -14 3 -45 7 -70 10 -25 3 -56 7 -70 10 -112 20 -117 19
-183 -32 -34 -26 -67 -52 -73 -58 -6 -5 -26 -21 -44 -35 -18 -14 -68 -52 -109
-85 -42 -33 -105 -82 -140 -109 l-63 -49 -35 17 -35 17 58 45 c33 24 73 55 89
69 98 78 239 187 274 213 23 17 38 33 34 35 -8 5 -86 18 -128 22 -11 1 -36 5
-55 8 -19 4 -51 9 -70 11 -127 16 -150 20 -206 31 -14 3 -48 7 -77 10 -29 2
-52 4 -52 5 0 2 -26 7 -75 14 -46 6 -91 12 -146 21 -17 3 -31 11 -32 18 0 6
-3 28 -7 47 -3 19 -2 40 2 45 4 6 55 47 113 90 58 44 107 82 110 85 3 3 50 39
105 80 54 41 106 82 115 90 8 8 27 23 40 32 l25 17 -25 -5 c-42 -7 -60 -11
-210 -48 -80 -19 -157 -37 -170 -40 -14 -3 -41 -9 -61 -14 l-37 -9 10 36 c6
20 16 48 24 62 7 15 11 29 8 32 -5 4 24 12 159 43 4 1 9 3 12 4 7 3 14 5 65
15 43 8 44 8 17 16 -15 4 -56 11 -89 14 -34 4 -70 10 -80 14 -18 7 -18 8 2 34
15 19 28 26 43 22 12 -3 38 -7 57 -10z m-2380 -101 c0 -13 -23 -33 -120 -104
-41 -30 -79 -60 -83 -67 -4 -7 -13 -13 -18 -13 -6 0 -16 -6 -23 -12 -7 -7 -25
-22 -41 -33 -15 -11 -41 -31 -58 -45 -21 -17 -44 -25 -80 -26 -42 -2 -48 0
-36 10 12 12 184 145 275 213 16 12 58 44 94 71 57 43 66 47 77 33 7 -9 13
-21 13 -27z m-600 -290 c0 -10 -88 -14 -92 -4 -2 3 10 22 26 43 l30 39 17 -34
c10 -18 18 -38 19 -44z m1253 23 c4 -29 1 -40 -13 -47 -13 -7 -21 -5 -30 5 -8
10 -21 13 -39 9 l-26 -6 29 23 c50 41 71 57 72 56 1 -1 4 -19 7 -40z m76 -149
c13 -11 46 -33 73 -48 l50 -27 -39 -9 c-21 -4 -42 -9 -48 -9 -5 -1 -22 -5 -36
-9 -14 -4 -34 -9 -45 -11 -10 -2 -19 -4 -19 -5 0 -1 -7 -3 -15 -5 -31 -7 -66
-14 -90 -19 -14 -3 -54 -13 -90 -21 -74 -18 -113 -26 -120 -27 -3 0 -15 -4
-28 -9 -22 -9 -72 -19 -72 -16 0 1 7 26 14 55 17 61 16 58 16 76 0 8 10 18 23
21 12 4 36 17 52 30 36 26 125 34 125 11 0 -11 7 -12 38 -4 31 8 80 14 150 17
7 1 11 5 8 10 -5 8 7 18 25 20 3 1 16 -9 28 -21z m-1169 -26 c36 -6 88 -14
115 -17 28 -4 64 -8 80 -11 17 -2 50 -6 75 -8 25 -3 54 -7 65 -9 11 -3 47 -8
80 -13 33 -4 63 -8 68 -10 4 -1 13 -2 21 -3 19 -1 13 -36 -25 -130 -54 -136
-158 -268 -282 -359 -77 -57 -215 -128 -284 -146 -13 -3 -32 -9 -43 -12 -26
-7 -18 16 24 71 35 46 36 47 96 99 54 47 201 179 246 221 18 17 53 48 78 69
45 38 58 59 34 55 -12 -2 -64 4 -143 17 -16 3 -37 5 -45 6 -8 0 -49 5 -90 10
-41 6 -91 12 -110 13 -19 2 -37 4 -40 5 -3 1 -8 2 -12 1 -4 0 -27 3 -51 8 -47
8 -55 4 -152 -77 -11 -9 -40 -33 -65 -52 -25 -19 -47 -37 -50 -40 -3 -3 -36
-30 -75 -60 -95 -75 -94 -74 -144 -115 -59 -48 -61 -49 -182 -79 -115 -28
-145 -31 -153 -17 -5 8 32 22 69 27 6 0 17 4 25 7 8 3 40 11 70 17 60 13 89
29 135 72 17 15 38 31 48 34 9 3 17 9 17 13 0 4 24 25 53 46 28 22 58 46 65
53 8 7 30 25 50 40 21 15 39 29 42 32 3 3 28 23 55 45 28 22 52 43 53 47 2 5
11 8 20 9 14 0 13 2 -3 9 -11 5 -23 9 -27 9 -6 1 -196 -144 -208 -158 -3 -3
-23 -19 -45 -36 -22 -16 -42 -32 -45 -35 -3 -3 -25 -21 -50 -40 -25 -19 -53
-41 -62 -49 -9 -9 -25 -22 -34 -30 -19 -16 -224 -71 -266 -71 -73 0 -5 31 117
54 64 13 94 30 214 125 74 58 142 113 151 121 9 8 45 37 81 65 79 61 80 62 63
94 -27 53 -42 90 -38 94 9 9 352 0 414 -11z m-934 -806 c17 -13 16 -14 -21
-11 -49 4 -47 3 -40 15 9 14 38 12 61 -4z"/>
<path d="M7305 9228 c-108 -36 -169 -91 -269 -243 -83 -126 -101 -160 -161
-310 -4 -11 -9 -26 -11 -34 -1 -8 -9 -35 -18 -60 -8 -25 -17 -62 -20 -81 -3
-19 -10 -51 -15 -71 -4 -20 -7 -74 -6 -119 l3 -82 -26 5 c-29 5 -78 -35 -66
-55 4 -6 7 -26 6 -44 -2 -51 14 -56 161 -59 124 -3 163 -7 212 -22 11 -3 42
-7 69 -9 26 -1 53 -7 59 -13 6 -6 19 -11 29 -11 10 0 18 -4 18 -10 0 -5 6 -10
14 -10 13 0 262 -112 272 -123 3 -3 -2 -19 -11 -36 -8 -17 -13 -31 -11 -31 3
0 -3 -20 -14 -45 -11 -25 -17 -45 -13 -45 3 0 1 -6 -5 -12 -5 -7 -22 -49 -37
-93 -16 -44 -33 -91 -38 -105 -6 -14 -11 -29 -12 -35 -2 -8 -63 -174 -82 -225
-30 -77 -14 -142 47 -193 77 -66 199 -60 271 13 28 28 72 124 61 134 -3 4 -1
6 5 6 5 0 10 6 10 13 1 6 33 100 73 207 188 506 191 517 180 564 -4 20 -14 44
-21 54 -19 26 -57 62 -65 62 -3 0 -43 18 -89 40 -46 22 -88 40 -94 40 -6 0
-11 5 -11 12 0 6 -3 8 -6 5 -4 -4 -19 0 -33 8 -27 15 -173 82 -254 117 -51 22
-53 30 -28 93 7 17 17 44 24 60 6 17 42 90 79 163 38 73 68 136 68 141 0 7
-64 34 -110 45 -54 14 -130 50 -148 70 -45 52 -45 125 0 173 53 57 118 61 243
17 53 -19 101 -36 106 -40 14 -8 11 40 -6 79 -17 42 -75 92 -119 102 -65 16
-151 13 -211 -7z"/>
<path d="M7348 9087 c-16 -6 -36 -27 -47 -50 -37 -74 2 -130 114 -166 33 -11
146 -49 250 -86 105 -37 208 -72 230 -80 32 -10 257 -88 522 -181 98 -34 163
-25 197 29 46 71 -9 154 -119 180 -18 4 -206 69 -245 84 -8 3 -21 7 -27 9 -7
1 -43 14 -80 27 -38 14 -142 51 -233 82 -91 31 -228 79 -305 107 -148 52 -212
64 -257 45z"/>
<path d="M3835 9043 c-16 -9 -39 -23 -49 -32 -31 -26 -56 -93 -51 -134 5 -42
43 -107 63 -107 6 0 12 -4 12 -8 0 -5 15 -13 33 -19 64 -21 493 -171 522 -183
17 -6 37 -13 45 -15 8 -2 87 -29 175 -60 88 -31 165 -58 170 -59 6 -2 19 -6
30 -10 43 -17 50 -19 60 -22 17 -4 279 -94 295 -101 8 -3 18 -7 23 -8 4 -2 8
-3 10 -4 1 -2 12 -4 25 -7 13 -2 35 -10 50 -17 15 -8 48 -20 75 -27 26 -7 47
-17 47 -23 0 -6 3 -8 6 -4 3 3 43 -8 88 -24 137 -51 235 -39 293 37 72 95 19
219 -109 259 -24 7 -77 26 -118 40 -118 43 -439 154 -505 176 -33 11 -69 23
-80 28 -20 8 -200 70 -220 75 -5 2 -17 6 -25 9 -66 28 -485 169 -496 167 -4
-1 -10 2 -13 7 -3 4 -58 25 -121 46 -124 40 -184 45 -235 20z"/>
<path d="M8600 8730 c-10 -6 -11 -10 -3 -10 19 0 65 -75 67 -109 1 -17 -1 -31
-4 -31 -4 0 -7 -7 -7 -15 0 -39 72 10 85 58 13 47 -11 87 -63 107 -33 12 -56
12 -75 0z"/>
<path d="M5753 8503 c-30 -6 -29 -14 6 -38 61 -40 97 -159 67 -217 -17 -31
-11 -41 15 -27 11 5 19 7 19 4 0 -17 79 58 90 85 45 110 -66 218 -197 193z"/>
<path d="M10952 7527 c-81 -21 -88 -26 -269 -167 -102 -80 -202 -158 -222
-175 -21 -16 -50 -39 -65 -50 -15 -11 -42 -32 -59 -47 l-32 -28 25 -2 c40 -3
52 -4 100 -12 59 -10 89 -15 133 -21 20 -3 54 -7 75 -11 44 -6 70 -10 137 -19
28 -3 73 -10 100 -15 28 -5 68 -12 90 -15 22 -3 58 -8 80 -11 22 -3 49 -7 60
-8 21 -3 60 17 86 43 8 9 28 25 43 36 15 11 36 27 45 35 10 8 33 26 52 40 18
14 50 40 70 58 20 17 39 32 43 32 4 0 17 11 30 25 13 14 28 25 34 25 6 0 12 3
14 8 2 4 56 49 121 101 65 51 116 95 114 98 -2 2 -22 6 -43 8 -22 3 -50 7 -64
10 -14 3 -45 7 -70 10 -25 3 -69 10 -99 15 -29 5 -57 7 -62 4 -5 -3 -9 -2 -9
3 0 4 -10 8 -22 9 -31 1 -138 14 -163 20 -23 5 -81 12 -145 18 -27 3 -78 -4
-128 -17z"/>
<path d="M11680 7198 c-151 -121 -293 -235 -315 -253 -38 -33 -39 -34 -15 -35
14 -1 34 -3 45 -5 11 -3 54 -9 95 -15 41 -6 86 -12 100 -15 14 -2 42 -6 63 -9
20 -3 52 -8 70 -11 17 -3 48 -7 67 -9 19 -3 52 -7 73 -10 20 -3 52 -8 70 -11
17 -2 41 -6 52 -9 11 -2 50 -7 86 -11 l65 -7 65 51 c89 71 246 194 454 355 22
17 46 37 54 44 7 7 24 20 37 29 13 8 24 19 24 23 0 5 -138 28 -215 35 -20 2
-121 17 -140 22 -11 2 -38 6 -60 8 -46 5 -94 12 -145 20 -19 3 -51 8 -70 10
-19 2 -51 7 -70 10 -118 19 -87 35 -390 -207z"/>
<path d="M12689 7147 c-63 -51 -188 -149 -292 -229 -12 -9 -61 -47 -109 -85
-47 -37 -101 -79 -119 -93 -18 -14 -60 -47 -93 -73 -81 -63 -90 -70 -241 -188
-71 -56 -145 -113 -164 -128 -19 -14 -39 -31 -45 -36 -6 -6 -54 -43 -107 -83
-52 -39 -105 -81 -117 -92 -11 -11 -25 -20 -31 -20 -5 0 -11 -3 -13 -8 -1 -4
-46 -41 -98 -82 -52 -41 -100 -79 -106 -85 -7 -5 -24 -19 -40 -30 -42 -31
-177 -137 -192 -152 -7 -7 -19 -13 -25 -13 -24 0 9 -19 43 -25 19 -3 42 -8 50
-10 8 -2 31 -6 50 -9 19 -3 46 -8 60 -11 14 -3 52 -10 85 -16 33 -6 71 -13 85
-16 14 -3 34 -7 45 -8 11 -2 20 -4 20 -5 0 -1 9 -3 20 -5 50 -7 101 -17 115
-20 8 -2 29 -7 45 -9 17 -3 53 -10 80 -16 96 -20 131 -20 151 -2 10 9 64 55
119 102 55 47 102 87 105 90 3 3 46 39 95 79 50 41 100 84 111 95 12 12 41 37
64 55 23 19 48 40 54 46 6 6 51 44 101 85 49 41 96 82 105 90 16 15 34 30 189
160 l90 75 0 368 c1 202 -2 367 -6 366 -5 0 -42 -28 -84 -62z"/>
<path d="M10173 6962 c-39 -31 -86 -68 -104 -82 -18 -14 -49 -38 -70 -55 -20
-16 -102 -81 -182 -143 -143 -112 -145 -113 -134 -142 11 -29 16 -31 122 -46
11 -1 38 -5 60 -9 22 -3 54 -8 70 -9 39 -5 106 -15 125 -21 8 -2 42 -7 75 -10
33 -4 80 -10 105 -15 25 -4 52 -8 60 -8 8 0 44 -5 79 -11 64 -10 84 -6 113 21
7 7 31 26 53 43 22 16 46 35 53 42 7 7 41 34 75 60 64 49 83 65 120 97 12 10
38 30 57 45 19 14 37 28 40 31 3 3 37 30 75 60 39 30 72 57 75 61 3 3 13 10
24 16 18 10 -36 22 -169 38 -22 3 -65 9 -95 15 -30 5 -80 12 -110 15 -30 3
-62 8 -70 10 -8 3 -35 7 -59 10 -23 3 -55 7 -70 9 -26 5 -158 23 -216 31 -24
3 -43 -7 -102 -53z"/>
<path d="M11140 6769 c-134 -108 -147 -119 -285 -228 -49 -40 -97 -77 -105
-84 -8 -7 -34 -27 -58 -46 -24 -18 -41 -35 -39 -38 6 -5 33 -10 98 -18 30 -3
68 -9 84 -12 17 -3 39 -7 50 -8 26 -4 101 -14 145 -21 19 -2 49 -6 65 -8 17
-3 46 -7 65 -11 19 -4 49 -8 65 -10 80 -8 142 -17 157 -21 42 -12 57 -11 74 4
11 9 37 30 59 47 22 16 45 34 52 40 6 5 24 20 40 31 15 12 66 52 113 88 114
90 136 107 173 137 18 14 61 48 97 75 61 46 81 68 63 70 -14 1 -117 16 -138
20 -11 2 -38 6 -60 9 -22 3 -51 7 -65 10 -14 2 -43 7 -65 10 -22 2 -56 7 -75
10 -19 3 -51 8 -70 11 -19 2 -44 6 -55 8 -11 2 -44 7 -74 11 -30 3 -63 9 -75
11 -104 21 -101 22 -236 -87z"/>
<path d="M9720 6453 c0 -8 64 -180 81 -218 4 -11 29 -74 54 -140 25 -65 48
-121 50 -123 2 -2 112 82 245 188 132 106 240 194 238 195 -3 3 -53 12 -118
20 -14 2 -38 6 -55 9 -16 2 -55 8 -85 11 -30 4 -64 9 -75 12 -11 2 -36 6 -55
8 -19 2 -64 8 -100 14 -36 5 -87 13 -115 17 -27 3 -53 8 -57 11 -5 2 -8 1 -8
-4z"/>
<path d="M9354 6322 c-39 -31 -86 -68 -104 -82 -19 -14 -60 -46 -91 -72 -32
-27 -63 -48 -69 -48 -5 0 -10 -4 -10 -8 0 -5 -21 -24 -47 -43 -27 -18 -57 -41
-67 -51 -11 -10 -23 -18 -27 -18 -4 0 -9 -6 -12 -14 -4 -9 0 -15 11 -14 9 0
78 -9 152 -21 74 -12 149 -23 165 -25 60 -8 131 -18 155 -23 14 -2 36 -6 50
-8 14 -1 48 -6 75 -10 88 -12 90 -12 87 10 -2 11 -12 39 -23 62 -10 23 -19 47
-19 53 0 5 -4 18 -9 28 -10 17 -36 83 -92 232 -18 47 -37 90 -43 97 -8 9 -28
-2 -82 -45z"/>
<path d="M10553 6302 c-63 -54 -116 -97 -132 -106 -9 -5 -22 -16 -29 -23 -8
-7 -30 -26 -50 -41 -21 -15 -39 -29 -42 -32 -3 -3 -39 -32 -80 -65 -41 -32
-77 -62 -80 -65 -3 -3 -21 -17 -40 -30 -19 -13 -42 -32 -51 -42 -9 -10 -19
-18 -23 -18 -11 0 -60 -49 -55 -54 3 -3 30 -8 60 -12 29 -3 72 -9 94 -14 22
-4 47 -8 55 -8 14 1 64 -7 115 -16 11 -2 43 -7 70 -10 28 -4 64 -10 80 -13 17
-2 46 -7 65 -9 19 -2 44 -6 55 -7 18 -3 143 -19 170 -22 9 -1 120 80 153 112
7 7 16 13 20 13 4 0 23 15 43 33 20 17 47 39 59 47 12 8 28 20 34 25 6 6 82
66 168 133 86 67 159 126 162 130 3 4 -5 8 -17 9 -33 2 -109 12 -137 19 -14 3
-32 6 -40 6 -8 0 -35 4 -60 8 -25 5 -70 11 -100 15 -30 3 -62 8 -70 10 -8 2
-33 6 -55 9 -74 10 -121 16 -144 21 -13 2 -49 7 -80 11 -31 3 -63 8 -72 9 -8
2 -29 -9 -46 -23z"/>
<path d="M7798 6022 c-71 -53 -94 -71 -113 -89 -8 -7 -16 -13 -20 -13 -4 0
-12 -6 -19 -12 -23 -23 -59 -51 -154 -123 -50 -38 -92 -73 -92 -77 0 -5 -4 -8
-10 -8 -9 0 -32 -16 -64 -45 -6 -6 -28 -23 -48 -39 -21 -16 -36 -31 -34 -35 3
-4 20 -8 38 -9 19 -1 45 -5 58 -8 14 -2 43 -7 65 -10 22 -2 51 -6 65 -8 14 -2
48 -7 75 -11 28 -3 61 -8 75 -11 14 -2 45 -7 70 -9 25 -3 56 -8 70 -10 14 -3
45 -7 70 -11 25 -3 54 -8 65 -11 11 -4 36 -7 55 -8 19 -1 35 -3 35 -4 0 -2 16
-4 35 -6 19 -2 50 -7 68 -10 24 -4 40 0 65 17 17 12 34 25 37 28 3 3 59 48
125 99 129 99 162 125 197 155 13 10 55 42 93 71 39 29 86 67 105 84 30 26 32
30 15 31 -25 2 -47 5 -110 14 -27 4 -66 9 -85 12 -19 2 -51 7 -70 11 -19 4
-44 7 -55 8 -11 1 -38 5 -60 8 -22 4 -60 9 -85 12 -25 3 -58 8 -73 11 -15 3
-44 7 -65 9 -20 2 -46 6 -57 8 -11 3 -45 8 -75 12 -81 10 -112 15 -121 20 -4
3 -36 -16 -71 -43z"/>
<path d="M8803 5893 c-17 -16 -44 -38 -60 -50 -15 -12 -46 -35 -68 -52 -22
-17 -47 -37 -56 -46 -9 -8 -21 -15 -27 -15 -5 0 -12 -4 -14 -9 -1 -5 -70 -61
-153 -126 -82 -64 -160 -124 -173 -135 -28 -21 -22 -26 38 -34 25 -3 54 -8 65
-10 11 -2 43 -7 70 -10 28 -4 79 -11 115 -17 36 -5 82 -12 104 -14 21 -3 64
-9 95 -14 31 -5 81 -13 111 -16 101 -13 115 -15 140 -21 77 -21 95 -14 205 78
11 9 56 45 100 79 108 85 104 82 126 102 10 9 23 17 28 17 5 0 11 4 13 8 2 4
49 45 105 90 93 75 118 108 80 109 -14 0 -93 11 -124 17 -12 3 -48 7 -80 11
-32 3 -65 8 -73 10 -8 2 -37 6 -65 10 -27 3 -61 7 -75 10 -14 2 -41 6 -60 9
-19 3 -51 7 -70 10 -19 3 -53 8 -75 11 -181 28 -187 28 -222 -2z"/>
<path d="M9990 5749 c0 -4 24 -70 53 -146 30 -76 71 -182 91 -235 40 -103 45
-107 88 -65 7 7 54 44 103 82 50 37 104 80 121 94 17 14 42 35 57 46 121 93
166 130 162 133 -2 2 -21 6 -42 8 -34 3 -130 16 -218 29 -190 29 -223 34 -270
38 -17 2 -36 7 -43 11 -7 4 -12 5 -12 3 0 -2 -20 -1 -45 3 -25 4 -45 3 -45 -1z"/>
<path d="M10635 5540 c-71 -56 -139 -109 -150 -118 -11 -10 -49 -40 -85 -67
-36 -28 -67 -52 -70 -55 -3 -3 -25 -20 -49 -38 -25 -18 -42 -32 -38 -32 10 0
350 81 367 87 8 3 22 7 30 8 8 2 56 13 105 25 50 12 97 23 105 25 8 2 53 13
100 25 47 12 92 23 100 25 8 2 42 10 75 18 33 9 71 18 85 21 14 3 72 17 130
31 58 15 113 28 124 30 32 7 30 13 -5 19 -62 10 -104 16 -139 21 -19 2 -53 7
-75 10 -22 3 -56 8 -75 10 -19 3 -46 7 -60 10 -14 2 -47 7 -75 11 -27 3 -59 8
-70 10 -57 9 -85 13 -140 19 l-60 6 -130 -101z"/>
<path d="M9674 5603 c-17 -16 -113 -93 -213 -172 -100 -79 -179 -146 -177
-149 3 -2 22 -6 43 -8 74 -8 114 -13 218 -31 79 -13 91 -15 105 -15 8 0 38 -3
65 -8 28 -5 71 -12 97 -15 26 -3 55 -8 64 -12 20 -8 21 -9 -63 212 -83 219
-86 225 -98 225 -6 0 -24 -12 -41 -27z"/>
<path d="M11760 5455 c-7 -8 -19 -15 -26 -15 -8 0 -14 -4 -14 -8 0 -5 -18 -21
-41 -38 -22 -16 -46 -34 -52 -39 -7 -6 -97 -78 -202 -159 -104 -82 -208 -164
-230 -181 -22 -18 -71 -56 -110 -85 -38 -30 -72 -56 -75 -60 -3 -3 -45 -37
-95 -75 -49 -38 -92 -72 -95 -75 -3 -3 -34 -27 -70 -55 -36 -27 -70 -54 -76
-60 -7 -5 -24 -19 -40 -30 -15 -11 -35 -27 -44 -35 -8 -8 -27 -22 -40 -31 -14
-9 -38 -28 -55 -42 -16 -14 -59 -48 -95 -76 -36 -28 -69 -54 -75 -58 -5 -5
-30 -24 -55 -43 -25 -18 -52 -40 -60 -47 -14 -12 -42 -34 -123 -96 -16 -12
-34 -27 -40 -32 -7 -6 -32 -26 -57 -45 -25 -19 -47 -37 -50 -40 -3 -3 -23 -18
-45 -35 -22 -16 -45 -34 -51 -40 -6 -5 -26 -21 -44 -35 -18 -14 -43 -33 -54
-42 -104 -87 -108 -89 -166 -82 -30 3 -62 7 -71 9 -24 5 -91 17 -109 20 -8 1
-37 5 -65 10 -27 4 -59 9 -70 11 -51 10 -98 18 -225 39 -52 8 -106 17 -120 20
-14 3 -39 7 -55 9 -17 3 -42 7 -55 10 -24 5 -69 12 -134 21 -28 4 -54 -11
-136 -81 -14 -12 -54 -45 -90 -73 -36 -29 -72 -57 -80 -64 -8 -7 -49 -39 -90
-72 -41 -33 -80 -64 -86 -70 -12 -10 -50 -41 -119 -94 -22 -17 -50 -40 -63
-51 -24 -20 -39 -20 -152 0 -30 5 -73 12 -95 15 -77 11 -100 14 -135 20 -46 7
-110 16 -135 20 -11 2 -85 13 -165 25 -80 12 -164 24 -188 26 -24 2 -46 6 -50
8 -4 2 -35 8 -67 11 -33 4 -69 9 -80 11 -11 3 -35 7 -52 9 -18 3 -50 8 -70 11
-21 3 -51 7 -68 9 -16 2 -58 8 -93 14 -34 7 -66 9 -71 6 -6 -3 -12 -1 -16 4
-3 5 -13 9 -23 9 -14 -1 -131 16 -192 27 -8 1 -40 6 -70 10 -30 4 -66 10 -80
12 -14 2 -36 5 -50 7 -14 2 -38 6 -55 9 -16 4 -50 8 -75 11 -25 3 -56 8 -70
11 -14 3 -43 7 -65 10 -42 4 -64 7 -215 31 -52 9 -111 17 -130 20 -19 2 -46 6
-60 9 -103 19 -178 24 -206 14 -11 -4 -36 -10 -55 -13 -19 -3 -44 -8 -56 -11
-13 -3 -32 -7 -44 -10 -11 -2 -29 -7 -40 -10 -10 -4 -31 -8 -47 -10 -15 -2
-27 -4 -27 -5 0 -1 -10 -3 -22 -6 -12 -2 -64 -13 -115 -25 -51 -11 -100 -22
-108 -24 -8 -2 -35 -8 -60 -14 -25 -5 -56 -12 -70 -14 -24 -5 -166 -36 -260
-58 -64 -15 -65 -16 -170 -38 -52 -12 -102 -23 -111 -25 -22 -6 -198 -44 -229
-50 -14 -2 -56 -12 -95 -21 -38 -9 -81 -19 -95 -22 -14 -2 -45 -9 -70 -14 -25
-6 -54 -13 -65 -15 -11 -2 -44 -10 -73 -18 -30 -7 -70 -12 -90 -10 -53 4 -122
13 -155 20 -15 3 -44 7 -65 9 -20 2 -48 6 -62 9 -14 3 -59 10 -100 15 -41 6
-86 13 -100 15 -22 4 -77 12 -147 21 -13 2 -42 6 -65 10 -48 8 -62 10 -131 20
-27 4 -57 8 -66 10 -10 2 -42 6 -72 10 -30 3 -62 8 -71 11 -10 3 -37 7 -60 10
-24 2 -54 6 -68 8 -27 5 -99 16 -140 21 -71 10 -107 15 -130 20 -23 5 -41 7
-145 20 -22 3 -51 7 -65 10 -14 3 -45 8 -70 11 -25 3 -56 7 -70 10 -14 3 -38
7 -55 9 -27 3 -123 17 -210 31 -16 2 -47 7 -69 10 -21 3 -59 9 -84 14 -25 4
-54 7 -64 5 -10 -2 -18 -1 -18 3 0 4 -10 7 -22 8 -35 2 -131 14 -148 19 -8 2
-37 7 -65 10 -27 3 -61 7 -75 10 -32 7 -75 14 -120 19 -58 8 -114 16 -137 21
-12 3 -24 1 -28 -5 -9 -14 -6 -793 3 -801 4 -4 27 -10 52 -14 25 -3 56 -8 70
-10 37 -7 82 -14 126 -20 21 -3 53 -8 69 -11 17 -2 46 -6 65 -9 19 -3 46 -7
60 -10 14 -3 44 -7 67 -10 75 -9 121 -16 189 -30 14 -3 45 -8 68 -10 22 -2 52
-6 66 -9 14 -3 41 -8 60 -10 41 -6 111 -16 330 -51 14 -2 45 -6 70 -9 25 -3
72 -11 105 -17 33 -6 76 -12 95 -15 19 -3 59 -10 87 -15 29 -6 57 -8 63 -4 5
3 10 2 10 -2 0 -5 15 -9 33 -10 41 -3 111 -11 115 -14 4 -3 16 -5 72 -13 65
-9 96 -14 130 -21 14 -3 45 -7 70 -10 44 -5 74 -10 135 -20 17 -3 46 -8 65
-10 19 -3 50 -8 68 -11 17 -3 49 -7 69 -10 20 -2 50 -7 67 -10 17 -4 45 -8 61
-9 17 -2 30 -4 30 -5 0 -1 9 -3 20 -4 31 -4 117 -17 150 -22 153 -27 157 -26
325 15 69 18 139 34 155 37 17 3 48 10 70 16 22 5 51 12 65 14 14 3 33 7 42
10 9 3 25 6 35 8 10 2 59 14 108 26 50 12 101 24 115 26 14 3 54 12 90 20 36
9 72 17 80 19 8 1 33 8 55 13 22 6 51 13 65 16 30 6 241 54 400 91 63 14 122
28 130 30 8 2 47 11 85 20 39 9 84 19 100 21 17 3 37 7 45 11 49 18 130 28
175 21 28 -5 59 -9 70 -9 11 -1 47 -5 80 -10 33 -4 80 -10 105 -13 153 -18
207 -25 255 -31 17 -3 53 -7 80 -10 28 -3 68 -8 90 -11 22 -2 56 -7 75 -9 19
-2 58 -7 85 -10 28 -4 64 -9 80 -10 17 -2 53 -6 80 -9 77 -9 138 -17 165 -21
14 -2 50 -7 80 -10 30 -3 69 -7 85 -9 63 -9 132 -17 170 -21 22 -2 55 -6 72
-10 32 -5 90 -12 168 -20 22 -2 56 -6 75 -9 19 -4 60 -8 90 -11 30 -3 71 -7
90 -10 19 -2 55 -7 80 -10 44 -5 78 -10 150 -19 19 -2 60 -7 90 -11 30 -3 73
-8 95 -11 22 -3 60 -8 84 -10 24 -2 46 -5 48 -8 2 -2 34 7 71 21 37 13 180 64
317 113 138 49 257 94 266 99 17 10 154 7 569 -15 99 -5 263 -12 363 -15 59
-2 72 5 137 71 8 8 45 39 83 69 37 30 67 58 67 63 0 4 5 8 10 8 6 0 18 8 28
18 10 9 43 37 72 62 96 80 284 240 315 268 17 15 71 61 120 102 50 41 101 85
115 97 14 12 95 81 180 153 85 72 164 139 175 149 11 9 65 55 120 101 55 46
118 100 141 120 72 63 120 104 174 150 29 25 83 70 119 101 36 31 77 64 89 75
50 41 138 116 247 210 l70 61 0 352 c1 193 0 351 -1 351 -1 0 -7 -7 -14 -15z"/>
<path d="M11490 5405 c-30 -7 -56 -14 -57 -14 -6 -2 -8 -3 -23 -6 -8 -2 -35
-8 -60 -14 -47 -12 -72 -18 -105 -25 -11 -3 -123 -30 -250 -61 -126 -31 -237
-58 -245 -60 -8 -1 -35 -8 -60 -15 -25 -7 -58 -15 -75 -17 -16 -3 -38 -9 -47
-14 -10 -5 -18 -8 -18 -5 0 3 -15 0 -32 -5 -18 -6 -42 -12 -53 -14 -11 -3 -33
-8 -50 -12 -16 -4 -33 -6 -37 -5 -5 1 -8 -3 -8 -8 0 -6 10 -10 23 -11 33 -1
105 -11 167 -24 14 -3 47 -7 73 -10 27 -2 63 -7 80 -10 18 -3 48 -7 67 -10 19
-2 46 -6 60 -9 14 -2 50 -7 81 -11 31 -3 69 -9 85 -14 31 -9 51 -4 75 17 8 7
39 31 69 54 30 24 57 45 60 48 3 3 32 25 65 50 33 25 65 50 71 55 6 6 23 19
38 30 16 11 33 25 40 30 6 6 37 30 69 54 47 36 68 55 55 50 -2 0 -28 -7 -58
-14z"/>
<path d="M3571 5382 c-11 -4 -270 -199 -401 -302 -14 -11 -61 -47 -105 -81
-44 -34 -84 -66 -89 -70 -17 -15 6 -27 59 -34 28 -3 75 -10 105 -15 30 -5 69
-12 85 -14 17 -2 53 -7 80 -10 28 -4 73 -11 100 -16 28 -5 68 -12 90 -15 23
-3 50 -7 60 -9 18 -3 102 -15 150 -22 11 -1 20 -3 20 -4 0 -1 20 -3 45 -5 34
-2 51 2 71 19 14 11 36 28 49 36 12 8 28 20 34 26 6 6 75 59 151 118 77 59
147 112 155 119 8 7 44 35 80 62 36 27 74 57 84 67 11 10 24 18 30 18 16 0 -5
15 -22 16 -10 0 -37 4 -62 8 -62 10 -88 14 -139 21 -23 3 -55 7 -70 9 -14 3
-46 7 -71 11 -25 3 -56 8 -70 10 -14 2 -43 7 -65 10 -22 3 -51 8 -65 10 -14 2
-45 6 -70 9 -25 3 -56 8 -70 10 -14 3 -47 7 -74 11 -27 3 -52 7 -55 9 -3 2
-12 1 -20 -2z"/>
<path d="M8135 5370 c-10 -10 -100 -81 -165 -130 -18 -14 -49 -38 -69 -53 -82
-65 -102 -81 -238 -187 -147 -114 -160 -126 -140 -127 33 -2 141 -14 146 -18
3 -1 31 -6 61 -9 30 -3 66 -8 80 -10 40 -7 102 -17 140 -22 46 -6 220 -32 289
-43 51 -8 102 -7 147 3 27 6 64 28 64 38 0 5 4 8 10 8 9 0 34 19 74 55 6 6 31
26 56 45 25 19 50 38 55 43 6 4 24 19 40 33 17 14 64 51 105 82 41 31 80 62
85 68 6 6 38 32 73 59 34 26 61 50 59 51 -2 2 -23 6 -48 9 -24 3 -55 7 -69 10
-14 2 -45 7 -70 10 -25 3 -63 8 -85 12 -43 7 -47 8 -114 17 -23 3 -55 8 -70
10 -14 3 -51 8 -81 11 -30 4 -57 8 -60 10 -3 2 -34 6 -70 10 -36 4 -67 8 -70
10 -16 9 -126 13 -135 5z"/>
<path d="M4513 5232 c-15 -8 -30 -18 -33 -21 -3 -4 -23 -20 -45 -36 -22 -17
-42 -32 -45 -35 -3 -3 -34 -27 -70 -55 -36 -27 -72 -55 -80 -62 -63 -50 -308
-236 -320 -243 -22 -12 -10 -19 46 -25 27 -3 60 -8 74 -11 14 -3 43 -8 65 -10
46 -6 78 -11 85 -14 3 -1 8 -2 12 -1 4 0 31 -4 60 -9 29 -5 71 -12 93 -15 22
-3 67 -10 100 -15 84 -12 129 -19 173 -25 20 -3 48 -8 62 -10 90 -17 100 -16
133 6 17 13 34 26 37 29 3 3 25 21 50 40 25 19 48 39 52 45 5 6 8 6 8 0 0 -5
7 1 16 13 8 12 19 22 25 22 5 0 17 8 27 18 11 9 43 35 72 57 91 69 165 130
168 138 2 4 8 7 13 7 6 0 22 12 37 26 15 14 39 32 55 40 47 25 33 34 -76 49
-38 5 -121 17 -137 20 -8 1 -44 6 -80 10 -36 4 -74 9 -85 11 -11 3 -36 7 -55
9 -19 3 -44 7 -55 10 -11 2 -42 7 -70 10 -27 3 -103 14 -167 23 -103 16 -120
16 -145 4z"/>
<path d="M0 4867 l0 -375 87 -17 c49 -9 99 -18 113 -21 14 -2 36 -7 50 -10 14
-3 36 -8 50 -10 14 -2 36 -7 50 -10 14 -3 36 -8 50 -10 14 -3 61 -12 105 -21
44 -9 87 -17 95 -18 8 -1 29 -5 45 -8 44 -10 75 -17 115 -23 19 -3 52 -10 73
-15 20 -5 43 -7 50 -2 12 7 208 164 217 173 3 3 25 21 50 40 25 19 47 37 50
40 3 3 28 24 55 45 28 22 52 42 55 45 3 3 39 32 80 65 41 32 81 65 88 72 7 7
18 13 23 13 6 0 8 4 5 9 -6 9 -39 17 -111 26 -22 3 -51 7 -65 10 -13 2 -42 7
-65 10 -22 3 -67 11 -100 16 -33 6 -73 13 -90 15 -29 4 -65 9 -115 18 -14 3
-43 7 -65 11 -22 3 -65 10 -95 15 -81 13 -120 19 -170 26 -25 3 -46 7 -48 9
-2 2 41 34 95 71 l98 69 -50 8 c-28 4 -66 10 -85 12 -19 2 -51 7 -70 10 -19 3
-53 8 -75 10 -22 3 -65 9 -95 15 -30 5 -77 12 -105 15 -95 12 -120 16 -145 20
-14 3 -45 7 -70 11 -25 3 -53 8 -62 10 -17 5 -18 -17 -18 -369z"/>
<path d="M9155 5189 c-27 -22 -65 -52 -84 -67 -18 -15 -38 -31 -45 -37 -6 -5
-27 -22 -46 -36 -19 -15 -45 -35 -57 -45 -12 -11 -33 -28 -48 -38 -14 -11 -36
-28 -48 -39 -12 -11 -32 -26 -45 -35 -12 -8 -21 -17 -18 -19 4 -4 38 4 386 88
113 27 214 52 225 54 11 2 20 4 20 5 0 1 7 3 15 5 8 2 62 15 120 29 58 15 116
29 130 32 14 3 43 10 65 16 68 18 79 20 98 20 39 -1 8 21 -33 24 -25 2 -56 5
-70 8 -14 3 -49 8 -78 12 -29 3 -63 7 -75 10 -24 5 -73 13 -122 19 -16 2 -30
4 -30 5 0 1 -18 3 -40 5 -21 3 -54 7 -72 10 -100 16 -96 17 -148 -26z"/>
<path d="M10250 5073 c0 -5 20 -61 45 -124 25 -63 54 -136 64 -164 11 -27 34
-88 52 -135 18 -47 34 -87 35 -89 3 -4 56 32 100 68 44 37 88 71 174 137 41
32 89 69 106 83 18 14 42 34 55 44 89 68 103 83 77 84 -7 0 -31 3 -53 7 -22 3
-60 8 -85 11 -25 3 -56 7 -70 10 -14 2 -45 7 -70 10 -25 3 -56 8 -70 10 -14 3
-43 7 -65 10 -49 6 -123 16 -150 21 -11 2 -40 7 -65 10 -25 3 -53 8 -62 10
-10 3 -18 1 -18 -3z"/>
<path d="M9905 4969 c-27 -22 -57 -45 -65 -52 -8 -7 -33 -26 -55 -42 -22 -17
-45 -34 -51 -40 -18 -16 -46 -38 -89 -70 -22 -16 -45 -34 -51 -40 -7 -5 -24
-19 -40 -30 -15 -11 -35 -27 -44 -35 -8 -8 -28 -23 -44 -33 -29 -19 -28 -29 2
-33 9 -2 35 -6 57 -9 22 -3 54 -7 70 -10 63 -10 92 -15 140 -20 28 -4 75 -10
105 -15 30 -6 75 -12 100 -15 25 -3 56 -7 70 -10 14 -2 43 -7 65 -10 23 -3 51
-7 63 -10 12 -2 22 -2 22 1 0 3 -33 91 -74 197 -78 204 -82 216 -86 232 -1 6
-5 15 -9 20 -5 6 -11 22 -15 38 -3 15 -10 27 -14 27 -4 -1 -29 -19 -57 -41z"/>
<path d="M9760 4984 c-30 -8 -64 -16 -75 -18 -11 -3 -49 -12 -85 -21 -150 -38
-216 -54 -240 -59 -14 -3 -72 -17 -130 -31 -58 -15 -112 -28 -120 -30 -8 -2
-64 -15 -124 -30 -60 -15 -116 -29 -125 -30 -9 -2 -18 -4 -21 -5 -3 -1 -9 -3
-15 -4 -5 -1 -21 -5 -35 -9 -14 -4 -36 -9 -50 -11 -58 -10 -83 -33 -32 -31 15
1 32 -1 37 -4 12 -6 23 -8 95 -16 30 -3 64 -8 75 -11 11 -3 36 -7 55 -9 44 -5
118 -15 150 -21 14 -3 43 -7 65 -9 37 -4 96 -13 137 -20 9 -2 27 6 40 17 30
26 352 278 381 298 25 17 85 70 77 69 -3 -1 -30 -7 -60 -15z"/>
<path d="M6415 4944 c-16 -14 -66 -53 -110 -87 -44 -33 -82 -63 -85 -66 -3 -4
-32 -26 -65 -51 -33 -25 -73 -57 -90 -72 -16 -16 -33 -28 -36 -28 -3 0 -15 -8
-27 -17 -40 -34 -58 -48 -120 -95 -39 -29 -59 -50 -50 -53 18 -6 66 -16 103
-20 45 -6 103 -14 170 -25 33 -6 78 -12 100 -15 22 -2 54 -7 70 -10 105 -20
138 -24 145 -20 5 3 11 1 15 -5 4 -6 10 -8 13 -6 4 2 39 -1 77 -9 101 -19 210
-7 247 28 8 6 31 26 53 43 300 233 350 272 370 292 8 6 18 12 23 12 6 0 12 3
14 8 2 4 27 26 57 50 29 23 47 42 40 43 -8 0 -23 2 -34 5 -11 2 -38 6 -60 9
-22 2 -58 7 -80 10 -22 4 -51 8 -65 10 -50 6 -108 15 -240 35 -74 12 -151 23
-170 25 -19 2 -49 6 -66 9 -18 3 -52 8 -75 11 -24 3 -55 7 -69 10 -17 3 -35
-4 -55 -21z"/>
<path d="M3010 4833 c0 -4 45 -121 101 -260 l101 -252 56 41 c32 23 59 44 62
48 4 5 153 119 185 142 5 4 26 20 45 35 19 16 62 49 95 73 80 60 82 64 32 72
-23 3 -60 9 -82 13 -50 8 -76 12 -140 21 -27 3 -59 8 -70 10 -11 3 -36 7 -55
9 -19 3 -65 10 -102 16 -80 13 -108 17 -166 24 -24 3 -48 7 -53 11 -5 3 -9 2
-9 -3z"/>
<path d="M7447 4822 c-11 -2 -29 -12 -40 -22 -12 -10 -98 -77 -192 -149 -93
-73 -177 -137 -185 -144 -8 -7 -32 -25 -52 -41 -21 -16 -38 -33 -38 -38 0 -5
4 -7 8 -4 5 3 19 7 33 10 13 3 74 17 134 32 61 14 117 27 125 29 8 2 16 4 18
5 2 3 2 3 57 15 53 11 49 10 140 33 44 12 95 24 114 27 19 3 37 8 41 10 3 2
20 7 36 10 39 8 59 13 59 15 0 1 11 4 24 6 14 2 61 14 105 25 45 11 90 22 101
25 11 2 29 6 40 9 11 2 53 12 93 21 39 10 72 20 72 23 0 7 -6 8 -77 13 -24 2
-43 5 -43 9 0 3 -19 6 -42 6 -24 1 -43 2 -43 3 0 2 -34 8 -89 15 -27 4 -56 8
-65 10 -9 1 -41 6 -71 10 -30 5 -62 10 -70 11 -8 1 -35 5 -60 9 -85 11 -99 13
-107 17 -4 3 -16 3 -26 0z"/>
<path d="M2489 4557 c-131 -100 -235 -184 -233 -186 5 -6 20 -8 85 -16 25 -3
56 -8 70 -10 13 -3 44 -8 69 -11 25 -3 54 -8 65 -11 11 -2 40 -6 65 -9 25 -2
56 -7 70 -9 14 -2 43 -7 65 -10 22 -3 68 -10 103 -16 35 -6 65 -9 68 -6 5 4
-130 349 -146 372 -3 6 -12 29 -20 53 -7 23 -16 42 -19 41 -3 0 -112 -82 -242
-182z"/>
<path d="M3785 4673 c-28 -21 -57 -43 -65 -50 -8 -7 -71 -55 -140 -107 -69
-53 -136 -105 -148 -116 -13 -11 -26 -20 -29 -20 -2 0 -11 -6 -18 -14 -8 -8
-43 -35 -78 -61 -49 -36 -63 -52 -60 -66 6 -20 21 -26 83 -33 19 -3 35 -5 35
-6 0 0 20 -3 45 -5 25 -3 56 -7 70 -10 14 -3 45 -7 70 -10 25 -4 68 -10 95
-15 28 -5 68 -11 90 -14 22 -3 51 -8 65 -10 14 -3 41 -7 60 -10 61 -8 204 -28
227 -31 11 -2 33 7 48 18 16 12 45 36 66 52 20 17 52 41 70 55 53 40 152 118
177 140 13 10 37 29 55 42 18 12 34 25 37 28 3 3 42 34 87 68 87 66 99 78 80
80 -16 1 -81 10 -147 22 -30 5 -73 11 -95 14 -22 3 -51 8 -65 11 -14 3 -43 7
-65 10 -57 6 -112 14 -175 25 -52 9 -80 13 -175 26 -43 5 -60 8 -115 19 -31 5
-42 1 -85 -32z"/>
<path d="M8432 4660 c-21 -9 -79 -49 -108 -75 -7 -5 -23 -18 -37 -28 -27 -20
-215 -164 -257 -197 -14 -11 -59 -46 -101 -77 -41 -32 -90 -70 -108 -84 l-33
-26 53 -8 c30 -4 63 -9 74 -10 38 -7 110 -18 130 -20 11 -1 52 -7 90 -13 39
-6 84 -13 100 -16 17 -2 59 -9 95 -15 36 -5 88 -13 115 -17 28 -3 59 -8 70
-11 85 -18 106 -13 180 49 11 9 58 46 105 83 118 92 131 102 252 196 58 46
129 102 157 124 28 21 49 41 47 42 -2 2 -16 6 -32 8 -16 2 -42 6 -59 9 -41 6
-101 14 -155 21 -25 3 -53 9 -64 12 -10 3 -35 7 -55 8 -36 3 -104 13 -151 21
-14 3 -45 7 -70 9 -25 2 -56 7 -70 10 -51 12 -146 15 -168 5z"/>
<path d="M8167 4595 c-26 -7 -50 -13 -52 -14 -3 -1 -6 -1 -7 -2 -2 0 -10 -2
-18 -4 -8 -2 -26 -6 -40 -9 -14 -3 -43 -10 -66 -14 -22 -5 -45 -11 -50 -15 -5
-3 -29 -8 -53 -12 -24 -3 -54 -10 -67 -15 -13 -5 -24 -7 -24 -4 0 4 -7 1 -15
-6 -8 -7 -15 -10 -15 -7 0 3 -26 -2 -57 -10 -32 -8 -65 -16 -73 -18 -8 -2 -71
-17 -140 -35 -133 -34 -148 -37 -194 -46 -16 -2 -32 -7 -36 -9 -3 -2 -17 -6
-31 -8 -13 -3 -60 -14 -105 -26 -45 -11 -92 -23 -105 -25 -13 -3 -26 -5 -29
-6 -3 -2 -9 -2 -13 -1 -5 1 -6 -3 -3 -8 4 -5 14 -9 24 -9 9 0 33 -2 52 -5 19
-3 55 -9 80 -12 25 -4 56 -9 70 -11 14 -3 39 -7 55 -10 91 -12 183 -26 205
-30 29 -5 74 -12 128 -19 20 -3 52 -8 70 -11 31 -6 54 6 137 74 6 4 37 28 70
52 33 25 62 47 65 50 3 4 23 19 45 36 22 16 45 34 52 39 18 15 32 26 98 75 33
25 66 51 73 58 7 6 18 12 23 12 5 0 9 5 9 10 0 12 -2 12 -63 -5z"/>
<path d="M4627 4411 c-103 -81 -197 -156 -210 -167 -12 -10 -49 -39 -82 -64
-33 -24 -66 -50 -73 -57 -8 -7 -22 -18 -33 -23 -22 -12 -25 -26 -6 -27 6 -1
32 -4 57 -8 25 -4 59 -9 75 -10 17 -2 30 -4 30 -5 0 -1 34 -7 90 -14 30 -4
157 -23 205 -31 14 -2 45 -6 70 -10 25 -4 59 -9 75 -12 17 -3 41 -6 55 -8 14
-2 48 -6 75 -10 77 -12 80 -11 173 62 48 37 108 84 133 103 25 19 64 49 85 67
51 41 176 139 236 183 56 41 66 59 35 61 -43 3 -75 7 -167 23 -14 3 -61 10
-105 16 -44 6 -91 14 -105 16 -14 3 -41 7 -60 10 -19 2 -62 9 -95 14 -132 21
-187 29 -235 34 -32 4 -50 -8 -223 -143z"/>
<path d="M9362 4543 c-7 -3 -22 -13 -35 -24 -26 -22 -129 -103 -177 -139 -18
-14 -61 -47 -95 -75 -34 -27 -77 -61 -95 -75 -18 -14 -45 -34 -59 -46 -14 -11
-57 -45 -96 -74 -103 -79 -101 -77 -47 -84 125 -17 184 -26 242 -37 55 -10
104 -17 170 -23 19 -2 42 -6 50 -9 8 -3 42 -9 75 -13 33 -4 62 -8 65 -9 3 0
32 -5 65 -10 33 -4 67 -9 75 -11 98 -16 115 -15 150 15 19 16 134 106 255 200
241 187 305 240 305 251 0 23 -39 50 -80 55 -44 5 -81 11 -150 21 -19 3 -48 7
-65 9 -16 2 -30 4 -30 5 0 1 -13 3 -30 4 -16 2 -52 7 -80 10 -27 4 -61 9 -75
11 -58 8 -106 16 -125 20 -11 2 -47 7 -80 10 -33 3 -73 10 -90 14 -16 4 -36 6
-43 4z"/>
<path d="M1154 4430 c-21 -17 -54 -43 -73 -58 -61 -48 -457 -356 -491 -382
-80 -61 -78 -57 -45 -64 17 -3 50 -8 75 -12 25 -3 54 -7 65 -9 11 -1 43 -6 70
-9 28 -4 61 -9 75 -11 14 -3 45 -7 70 -10 25 -3 56 -7 70 -10 25 -5 53 -10
128 -20 20 -3 50 -8 66 -11 16 -3 48 -6 72 -8 23 -2 47 -7 54 -11 6 -4 14 -5
16 -2 3 2 21 1 41 -4 44 -9 51 -6 162 80 47 37 124 96 171 132 47 36 146 112
220 169 74 57 137 107 138 112 2 4 7 6 12 3 4 -3 10 2 14 10 3 8 2 16 -2 16
-4 1 -16 3 -27 4 -11 2 -42 6 -70 10 -27 4 -56 8 -62 8 -7 0 -13 4 -13 9 0 5
-4 7 -9 4 -5 -4 -85 5 -178 20 -170 26 -199 30 -265 38 -20 3 -62 9 -95 15
-141 24 -147 24 -189 -9z"/>
<path d="M5722 4402 c-9 -9 -33 -28 -52 -42 -19 -13 -40 -29 -47 -35 -35 -29
-245 -193 -286 -222 -17 -12 -33 -26 -36 -31 -3 -5 -24 -21 -46 -36 -40 -28
-40 -28 -10 -23 17 2 82 17 145 32 63 15 123 28 133 29 9 0 17 5 17 10 0 5 3
7 6 3 3 -3 17 -2 31 4 13 5 36 11 51 14 23 4 316 75 372 89 8 3 74 19 145 36
72 17 137 32 145 35 8 2 51 13 95 24 44 11 73 21 65 22 -8 1 -19 3 -25 4 -14
2 -94 16 -130 22 -16 3 -43 6 -60 8 -16 2 -59 8 -93 15 -66 12 -108 18 -176
25 -21 2 -62 8 -90 14 -115 22 -135 22 -154 3z"/>
<path d="M2135 4285 c-30 -26 -171 -135 -354 -273 -53 -41 -105 -81 -116 -90
-11 -10 -53 -41 -93 -71 -40 -30 -70 -56 -67 -59 6 -6 15 -8 75 -17 19 -2 44
-7 55 -9 11 -2 43 -7 70 -11 28 -4 59 -8 70 -10 11 -1 43 -6 70 -10 28 -3 61
-8 75 -10 36 -6 170 -26 205 -30 17 -3 59 -9 95 -14 139 -22 130 -23 184 17
55 40 73 54 120 93 17 14 80 63 140 108 59 45 118 91 129 102 11 10 24 19 27
19 4 0 16 8 28 18 43 36 58 48 90 70 34 24 43 61 20 80 -7 6 -29 13 -48 16
-19 3 -48 8 -65 11 -16 3 -48 8 -70 11 -22 2 -67 8 -100 14 -33 5 -78 12 -100
15 -49 7 -87 13 -123 20 -15 2 -52 7 -82 11 -30 3 -58 8 -62 10 -3 2 -37 6
-75 9 -62 5 -70 4 -98 -20z"/>
<path d="M6727 4245 c-26 -7 -53 -17 -60 -23 -7 -5 -106 -82 -222 -172 -115
-90 -214 -168 -220 -174 -5 -6 -29 -24 -52 -40 -48 -32 -55 -51 -20 -52 21 -1
46 -4 167 -24 30 -5 73 -11 95 -14 22 -3 53 -8 70 -11 16 -4 47 -8 70 -10 22
-2 49 -6 60 -8 24 -6 107 -18 150 -23 17 -1 44 -5 60 -8 167 -31 167 -31 237
21 35 27 70 54 78 61 8 7 47 36 85 65 39 28 75 57 81 62 6 6 22 17 34 25 12 8
28 20 34 25 6 6 38 31 71 55 77 58 94 72 115 91 9 8 24 18 33 22 29 11 18 32
-14 29 -3 -1 -46 6 -95 14 -49 8 -105 16 -124 19 -65 8 -115 16 -165 25 -27 5
-75 12 -105 16 -30 3 -57 7 -60 9 -3 2 -30 6 -60 9 -30 3 -82 11 -115 16 -71
12 -67 12 -128 -5z"/>
<path d="M6415 4169 c-44 -10 -96 -23 -115 -29 -19 -5 -75 -19 -125 -31 -49
-11 -97 -23 -105 -25 -46 -11 -107 -26 -120 -29 -8 -2 -44 -11 -80 -20 -36 -9
-74 -18 -85 -20 -11 -3 -83 -20 -160 -39 -77 -19 -151 -37 -165 -40 -14 -3
-45 -11 -70 -19 -42 -14 -43 -15 -15 -17 17 -1 39 -3 50 -5 11 -2 40 -7 65
-10 25 -3 52 -8 60 -10 8 -3 35 -7 60 -10 25 -2 56 -7 70 -9 14 -3 75 -12 135
-21 145 -20 178 -25 191 -30 7 -2 20 4 30 14 11 9 45 36 78 60 32 24 66 51 76
60 9 9 30 25 45 36 25 17 56 42 102 80 27 22 41 33 106 83 38 29 65 52 60 51
-4 0 -44 -9 -88 -20z"/>
<path d="M3290 4140 c0 -10 51 -142 75 -195 7 -16 21 -50 30 -75 9 -25 21 -54
26 -65 5 -11 26 -63 47 -115 46 -113 29 -109 227 -59 76 20 92 24 133 33 9 2
35 9 57 14 22 6 51 13 65 16 14 3 72 17 130 32 58 15 112 28 120 29 8 1 22 5
30 8 13 5 175 43 223 52 10 3 27 7 37 10 10 3 27 7 37 10 10 2 73 17 140 34
67 17 131 31 142 31 12 0 21 5 21 10 0 6 -3 10 -6 10 -8 0 -212 30 -244 36
-14 2 -47 7 -75 10 -27 3 -59 8 -70 11 -11 4 -36 8 -55 9 -19 1 -35 3 -35 5 0
1 -11 2 -25 4 -14 1 -38 4 -55 8 -16 3 -50 9 -75 12 -25 3 -54 7 -65 9 -11 2
-42 7 -70 10 -27 4 -61 9 -75 11 -38 5 -172 26 -200 31 -14 2 -45 7 -70 9 -25
3 -54 7 -66 10 -12 3 -39 7 -60 10 -36 5 -124 18 -204 30 -19 2 -47 7 -62 10
-16 3 -28 1 -28 -5z"/>
<path d="M7695 4104 c-62 -47 -92 -70 -237 -181 -87 -68 -161 -123 -164 -123
-2 0 -12 -8 -23 -17 -10 -10 -53 -45 -95 -77 -42 -32 -75 -60 -73 -62 2 -2 28
-6 58 -9 30 -3 61 -8 70 -11 10 -2 30 -6 45 -8 37 -5 103 -15 179 -26 33 -5
83 -12 110 -16 28 -3 57 -7 65 -9 30 -5 96 -16 125 -20 17 -2 61 -8 98 -14 80
-11 94 -7 162 49 67 54 88 71 240 189 72 55 135 104 140 109 6 4 38 30 73 57
34 26 62 51 62 55 0 4 -26 11 -57 15 -65 9 -77 11 -113 19 -14 3 -47 8 -75 11
-48 5 -76 9 -140 20 -16 3 -48 8 -70 10 -22 3 -65 10 -95 15 -30 5 -73 12 -95
15 -23 3 -50 7 -60 9 -82 15 -111 15 -130 0z"/>
<path d="M2855 3960 c-77 -60 -147 -115 -155 -123 -8 -8 -28 -22 -45 -33 -16
-10 -37 -25 -45 -34 -8 -8 -45 -38 -82 -65 -69 -51 -82 -68 -50 -64 9 1 19 0
22 -1 3 -1 19 -4 35 -6 17 -2 50 -6 75 -10 25 -3 55 -7 68 -7 12 -1 22 -4 22
-7 0 -3 12 -6 28 -6 29 -1 110 -12 152 -20 14 -3 36 -7 50 -9 63 -8 247 -35
266 -39 18 -4 21 -1 16 17 -3 12 -8 27 -12 32 -4 6 -11 21 -15 35 -4 14 -14
41 -22 60 -8 19 -19 44 -23 55 -4 11 -15 36 -23 55 -8 19 -18 46 -22 60 -4 14
-11 30 -14 35 -4 6 -23 49 -42 97 -19 49 -36 88 -39 87 -3 0 -68 -49 -145
-109z"/>
</g>
</svg>
