<?xml version="1.0" encoding="UTF-8" standalone="no"?>
<!-- Created with Inkscape (http://www.inkscape.org/) -->

<svg
   width="130.9908mm"
   height="27.413435mm"
   viewBox="0 0 130.9908 27.413435"
   version="1.1"
   id="svg5"
   inkscape:version="1.2.2 (b0a8486541, 2022-12-01)"
   sodipodi:docname="title.svg"
   xmlns:inkscape="http://www.inkscape.org/namespaces/inkscape"
   xmlns:sodipodi="http://sodipodi.sourceforge.net/DTD/sodipodi-0.dtd"
   xmlns="http://www.w3.org/2000/svg"
   xmlns:svg="http://www.w3.org/2000/svg">
  <sodipodi:namedview
     id="namedview7"
     pagecolor="#ffffff"
     bordercolor="#666666"
     borderopacity="1.0"
     inkscape:showpageshadow="2"
     inkscape:pageopacity="0.0"
     inkscape:pagecheckerboard="0"
     inkscape:deskcolor="#d1d1d1"
     inkscape:document-units="mm"
     showgrid="false"
     inkscape:zoom="0.914906"
     inkscape:cx="296.7518"
     inkscape:cy="418.07574"
     inkscape:window-width="1920"
     inkscape:window-height="1016"
     inkscape:window-x="0"
     inkscape:window-y="27"
     inkscape:window-maximized="1"
     inkscape:current-layer="layer1" />
  <defs
     id="defs2" />
  <g
     inkscape:label="Layer 1"
     inkscape:groupmode="layer"
     id="layer1"
     transform="translate(-11.44301,-25.513436)">
    <circle
       class="st1"
       cx="63.489075"
       cy="38.558002"
       r="3.4792707"
       id="circle2953"
       style="fill:#c1d77f;stroke-width:0.264583" />
    <g
       aria-label="BikingImprover"
       id="text1516"
       style="font-size:16.9333px;line-height:1.25;stroke-width:0.264583">
      <path
         d="m 11.44301,38.36581 h 4.368791 c 2.184396,0 3.674526,-1.269997 3.674526,-3.589859 v -0.338666 c 0,-1.456264 -0.778931,-2.455329 -1.964262,-2.929461 0.965198,-0.440266 1.574797,-1.253064 1.574797,-2.489195 v -0.169333 c 0,-2.082796 -1.490131,-3.183461 -3.657593,-3.183461 H 11.44301 Z m 3.725326,-10.329313 c 0.795865,0 1.219198,0.3048 1.219198,1.100665 v 0.169333 c 0,0.897465 -0.423333,1.269997 -1.219198,1.269997 h -0.931332 v -2.539995 z m 0.220133,4.910657 c 0.778932,0 1.219197,0.372533 1.219197,1.388531 v 0.169333 c 0,1.049865 -0.440265,1.49013 -1.219197,1.49013 h -1.151465 v -3.047994 z"
         style="font-weight:bold;font-family:Stratos;-inkscape-font-specification:'Stratos Bold'"
         id="path9465" />
      <path
         d="m 22.195642,28.646096 c 0.965199,0 1.642531,-0.694265 1.642531,-1.557863 0,-0.897465 -0.677332,-1.574797 -1.642531,-1.574797 -0.965198,0 -1.64253,0.677332 -1.64253,1.574797 0,0.863598 0.677332,1.557863 1.64253,1.557863 z m 1.439331,9.719714 v -8.46665 h -2.878661 v 8.46665 z"
         style="font-weight:bold;font-family:Stratos;-inkscape-font-specification:'Stratos Bold'"
         id="path9467" />
      <path
         d="M 28.206972,25.665835 H 25.328311 V 38.36581 h 2.878661 V 33.946219 L 30.7131,38.36581 h 3.251194 l -2.963328,-4.656657 2.810928,-3.809993 h -3.318927 l -2.285995,3.58986 z"
         style="font-weight:bold;font-family:Stratos;-inkscape-font-specification:'Stratos Bold'"
         id="path9469" />
      <path
         d="m 36.334966,28.646096 c 0.965198,0 1.64253,-0.694265 1.64253,-1.557863 0,-0.897465 -0.677332,-1.574797 -1.64253,-1.574797 -0.965198,0 -1.64253,0.677332 -1.64253,1.574797 0,0.863598 0.677332,1.557863 1.64253,1.557863 z m 1.43933,9.719714 v -8.46665 h -2.878661 v 8.46665 z"
         style="font-weight:bold;font-family:Stratos;-inkscape-font-specification:'Stratos Bold'"
         id="path9471" />
      <path
         d="m 44.88629,33.658353 v 4.707457 h 2.878661 v -5.401722 c 0,-2.150529 -1.286931,-3.234261 -3.014128,-3.234261 -1.083731,0 -1.981196,0.491066 -2.489195,1.388531 V 29.89916 h -2.793994 v 8.46665 h 2.878661 v -4.707457 c 0,-1.083731 0.440266,-1.64253 1.269997,-1.64253 0.829732,0 1.269998,0.558799 1.269998,1.64253 z"
         style="font-weight:bold;font-family:Stratos;-inkscape-font-specification:'Stratos Bold'"
         id="path9473" />
      <path
         d="m 52.760258,38.535143 c 0.999064,0 1.845729,-0.423332 2.455328,-1.151464 v 1.219198 c 0,1.185331 -0.592665,1.964262 -1.69333,1.964262 -0.914398,0 -1.54093,-0.609598 -1.676396,-1.523997 h -2.726262 c 0.3048,2.269063 2.015063,3.725326 4.487325,3.725326 2.539995,0 4.487324,-1.659463 4.487324,-4.233325 V 29.89916 h -2.793994 v 1.083732 c -0.609599,-0.795866 -1.490131,-1.253065 -2.539995,-1.253065 -2.269062,0 -3.809993,1.727197 -3.809993,4.402658 0,2.675462 1.540931,4.402658 3.809993,4.402658 z m 0.711198,-2.506128 c -1.015998,0 -1.727196,-0.761999 -1.727196,-1.89653 0,-1.134531 0.711198,-1.896529 1.727196,-1.896529 1.015998,0 1.74413,0.761998 1.74413,1.896529 0,1.134531 -0.728132,1.89653 -1.74413,1.89653 z"
         style="font-weight:bold;font-family:Stratos;-inkscape-font-specification:'Stratos Bold'"
         id="path9475" />
      <path
         d="M 62.666233,38.36581 V 25.665835 H 59.787572 V 38.36581 Z"
         style="font-weight:bold;font-family:Stratos;-inkscape-font-specification:'Stratos Bold'"
         id="path9477" />
      <path
         d="m 69.524228,33.59062 v 4.77519 h 2.878661 v -4.77519 c 0,-1.049865 0.389465,-1.574797 1.134531,-1.574797 0.745065,0 1.151464,0.524932 1.151464,1.574797 v 4.77519 h 2.878661 v -5.486389 c 0,-2.099729 -1.219198,-3.149594 -2.895594,-3.149594 -1.151465,0 -2.116663,0.558799 -2.573862,1.540931 -0.474132,-1.032932 -1.422397,-1.540931 -2.590795,-1.540931 -1.015998,0 -1.879596,0.474133 -2.353728,1.303864 V 29.89916 h -2.793995 v 8.46665 h 2.878661 v -4.77519 c 0,-1.049865 0.406399,-1.574797 1.151464,-1.574797 0.728132,0 1.134532,0.524932 1.134532,1.574797 z"
         style="font-weight:bold;font-family:Stratos;-inkscape-font-specification:'Stratos Bold'"
         id="path9479" />
      <path
         d="m 82.054871,42.599135 v -5.215456 c 0.609599,0.728132 1.456264,1.151464 2.455329,1.151464 2.252128,0 3.809992,-1.727196 3.809992,-4.402658 0,-2.675461 -1.557864,-4.402658 -3.809992,-4.402658 -1.049865,0 -1.930397,0.457199 -2.539995,1.253065 V 29.89916 H 79.17621 v 12.699975 z m 1.727197,-6.57012 c -0.999065,0 -1.727197,-0.761999 -1.727197,-1.89653 0,-1.134531 0.728132,-1.896529 1.727197,-1.896529 1.015998,0 1.74413,0.761998 1.74413,1.896529 0,1.134531 -0.728132,1.89653 -1.74413,1.89653 z"
         style="font-weight:bold;font-family:Stratos;-inkscape-font-specification:'Stratos Bold'"
         id="path9481" />
      <path
         d="m 92.299509,29.89916 h -2.709328 v 8.46665 h 2.878661 v -4.233325 c 0,-1.083731 0.711199,-1.69333 1.964263,-1.69333 0.338666,0 0.643465,0.0508 0.880531,0.135467 v -2.810928 c -0.101599,-0.03387 -0.270932,-0.03387 -0.423332,-0.03387 -1.168398,0 -2.082796,0.626532 -2.590795,1.74413 z"
         style="font-weight:bold;font-family:Stratos;-inkscape-font-specification:'Stratos Bold'"
         id="path9483" />
      <path
         d="m 100.30896,38.535143 c 2.57386,0 4.48732,-1.777996 4.48732,-4.402658 0,-2.624661 -1.91346,-4.402658 -4.48732,-4.402658 -2.573863,0 -4.487326,1.777997 -4.487326,4.402658 0,2.624662 1.913463,4.402658 4.487326,4.402658 z m 0,-2.506128 c -1.016,0 -1.727198,-0.761999 -1.727198,-1.89653 0,-1.134531 0.711198,-1.896529 1.727198,-1.896529 1.016,0 1.72719,0.761998 1.72719,1.896529 0,1.134531 -0.71119,1.89653 -1.72719,1.89653 z"
         style="font-weight:bold;font-family:Stratos;-inkscape-font-specification:'Stratos Bold'"
         id="path9485" />
      <path
         d="m 111.65427,38.36581 1.93039,-8.46665 h -2.79399 l -1.33773,6.891853 -1.33773,-6.891853 h -2.794 l 1.9304,8.46665 z"
         style="font-weight:bold;font-family:Stratos;-inkscape-font-specification:'Stratos Bold'"
         id="path9487" />
      <path
         d="m 122.81331,34.809817 c 0.0169,-0.220133 0.0339,-0.440265 0.0339,-0.677332 0,-2.590795 -1.81186,-4.402658 -4.36879,-4.402658 -2.55693,0 -4.36879,1.811863 -4.36879,4.402658 0,2.590795 1.81186,4.402658 4.36879,4.402658 2.15053,0 3.64066,-1.015998 4.18252,-2.963327 h -2.77706 c -0.2032,0.524932 -0.67733,0.728132 -1.35466,0.728132 -0.9652,0 -1.54093,-0.491066 -1.71026,-1.490131 z m -4.33492,-2.844794 c 0.8636,0 1.45626,0.440266 1.64253,1.405464 h -3.28506 c 0.18627,-0.931332 0.762,-1.405464 1.64253,-1.405464 z"
         style="font-weight:bold;font-family:Stratos;-inkscape-font-specification:'Stratos Bold'"
         id="path9489" />
      <path
         d="m 126.8265,29.89916 h -2.70933 v 8.46665 h 2.87866 v -4.233325 c 0,-1.083731 0.7112,-1.69333 1.96427,-1.69333 0.33866,0 0.64346,0.0508 0.88053,0.135467 v -2.810928 c -0.1016,-0.03387 -0.27093,-0.03387 -0.42333,-0.03387 -1.1684,0 -2.0828,0.626532 -2.5908,1.74413 z"
         style="font-weight:bold;font-family:Stratos;-inkscape-font-specification:'Stratos Bold'"
         id="path9491" />
    </g>
    <g
       aria-label="day"
       id="text16366"
       style="font-size:14.1111px;line-height:1.25;stroke-width:0.264583">
      <path
         d="m 122.98873,42.14599 c -1.91911,0 -3.37255,1.509888 -3.37255,3.668886 0,2.158999 1.45344,3.668886 3.37255,3.668886 1.17122,0 2.159,-0.620888 2.72344,-1.636887 v 1.495776 h 0.84667 V 38.759326 h -0.84667 v 5.023552 c -0.56444,-1.015999 -1.55222,-1.636888 -2.72344,-1.636888 z m 0.0988,0.776111 c 1.49577,0 2.62466,1.15711 2.62466,2.892775 0,1.735666 -1.12889,2.892776 -2.62466,2.892776 -1.49578,0 -2.62467,-1.15711 -2.62467,-2.892776 0,-1.735665 1.12889,-2.892775 2.62467,-2.892775 z"
         style="font-weight:300;font-family:Stratos;-inkscape-font-specification:'Stratos Light'"
         id="path9458" />
      <path
         d="m 130.94739,49.483762 c 1.08655,0 2.14488,-0.479777 2.63877,-1.580443 v 1.439332 h 0.83256 v -4.995329 c 0,-1.594554 -1.35467,-2.201332 -2.82222,-2.201332 -1.49578,0 -2.90689,0.677333 -2.90689,2.455332 h 0.86078 c 0,-1.171222 0.86077,-1.763888 2.04611,-1.763888 1.12888,0 1.97555,0.493889 1.97555,1.481666 0,2.003776 -5.09411,0.127 -5.09411,3.217331 0,1.326443 1.11478,1.947331 2.46945,1.947331 z m -1.60867,-1.989665 c 0,-1.806221 3.01978,-1.058332 4.24744,-1.93322 v 0.874888 c 0,1.523999 -1.22766,2.328331 -2.49766,2.328331 -1.03011,0 -1.74978,-0.409222 -1.74978,-1.269999 z"
         style="font-weight:300;font-family:Stratos;-inkscape-font-specification:'Stratos Light'"
         id="path9460" />
      <path
         d="m 139.41404,50.259873 3.01977,-7.972772 h -0.86078 l -2.52588,6.801551 -2.59644,-6.801551 h -0.86078 l 3.048,7.902216 c -0.52211,1.340555 -0.95956,1.989666 -2.06022,1.989666 -0.33867,0 -0.66323,-0.05645 -0.91723,-0.155223 v 0.762 c 0.254,0.08467 0.62089,0.141111 1.00189,0.141111 1.60867,0 2.17311,-1.100666 2.75167,-2.666998 z"
         style="font-weight:300;font-family:Stratos;-inkscape-font-specification:'Stratos Light'"
         id="path9462" />
    </g>
  </g>
</svg>
